<svg xmlns="http://www.w3.org/2000/svg" width="240" height="90" viewBox="0 0 240 90"><defs><linearGradient id="jvnra" x1="101.59" x2="103.91" y1="45.14" y2="45.14" gradientUnits="userSpaceOnUse"><stop offset="0" stop-color="#a1a9ae"/><stop offset=".26" stop-color="#a7b0b5"/><stop offset=".55" stop-color="#c8d5d9"/><stop offset=".86" stop-color="#a7b0b5"/><stop offset="1" stop-color="#a2acb2"/></linearGradient><linearGradient id="jvnrb" x1="106.89" x2="109.21" y1="45.14" y2="45.14" gradientUnits="userSpaceOnUse"><stop offset="0" stop-color="#a1a9ae"/><stop offset=".26" stop-color="#a7b0b5"/><stop offset=".55" stop-color="#c8d5d9"/><stop offset=".86" stop-color="#a7b0b5"/><stop offset="1" stop-color="#a2acb2"/></linearGradient><linearGradient id="jvnrc" x1="112.19" x2="114.51" y1="45.14" y2="45.14" gradientUnits="userSpaceOnUse"><stop offset="0" stop-color="#a1a9ae"/><stop offset=".26" stop-color="#a7b0b5"/><stop offset=".55" stop-color="#c8d5d9"/><stop offset=".86" stop-color="#a7b0b5"/><stop offset="1" stop-color="#a2acb2"/></linearGradient><linearGradient id="jvnrd" x1="117.49" x2="119.81" y1="45.14" y2="45.14" gradientUnits="userSpaceOnUse"><stop offset="0" stop-color="#a1a9ae"/><stop offset=".26" stop-color="#a7b0b5"/><stop offset=".55" stop-color="#c8d5d9"/><stop offset=".86" stop-color="#a7b0b5"/><stop offset="1" stop-color="#a2acb2"/></linearGradient><linearGradient id="jvnre" x1="122.79" x2="125.11" y1="45.14" y2="45.14" gradientUnits="userSpaceOnUse"><stop offset="0" stop-color="#a1a9ae"/><stop offset=".26" stop-color="#a7b0b5"/><stop offset=".55" stop-color="#c8d5d9"/><stop offset=".86" stop-color="#a7b0b5"/><stop offset="1" stop-color="#a2acb2"/></linearGradient><linearGradient id="jvnrf" x1="128.09" x2="130.41" y1="45.14" y2="45.14" gradientUnits="userSpaceOnUse"><stop offset="0" stop-color="#a1a9ae"/><stop offset=".26" stop-color="#a7b0b5"/><stop offset=".55" stop-color="#c8d5d9"/><stop offset=".86" stop-color="#a7b0b5"/><stop offset="1" stop-color="#a2acb2"/></linearGradient><linearGradient id="jvnrg" x1="133.39" x2="135.71" y1="45.14" y2="45.14" gradientUnits="userSpaceOnUse"><stop offset="0" stop-color="#a1a9ae"/><stop offset=".26" stop-color="#a7b0b5"/><stop offset=".55" stop-color="#c8d5d9"/><stop offset=".86" stop-color="#a7b0b5"/><stop offset="1" stop-color="#a2acb2"/></linearGradient><linearGradient id="jvnrh" x1="93.08" x2="145.72" y1="36.51" y2="36.51" gradientUnits="userSpaceOnUse"><stop offset="0" stop-color="#a1a9ae"/><stop offset=".32" stop-color="#a7b0b5"/><stop offset=".52" stop-color="#c8d5d9"/><stop offset=".72" stop-color="#a7b0b5"/><stop offset="1" stop-color="#a2acb2"/></linearGradient></defs><g><g><g><g><path fill="url(#jvnra)" d="M101.584 89.93V.357h2.318v89.571z"/></g><g><path fill="url(#jvnrb)" d="M106.885 89.93V.357h2.318v89.571z"/></g><g><path fill="url(#jvnrc)" d="M112.186 89.93V.357h2.318v89.571z"/></g><g><path fill="url(#jvnrd)" d="M117.486 89.93V.357h2.319v89.571z"/></g><g><path fill="url(#jvnre)" d="M122.787 89.93V.357h2.318v89.571z"/></g><g><path fill="url(#jvnrf)" d="M128.088 89.93V.357h2.318v89.571z"/></g><g><path fill="url(#jvnrg)" d="M133.389 89.93V.357h2.318v89.571z"/></g><g><path fill="#d9000d" d="M122.779 58.594c-.72.108-1.447.214-2.178.319.734-.025 1.459-.06 2.178-.106zm5.309-.859c-.976.174-1.975.34-2.992.502v.387c1.01-.095 2.007-.209 2.992-.34zm2.318-.433v.64a88.645 88.645 0 0 0 2.982-.536v-.746c-.953.225-1.95.439-2.982.642zM107.628 36.43v6.703c16.109 1.172 31.848 2.496 36.13 8.513-1.155 1.9-4.095 3.3-8.051 4.418v.855c3.008-.67 5.932-1.466 8.813-2.325l-.32-12.481z"/></g><g><path fill="url(#jvnrh)" d="M117.486 63.404c-.58.08-1.158.16-1.735.238.563-.15 1.143-.294 1.735-.436zm5.293-.78c-.994.158-1.985.307-2.975.45v-.399c.973-.213 1.968-.424 2.975-.636zm5.309-.928c-.996.192-1.994.374-2.992.545v-.693c1-.214 2-.434 2.992-.664zm5.3-2.21v1.057c-.99.242-1.985.469-2.982.682v-.904a65.826 65.826 0 0 0 2.983-.835zm-36.15-22.832V9.779c18.032 1.911 34.363 6.575 48.483 14.812v31.842c-3.239 1.441-6.597 2.582-10.014 3.512v-1.242c3.578-1.33 6.48-3.061 7.912-5.54.25-.43.072-2.532.142-3.05-3.238-7.609-23.438-12.038-46.524-13.46zm-1.121-26.99v26.923c-1.009-.057-2.023-.11-3.04-.156V9.39c1.019.083 2.032.175 3.04.274z"/></g></g><g><path fill="#a3a3a3" d="M81.75 31.453h-2.533c-.591 0-1.024.12-1.298.366-.275.244-.41.558-.41.936 0 .26.07.498.212.718.14.222.347.383.62.482.271.1.649.15 1.134.15h2.275zm0 7.13v-3.56h-1.227c-.274 0-.47.014-.59.038-.164.04-.326.112-.483.213-.159.102-.337.28-.539.535-.2.256-.455.623-.763 1.106l-1.06 1.669h-1.324L77.15 36.4c.274-.426.567-.783.877-1.067.145-.13.358-.265.64-.4-.769-.105-1.336-.351-1.704-.741-.367-.39-.552-.87-.552-1.439 0-.44.112-.843.334-1.207.222-.364.519-.617.89-.76.371-.145.913-.217 1.627-.217h3.552v8.015zM69.417 30.57v6.346l4.266-6.346h1.051v8.015h-.963v-6.331l-4.255 6.33h-1.062V30.57zm-9.024 8.015v-8.015h1.063v3.301h4.142V30.57h1.063v8.015h-1.063V34.81h-4.142v3.773zm-3.353-3.292l-.836-2.222a28.228 28.228 0 0 1-.574-1.673c-.11.522-.258 1.035-.442 1.543l-.88 2.352zm-5.037 3.292l3.074-8.015h1.166l3.263 8.015H58.3l-.928-2.43h-3.375l-.87 2.43zm-5.198-.94h1.996c.343 0 .584-.014.724-.04.242-.043.448-.116.612-.218.164-.103.299-.253.405-.448.106-.196.159-.422.159-.678 0-.3-.077-.56-.232-.781a1.204 1.204 0 0 0-.638-.466c-.27-.09-.663-.135-1.172-.135h-1.854zm0-3.706h1.733c.47 0 .808-.032 1.011-.094.27-.08.474-.214.61-.4.137-.187.206-.42.206-.702a1.28 1.28 0 0 0-.193-.703.963.963 0 0 0-.546-.418c-.237-.075-.644-.112-1.218-.112h-1.603zm-1.063-3.37h3.007c.612 0 1.103.08 1.474.243.369.162.658.412.867.75.211.336.316.688.316 1.058 0 .341-.094.664-.278.967-.185.301-.465.546-.84.733.485.141.858.384 1.118.727.26.341.391.746.391 1.213 0 .377-.08.725-.239 1.048a2.03 2.03 0 0 1-.587.747 2.495 2.495 0 0 1-.877.395c-.353.09-.784.135-1.295.135h-3.057zm-7.89 4.133c0 .965.26 1.724.778 2.278s1.169.832 1.953.832c.798 0 1.453-.28 1.97-.84.515-.559.773-1.354.773-2.384 0-.651-.11-1.22-.33-1.705a2.537 2.537 0 0 0-.967-1.129 2.634 2.634 0 0 0-1.43-.401c-.749 0-1.395.258-1.936.772-.54.515-.811 1.374-.811 2.577zm-1.098-.019c0-1.328.359-2.37 1.073-3.12.715-.753 1.637-1.128 2.767-1.128.74 0 1.407.177 2.002.53a3.46 3.46 0 0 1 1.358 1.477c.311.631.469 1.348.469 2.148 0 .812-.165 1.54-.493 2.179a3.352 3.352 0 0 1-1.394 1.456 3.993 3.993 0 0 1-1.948.494c-.755 0-1.429-.183-2.024-.547a3.517 3.517 0 0 1-1.35-1.49 4.515 4.515 0 0 1-.46-1.999zm-6.748 1.64l1.008-.257c.076.388.282.776.614 1.164.334.388.774.582 1.324.582.56 0 1.003-.143 1.327-.433.322-.287.485-.636.485-1.045 0-.44-.17-.793-.511-1.052-.34-.261-.804-.392-1.39-.392h-.506v-.929c.486 0 .857-.028 1.114-.083.257-.057.485-.2.683-.432a1.213 1.213 0 0 0-.109-1.696c-.268-.257-.634-.385-1.093-.385-.402 0-.746.1-1.03.303a1.577 1.577 0 0 0-.589.807c-.108.333-.163.583-.163.747l-1.018-.234c.25-1.702 1.186-2.553 2.808-2.553.782 0 1.399.218 1.856.653.457.435.687.942.687 1.524 0 .747-.353 1.325-1.058 1.735.409.114.75.345 1.026.693.274.348.412.764.412 1.25 0 .69-.266 1.266-.8 1.73-.534.466-1.24.699-2.121.699-1.515 0-2.5-.799-2.956-2.396zm-2.746-1.03l-.835-2.222a27.743 27.743 0 0 1-.575-1.673c-.11.522-.258 1.035-.442 1.543l-.88 2.352zm-5.037 3.292l3.074-8.015h1.166l3.263 8.015H28.52l-.928-2.43h-3.375l-.87 2.43zm-2.705-4.21c.686 0 1.171-.126 1.46-.382.288-.256.431-.614.431-1.078 0-.334-.084-.622-.253-.86a1.197 1.197 0 0 0-.67-.475c-.18-.046-.51-.07-.989-.07h-2.05v2.865zm-3.135 4.21v-8.015h3.026c.532 0 .939.026 1.22.076.394.065.725.19.991.373.267.185.482.442.644.772.162.33.242.695.242 1.092 0 .68-.216 1.256-.65 1.726-.433.472-1.219.707-2.353.707h-2.056v3.269zm-6.238-.907h2.121c.572 0 1.002-.116 1.29-.349.285-.233.428-.583.428-1.047 0-.332-.082-.608-.246-.83a1.174 1.174 0 0 0-.683-.443c-.293-.072-.791-.108-1.495-.108h-1.415zM9.08 30.569h5.205v.94h-4.141v2.474h1.914c.707 0 1.269.067 1.686.203.418.134.752.388 1.004.763.252.373.377.808.377 1.304 0 .405-.09.784-.27 1.134-.182.353-.45.64-.809.863-.356.221-.966.334-1.826.334h-3.14zM1.101 34.7c0 .965.26 1.724.779 2.278.518.554 1.17.832 1.953.832.799 0 1.454-.28 1.97-.84.515-.559.773-1.354.773-2.384 0-.651-.11-1.22-.33-1.705a2.533 2.533 0 0 0-.967-1.129 2.633 2.633 0 0 0-1.43-.401c-.75 0-1.395.258-1.936.772-.54.515-.812 1.374-.812 2.577zm-1.096-.019c0-1.328.358-2.37 1.072-3.12.715-.753 1.637-1.128 2.767-1.128.741 0 1.407.177 2.002.53a3.462 3.462 0 0 1 1.358 1.477c.312.631.468 1.348.468 2.148 0 .812-.163 1.54-.492 2.179a3.354 3.354 0 0 1-1.393 1.456 3.997 3.997 0 0 1-1.948.494c-.756 0-1.43-.183-2.025-.547a3.513 3.513 0 0 1-1.35-1.49 4.506 4.506 0 0 1-.46-1.999zm79.224-8.604v-7.075h-2.642v-.94h6.348v.94h-2.643v7.075zm-10.076 0v-8.015h1.063v3.302h4.142v-3.302h1.064v8.015h-1.064v-3.772h-4.142v3.772zm-7.49-8.015h5.788v.94h-4.724v2.463h4.422v.94h-4.422v2.732h4.915v.94h-5.978zm-9.369 8.015v-8.015h1.59l1.896 5.673c.175.529.302.924.382 1.187.091-.291.235-.72.43-1.285l1.928-5.575h1.42v8.015h-1.018v-6.705l-2.34 6.705h-.955l-2.314-6.829v6.829h-1.019zm-6.016-3.292h2.731l-.835-2.222a27.79 27.79 0 0 1-.575-1.673c-.11.523-.258 1.036-.442 1.543l-.88 2.352zm-2.306 3.292l3.074-8.015h1.166l3.263 8.015H50.27l-.928-2.43h-3.375l-.87 2.43zm-3.55 0v-7.075H37.78v-.94h6.347v.94h-2.642v7.075zm-7.937-4.21h2.07c.687 0 1.173-.126 1.461-.381.288-.256.432-.615.432-1.079 0-.334-.084-.621-.254-.86a1.191 1.191 0 0 0-.67-.474c-.179-.047-.51-.07-.989-.07h-2.05v2.865zm-1.063 4.21v-8.015h3.026c.531 0 .938.026 1.22.076.393.066.724.19.99.374.267.184.482.442.644.772.162.33.243.694.243 1.092 0 .679-.217 1.255-.651 1.725-.433.472-1.219.707-2.353.707h-2.056v3.269h-1.063zm-6.04-3.292zm2.732 0l-.836-2.222a27.79 27.79 0 0 1-.575-1.673c-.11.523-.257 1.036-.442 1.543l-.879 2.352zm-5.037 3.292l3.074-8.015h1.166l3.263 8.015h-1.207l-.927-2.43H25.07l-.87 2.43zm-7.157-8.015h6.29v8.015h-1.063v-7.075h-4.164v7.075H15.92zm-7.455 0h5.787v.94H9.528v2.463h4.422v.94H9.528v2.732h4.914v.94H8.465zm-3.058.94H2.608v.41c0 .683-.061 1.618-.184 2.803-.121 1.185-.364 2.158-.722 2.922h3.705zm1.063-.94v7.075h.717v2.81h-.94v-1.87H.94v1.87H0v-2.81h.616c.65-.975.974-2.943.974-5.904v-1.171z"/></g><g><path fill="#a3a3a3" d="M218.198 30.529h.962v6.347l4.268-6.347h1.05v8.015h-.963v-6.33l-4.256 6.33h-1.061zm-4.823 8.015v-7.075h-2.642v-.94h6.347v.94h-2.642v7.075zm-4.041-2.812l1.063.269c-.222.871-.621 1.533-1.197 1.99-.577.457-1.282.687-2.116.687-.862 0-1.564-.176-2.104-.528-.541-.35-.952-.86-1.234-1.526a5.46 5.46 0 0 1-.423-2.147c0-.834.158-1.562.477-2.183a3.283 3.283 0 0 1 1.36-1.416 3.963 3.963 0 0 1 1.941-.483c.802 0 1.476.203 2.02.611.547.41.928.982 1.142 1.72l-1.041.247c-.185-.582-.455-1.007-.808-1.272-.352-.267-.796-.4-1.332-.4-.613 0-1.129.147-1.54.442a2.337 2.337 0 0 0-.87 1.189 4.783 4.783 0 0 0-.252 1.539c0 .681.099 1.276.296 1.783.198.51.506.889.924 1.14.418.252.87.377 1.356.377.594 0 1.093-.171 1.504-.513.41-.343.688-.85.834-1.526zm-8.77-.48l-.837-2.221a28.025 28.025 0 0 1-.574-1.674c-.11.522-.257 1.035-.442 1.543l-.879 2.353zm-5.038 3.292l3.075-8.015h1.166l3.263 8.015h-1.207l-.927-2.43h-3.375l-.87 2.43zm-5.875-8.015h5.004v8.015h-1.064v-7.075h-2.876v4.129c0 .84-.04 1.453-.118 1.843-.078.392-.244.694-.496.912-.252.217-.573.325-.96.325-.234 0-.516-.049-.844-.145l.19-.94c.173.088.323.133.446.133.24 0 .42-.09.54-.27.119-.18.178-.606.178-1.278v-5.65zm-6.831 7.108h2.12c.573 0 1.002-.116 1.29-.349.285-.233.429-.582.429-1.046 0-.333-.082-.608-.247-.831a1.17 1.17 0 0 0-.682-.442c-.293-.073-.792-.108-1.495-.108h-1.415v2.776zm-1.064-7.108h5.205v.94h-4.141v2.474h1.914c.707 0 1.268.067 1.686.203.418.134.752.388 1.004.764.251.372.377.807.377 1.304 0 .404-.09.783-.27 1.133-.182.353-.45.64-.809.863-.356.222-.966.334-1.827.334h-3.14zm-7.98 4.132c0 .965.26 1.724.778 2.278.52.555 1.17.832 1.954.832.798 0 1.453-.28 1.97-.84.515-.559.772-1.354.772-2.383 0-.651-.11-1.22-.33-1.706a2.537 2.537 0 0 0-.966-1.129c-.425-.266-.901-.4-1.43-.4a2.71 2.71 0 0 0-1.936.772c-.541.515-.812 1.373-.812 2.576zm-1.097-.019c0-1.328.359-2.368 1.073-3.12.715-.753 1.636-1.127 2.767-1.127.74 0 1.407.177 2.002.53a3.455 3.455 0 0 1 1.358 1.477c.312.63.468 1.347.468 2.147 0 .812-.164 1.54-.492 2.18a3.35 3.35 0 0 1-1.394 1.455 3.987 3.987 0 0 1-1.948.494c-.755 0-1.429-.183-2.024-.547a3.51 3.51 0 0 1-1.35-1.49 4.504 4.504 0 0 1-.46-1.999zm65.125-18.544h.672c-.055.46-.223.815-.502 1.062-.28.248-.651.37-1.116.37-.466 0-.84-.122-1.118-.367-.277-.246-.445-.6-.5-1.065h.672c.05.252.153.44.304.563.151.125.357.187.612.187.297 0 .52-.06.672-.181.15-.12.254-.31.304-.569zm-3.034 1.925v6.347l4.267-6.347h1.05v8.015h-.962v-6.33l-4.256 6.33h-1.061v-8.015zm-8.92 4.132c0 .965.26 1.725.779 2.279.519.554 1.17.832 1.953.832.799 0 1.453-.28 1.97-.84.515-.56.773-1.355.773-2.384 0-.651-.11-1.22-.33-1.706a2.54 2.54 0 0 0-.967-1.128c-.426-.267-.9-.401-1.429-.401-.75 0-1.396.257-1.937.772-.54.515-.811 1.373-.811 2.576zm-1.097-.018c0-1.328.359-2.37 1.074-3.121.714-.752 1.636-1.127 2.766-1.127.74 0 1.407.177 2.002.53a3.452 3.452 0 0 1 1.358 1.477c.312.63.469 1.347.469 2.148 0 .811-.165 1.54-.493 2.179a3.347 3.347 0 0 1-1.394 1.455 3.987 3.987 0 0 1-1.947.495c-.756 0-1.43-.184-2.025-.547a3.517 3.517 0 0 1-1.35-1.491 4.51 4.51 0 0 1-.46-1.998zm-6.048-4.114h1.064v3.515c.483 0 .824-.095 1.02-.284.198-.188.448-.64.754-1.356.222-.528.405-.899.55-1.115.144-.219.35-.402.616-.55.265-.146.56-.221.88-.221.41 0 .624.004.646.01v.919c-.038 0-.108-.002-.213-.006a11.131 11.131 0 0 0-.214-.005c-.338 0-.59.082-.754.246-.168.164-.358.515-.575 1.05-.268.68-.496 1.108-.682 1.286a2.152 2.152 0 0 1-.667.423c.517.142 1.029.622 1.532 1.435l1.651 2.668h-1.317l-1.345-2.172c-.367-.602-.675-1.016-.921-1.24-.249-.226-.568-.338-.961-.338v3.75h-1.064v-8.015zm-2.397 5.204l1.063.268c-.222.871-.621 1.533-1.198 1.99-.576.458-1.281.688-2.115.688-.862 0-1.564-.176-2.104-.529-.542-.35-.952-.86-1.234-1.526a5.473 5.473 0 0 1-.423-2.147c0-.834.158-1.562.477-2.183a3.283 3.283 0 0 1 1.36-1.416 3.96 3.96 0 0 1 1.94-.483c.803 0 1.477.203 2.021.612.547.408.927.981 1.142 1.72l-1.041.246c-.185-.582-.455-1.007-.808-1.272-.353-.267-.796-.4-1.332-.4-.614 0-1.129.148-1.541.442a2.337 2.337 0 0 0-.87 1.19 4.785 4.785 0 0 0-.252 1.539c0 .68.1 1.275.298 1.783.197.51.505.888.923 1.14.418.252.87.377 1.356.377.594 0 1.093-.172 1.504-.513.41-.344.688-.851.834-1.526zm-11.543-4.264v.41c0 .683-.062 1.618-.185 2.803-.121 1.185-.364 2.159-.721 2.922h3.705v-6.135zm-1.019-.94h4.881v7.075h.717v2.81h-.941v-1.87h-5.306v1.87h-.94v-2.81h.615c.65-.974.974-2.943.974-5.903zm-8.416 4.132c0 .965.26 1.725.779 2.279.518.554 1.17.832 1.953.832.798 0 1.453-.28 1.97-.84.515-.56.772-1.355.772-2.384 0-.651-.11-1.22-.33-1.706a2.536 2.536 0 0 0-.967-1.128c-.425-.267-.9-.401-1.429-.401a2.71 2.71 0 0 0-1.936.772c-.54.515-.812 1.373-.812 2.576zm-1.097-.018c0-1.328.359-2.37 1.073-3.121.715-.752 1.636-1.127 2.767-1.127.74 0 1.407.177 2.002.53a3.46 3.46 0 0 1 1.358 1.477c.312.63.468 1.347.468 2.148 0 .811-.164 1.54-.492 2.179a3.347 3.347 0 0 1-1.394 1.455 3.986 3.986 0 0 1-1.948.495c-.755 0-1.428-.184-2.024-.547a3.513 3.513 0 0 1-1.35-1.491 4.504 4.504 0 0 1-.46-1.998zm-5.085-4.114h5.182v.94h-4.12v7.075h-1.062zm-7.957 4.132c0 .965.259 1.725.777 2.279.52.554 1.17.832 1.954.832.798 0 1.453-.28 1.97-.84.515-.56.773-1.355.773-2.384 0-.651-.11-1.22-.33-1.706a2.54 2.54 0 0 0-.967-1.128c-.426-.267-.901-.401-1.43-.401a2.71 2.71 0 0 0-1.936.772c-.541.515-.811 1.373-.811 2.576zm-1.097-.018c0-1.328.358-2.37 1.072-3.121.715-.752 1.637-1.127 2.767-1.127.74 0 1.407.177 2.002.53a3.456 3.456 0 0 1 1.358 1.477c.312.63.468 1.347.468 2.148 0 .811-.164 1.54-.492 2.179a3.347 3.347 0 0 1-1.394 1.455 3.987 3.987 0 0 1-1.948.495c-.755 0-1.429-.184-2.024-.547a3.51 3.51 0 0 1-1.35-1.491 4.504 4.504 0 0 1-.46-1.998zm-6.43-4.114h5.004v8.015h-1.063v-7.075h-2.877v4.13c0 .839-.04 1.452-.117 1.842-.079.392-.245.694-.497.913-.252.216-.573.325-.96.325-.234 0-.516-.049-.844-.146l.19-.94c.173.09.323.134.446.134.24 0 .42-.09.54-.27.119-.181.179-.607.179-1.279v-5.65zm-8.402 4.132c0 .965.259 1.725.778 2.279.518.554 1.17.832 1.953.832.798 0 1.453-.28 1.97-.84.515-.56.772-1.355.772-2.384 0-.651-.11-1.22-.33-1.706a2.539 2.539 0 0 0-.966-1.128 2.636 2.636 0 0 0-1.43-.401 2.71 2.71 0 0 0-1.936.772c-.54.515-.811 1.373-.811 2.576zm-1.098-.018c0-1.328.359-2.37 1.074-3.121.714-.752 1.635-1.127 2.766-1.127.74 0 1.406.177 2.002.53a3.455 3.455 0 0 1 1.358 1.477c.312.63.469 1.347.469 2.148 0 .811-.165 1.54-.493 2.179a3.346 3.346 0 0 1-1.394 1.455 3.987 3.987 0 0 1-1.948.495c-.755 0-1.428-.184-2.024-.547a3.514 3.514 0 0 1-1.35-1.491 4.512 4.512 0 0 1-.46-1.998zm-3.756 2.96c.344 0 .585-.012.724-.038.244-.043.448-.116.613-.218.164-.103.298-.253.405-.448.106-.196.158-.422.158-.678 0-.3-.076-.56-.231-.781a1.206 1.206 0 0 0-.638-.467c-.27-.09-.662-.134-1.172-.134h-1.854v2.765zm-1.995-3.704h1.733c.47 0 .808-.033 1.011-.094.27-.08.474-.214.61-.401.136-.186.205-.42.205-.702 0-.266-.063-.502-.192-.703a.966.966 0 0 0-.546-.418c-.237-.074-.644-.112-1.22-.112h-1.601v2.43zm-1.064 4.645v-8.015h3.007c.613 0 1.103.08 1.475.242.369.163.658.413.867.751.21.335.315.688.315 1.057 0 .342-.093.665-.278.967-.185.302-.464.547-.84.733.486.142.86.385 1.118.728.261.341.392.746.392 1.212 0 .378-.08.726-.239 1.049a2.032 2.032 0 0 1-.587.746 2.482 2.482 0 0 1-.877.396c-.353.09-.784.134-1.295.134h-3.058z"/></g></g></g></svg>