<svg xmlns="http://www.w3.org/2000/svg" width="104" height="140" viewBox="0 0 104 140"><defs><clipPath id="gd76a"><path d="M0 140V0h103.548v140z"/></clipPath><clipPath id="gd76b"><path d="M0 140V0h103.547v140z"/></clipPath></defs><g><g><g><g><g/><g clip-path="url(#gd76a)"><g><g/><g clip-path="url(#gd76b)"><path d="M19.24 67.601c-.877 0-1.755-.263-2.37-.702-.79-.614-1.316-1.492-1.491-1.843-.614-1.053-.878-2.194 0-3.949.526-1.14 1.667-1.93 2.72-2.808 1.229-1.755 2.106-3.422-.35-4.388l.614-.614c1.755.965 2.281 2.457.35 5.353-1.316 1.316-1.491 2.808-.263 4.388.527.79 1.229 1.492 2.106 2.194.878.702 2.107 1.228 3.598 1.755 2.37 1.843 4.037 3.686 4.827 5.616a18.301 18.301 0 0 1 2.545 7.635c.088.79.088 2.106-.351 3.861-1.053 3.774-2.808 6.758-4.563 9.566-1.755 1.843-3.774 3.247-6.055 4.3v-1.93c3.334-.527 5.177-2.721 6.055-5.53 2.018-7.722 1.14-13.69-1.053-19.569-.44-.965-1.317-1.755-2.107-2.633-.877-.35-1.842-.526-2.896-.614-.438 0-.877-.088-1.316-.088zm1.316 37.735l-10.004 4.476c-2.37.614-3.51 1.667-4.212 2.72l.439 1.755-.527.264-.965-1.843c-.176-.615-.088-1.229.702-1.668 1.14-1.316 1.93-2.632 1.58-3.685.79-1.317 1.755-1.755 2.896-1.668h3.334c1.755-.087 3.335-.35 4.651-.877l.966-.351-4.915-4.564c-.438-.438-1.492-1.667-1.843-2.106-.35-.439-1.667-1.667-2.106-2.194C2.742 86.557.987 79.624.197 73.13c-.439-6.319-.35-12.023 2.457-19.657 2.106-3.072 3.774-6.231 7.986-8.337 3.423-.966 6.67.263 9.916 2.545v3.685c-.614-.877-1.316-1.667-2.018-2.457-3.598-3.334-6.933-4.563-9.829-.965-2.018 1.316-3.598 5.44-3.685 6.845-.702 9.302-2.019 24.045 6.143 34.927.702-1.404 2.281-2.106 3.949-1.668 1.316.351 2.018 1.756 4.65 3.247.264 0 .527.088.79.176v1.492c-.614 0-1.404-.088-2.281-.264-1.668-.175-2.457.79-3.247 1.931v.176l1.58.877c.614.176 1.228.351 2.018.439.702 0 1.316 0 1.93-.088v1.93c-.438.176-.877.352-1.228.527-1.58.264-2.457.264-3.16.088l-.79-.263.089.263c.702 1.229 1.667 2.282 2.808 3.335l2.281 1.755zm0-1.667l.176.175.439-.175c.877-.527 1.755-1.053 2.632-1.667 3.862-4.037 6.319-7.196 8.074-10.005v4.915c-2.984 3.159-6.143 5.616-9.565 7.722l-.351.176.087.087c3.247 1.141 6.494 2.019 9.829 2.194v1.229l-1.755-.176c-3.16-.526-5.704-1.228-7.81-2.193l-1.405-.702-.35.087v-1.667zm11.321 3.422c.439.088.878.088 1.404.088h1.58l.965-.263.702-.088 1.93-2.457.966-1.316.527-.702 4.563-6.67.44-.526-.44-.527-2.282-2.808-2.281-3.423V73.042l3.423-9.302-3.423-11.496-.878-3.072c-.176-.702-.439-1.404-.614-2.018v-9.653c.526 1.316.965 2.633 1.492 3.949a274.17 274.17 0 0 1 3.773 10.18l.79 2.37 1.054 2.895.876-2.282 1.492-3.773.966-2.282V58.65c-.527 1.755-1.052 3.51-1.492 5.353l-.263-.877.263 1.14 1.053 4.564c.175.526.263 1.14.439 1.755v11.233l-.878-2.194a149.774 149.774 0 0 1-1.58-4.739c-.087-.351-.264-.79-.35-1.14l-.88-3.16-.7 1.93-1.053 3.16-2.896 6.932a92.395 92.395 0 0 0 3.949 7.109c.263.438.614.877.877 1.228l.88 1.317.173-.44v5.617l-.79 1.141c-.35.527-.7 1.053-1.14 1.492a57.436 57.436 0 0 1-4.563 5.44l-.264.264-.614.614h.088l.79-.263v1.229c-.176.087-.351.087-.527.175l-.965.263-.966.264-.526.526c-.439.439-.79.878-1.141 1.317-.263.35-.527.614-.702.965.263 0 .527.088.702.088v2.106c-1.229-.088-2.545-.088-3.773-.088-.088.088-.176.088-.176.088-.79.088-1.58.175-2.282.526-1.755.966-3.598 1.58-5.792 2.194-2.369.088-3.86-.263-2.193-2.457 2.544-1.492 6.142-2.194 10.267-2.282h.088l1.492-.175 1.842-2.282-3.422-.263zm14.567-15.27l2.458-5.791v7.46l-.527.965.527.614v4.475l-1.052-.965-1.23-1.404-.176.263v-5.616zm-14.567.176c1.316-2.106 2.194-3.949 2.984-5.792l.965-2.193.79-1.58-.79-2.018-1.667-4.564c-.79-1.843-1.58-3.598-2.282-5.265V62.16c1.229 2.633 2.72 5.88 3.949 8.688 1.053 2.37 2.018 4.476 2.545 5.792l.088.088.087.263 1.405-3.949V88.4l-1.054-1.667-.438.878-1.141 1.93c-.439.79-.965 1.58-1.492 2.37a38.16 38.16 0 0 1-3.949 5.002v-4.915zm6.494-14.918v.088l.088.087v-.087zM20.556 47.68zm0 0c0 .008.005.087.088.087 3.16 2.809 6.319 6.319 9.478 11.145.526.878 1.053 2.019 1.755 3.247v8.425c-1.843-3.774-3.686-7.108-5.44-10.443-1.756-3.247-3.862-6.23-5.88-8.776zm0 43.79c2.194.35 3.247-.527 2.809-3.247l.965.088c.439 3.071-.527 4.738-3.773 4.65v-1.491zm6.231-67.309l-2.37.088c-.526.175-1.052.702-1.491 1.316l-.965-.702c-.702-1.053.79-1.843 2.018-2.633h7.898v1.58c-.439-.088-.79-.263-1.053-.527l-2.72-.175v.614c1.228.439 2.369 1.229 3.773 2.545.263.351.527.614.878.966l-.176-.264a3.28 3.28 0 0 1 1.316-1.14l1.668-.264-.351-.263c-.176-.351-.176-.79-.088-1.229-1.229 0-2.282.088-3.247-.263v-1.58h3.949v8.6l-.088.088.088.176v.088l2.633 6.318v9.653c-.966-2.984-1.668-5.967-2.633-9.127v-6.844 6.844c-.702-2.632-1.667-5.265-2.984-8.16-.35-.44-.702-.878-.965-1.23-1.404-1.93-2.808-3.773-5.09-4.475zm9.039-1.93h4.125v2.632l-1.492.263-1.58.264 1.58-.176 1.492-.263v3.422c-.176-.087-.351-.263-.527-.35l-.965.526-1.141.526c.439.351.79.702 1.14.878v1.755c-.614-.439-1.14-.878-1.754-1.316l-.878.438zm0 92.67c.878-.088 1.755-.088 2.633-.088v1.667c-.176 0-.351 0-.527.088-1.93.176-2.457 1.93.439 2.282h.088v1.228c-.966-.087-1.755-.175-2.633-.35zm-1.843 4.212c-2.018-1.14-3.071-2.282-.877-3.598.877-.351 1.842-.527 2.72-.614v4.826c-.614-.175-1.229-.35-1.843-.614zm1.843 10.53H32.93c-.263 0-.351-.087-.351-.263 0-.087.176-.175.527-.175.438-.088.702-.176.79-.263.087-.176.175-.351.175-.615v-4.65c0-.352 0-.527-.088-.703 0-.088-.088-.175-.263-.263-.088-.088-.351-.176-.702-.176-.088 0-.439-.087-.527-.087-.175-.088-.35-.088-.35-.176 0-.175.526-.263.79-.263h2.895v7.635zm0 .703c.878.087 1.755.175 2.633.526v1.93c-1.755.176-2.633 1.054-2.37 2.458.264.965 1.229 1.93 2.37 2.282v1.58c-.878-.352-1.755-.703-2.633-1.23zm-2.72 5.616c-.527-.526-.966-1.053-1.229-1.667-.263-.615-.351-1.229 0-2.019 0 0 0-.087.088-.175l2.632-1.668c.44-.087.878-.087 1.229-.087v7.547c-.965-.527-1.93-1.141-2.72-1.93zm5.353-22.729c-.878-.087-1.755-.087-2.633-.175v-2.106c.878.087 1.755.087 2.633.175zm0 16.323l-2.633.088v-7.635h2.194c.263 0 .35.088.35.263 0 .176-.175.263-.526.263-.263 0-.526.088-.614.176-.175.088-.263.175-.263.351-.088.088-.088.351-.088.614v5.266c0 .087.088.087.176.087h1.404zm1.492-96.883c-.527-.263-.966-.614-1.492-.965v-1.755c.614.526.965.79 1.492 1.053zm-1.492 80.56v-2.106c.526.088.965.176 1.492.263 1.58.176 3.071.44 4.563.878.614.088 1.14.263 1.756.439l.174.088 2.458.965.877.35v3.16c-.263.088-.526.176-.877.263-.527.176-1.052.44-1.58.615l-.878.263v-1.58l2.458-.965.263-.088-.263-.088-2.018-.526c-.176-.088-.264-.088-.44-.176-.615-.175-1.23-.438-1.93-.526-1.492-.439-3.072-.79-4.563-.965-.527-.088-.966-.176-1.492-.264zm0 1.58c.175 0 .35.088.526.088.263 0 .615 0 .966.087v1.58c-.615-.088-1.054-.088-1.492-.088zm1.492.175c.79.088 1.58.351 2.368.702l2.195 1.141v2.282c-1.316.439-2.633.702-3.95.965h-.613v-1.404c.614-.088 1.228-.175 1.93-.263l1.559-.545c-.879-.778-2.27-1.21-3.49-1.298zm-1.492 5.09v-1.228c.438-.088.877-.088 1.492-.176v1.404zm1.492 2.457h-.088c-.263 0-.439-.087-.439-.263 0-.175.176-.263.439-.263h.088v.526zm0-.526h4.563v.614c-.174 0-.265.088-.351.088-.174.088-.265.175-.265.35 0 .089-.086.352-.086.615v4.3c0 .351.086.527.086.702 0 .088.177.264.351.351.09 0 .177.088.265.088v1.14c-.616 1.23-.965 2.721-4.477 2.458h-.086V131.4c1.58.263 2.895.175 3.423-1.141l.087-.176c-.087-.175-.263-.263-.528-.35a2.078 2.078 0 0 0-.789-.176h-2.193v-.527h.526c.176 0 .263 0 .351-.087.088 0 .174-.176.174-.351v-5.178c0-.263-.086-.351-.086-.527-.088-.087-.176-.175-.351-.175-.088-.088-.263-.176-.614-.176v-.526zm0 7.547h-1.492v-.527h1.492v.527zm-1.492 1.316l.526.264c.263.087.615.175.966.263v1.316c-.615 0-1.054 0-1.492.088zm0 8.25v-1.58s.087 0 .087.087c.527.264.878.527 1.405.702 1.491.527 2.982.264 4.389-.526.086-.088.086-.088.174-.088v1.58a8.985 8.985 0 0 1-2.633.702c-.614 0-1.14-.088-1.667-.176-.088-.087-.177-.087-.263-.087-.527-.176-.966-.44-1.492-.615zm6.055-1.405c.614-.263 1.228-.79 1.93-1.492.79-.79 1.668-1.93 2.458-3.071v2.896a18.927 18.927 0 0 1-2.458 2.281c-.174.088-.264.176-.438.352-.438.175-.966.438-1.492.614v-1.58zm-4.563-30.363v-1.229c1.402-.614 2.982-1.404 4.563-2.457l1.93-1.229c.264-.175.527-.35.79-.614l1.668-1.404v2.545c-.79.526-1.58 1.14-2.458 1.58-.615.35-1.23.702-1.93 1.053-1.316.702-2.896 1.228-4.563 1.755zm3.598-97.848l.965-3.335 1.93-1.93a24.4 24.4 0 0 0 .966-.703l-.616-1.053c-.086-.263-.262-.614-.174-.965l1.053-.878L48.902.03v17.464c-.966.175-1.668-.351-1.668-1.58l-.79-.79c-.702-.702-1.404-1.492-1.93-2.37-.616-.965-1.053-2.105-.965-3.246zm1.14 0c0 1.316.616 2.457 1.755 3.598.44.35.878.702 1.406 1.14.35-3.07.525-6.142.174-9.126a6.91 6.91 0 0 0-1.58.965c-1.23.966-1.755 2.194-1.755 3.423zm-3.422 15.357c1.142.263 2.194.965 3.247 1.843v8.512c-.439-.79-.876-1.492-1.316-2.281-1.23.35-2.282.175-3.247-.264v-1.667c.614.351 1.14.439 1.842.614l.526-.526c-.613-.966-1.317-1.93-2.368-2.72v-3.423zm3.247 1.843c.35.263.7.527 1.054.79.351.35.702.702.876.965.79 1.14.527 1.93 0 2.72-.174.176-.35.44-.525.615.174.263.351.526.525.79.878 1.316 1.668 2.632 2.458 3.949.35.438.614.965.877 1.491v7.635l-.877-1.93-1.58-3.423c-.263-.526-.614-1.14-.878-1.667-.615-1.141-1.23-2.282-1.93-3.423v-8.512zm0-6.67c-.439-1.491-1.93-1.93-4.037-1.58-.35-.175-.175-.526.176-.964l3.86.175h.527l1.404.965.878.615c2.194 1.404 1.316 2.545 0 3.51-.263.263-.614.351-.878.526a7.483 7.483 0 0 1-1.93.79c-.79.264-1.581.44-2.282.527l-2.281.263v-2.633h2.72c.878 0 1.578-.175 1.843-1.053.089-.175.089-.35.175-.614-.086-.175-.086-.351-.175-.526zm1.93 98.638l.264.176c.526.526 1.142 1.228 1.58 1.93.175.264.438.615.614.878v2.896c-.44-1.141-1.052-2.106-1.755-2.984l-.703-.79zm-1.49.263l-.351.176h-.09v-2.282l.878.44 1.054-.44v1.58l-.175.088.174.175v2.106zm.525-1.667h-.088l-.877.263zm-.965 11.847h.526c.088 0 .88 0 1.404.088.264 0 .44.088.44.175l.175 1.756c0 .35-.265.175-.527.175h-.088a.484.484 0 0 1-.438-.263c-.087-.176-.264-.527-.351-.79-.087-.088-.527 0-1.052-.088h-.09zm0-7.108h.44c.26 0 1.052.088 1.052.263 0 .088-.791.263-1.142.263-.175 0-.261 0-.35.088zm5.265-25.976v3.686l-.352.263.177.088.175-.088v2.282l-.352.35c-.174.089-.35.264-.525.352v-2.545l.525-.439-.525-.439V95.07zm0 3.95l.351-.352-.088-.088-.263.176v-3.686l1.843 2.106.088-.087 1.14-1.317v5.09l-1.14-.965-.088-.088-1.843 1.492v-2.282zm3.072-3.248l.702-.702v3.774l-.351-.264-.088.088.439.351v2.282l-.702-.439v-5.09zm-3.072-4.739l-.877 1.492V86.03l.877-2.018-.877-2.194V70.585c.263.965.614 1.93.877 2.984.263.702.527 1.316.702 2.018l1.229 3.247.088.176 1.053-2.896v14.304l-.264-.527-.79-1.667-.087.175-.79 1.58-1.14 2.018zm3.072-15.883l.263-.527c.088-.439.264-.79.439-1.229v17.113l-.702-1.053V76.114zM48.9 58.65V48.558l.878-2.106.176-.351-.176-.439v-7.635l1.93 3.862.089.175.438-.877c.264-.44.44-.79.615-1.229.263-.35.437-.79.702-1.14v16.146l-.702-1.667-1.053-2.808-.088.175-.527 1.317c-.438 1.316-.965 2.632-1.404 3.949-.263.877-.614 1.755-.877 2.72zm4.652-19.833c.263-.614.614-1.228.965-1.843v7.196l-.79 1.843.79 1.93v10.268l-.616-2.37-.35-.877V38.817zM49.779.468c.263.175.439.439.613.79L51.71.73c.439-.088.79-.088 1.14-.088h.703v2.194c-.175-.087-.265-.175-.351-.175-.176-.088-.265-.176-.351-.176-.351-.263-.79-.263-1.141-.175-.176.088-.439.175-.614.35l-.878.966.439 3.95c.35 0 .7-.176 1.053-.352l1.14-.79v4.388c-.263-.175-.79-.175-1.14-.175h-.176c-.263.087-.438.263-.527.702.264.263-.175 2.632.089 2.632.175-.263.35-.877.614-1.316.175-.351.439-.702.613-.878l.528-.35v.965c-.264.614-.264 1.404-.176 2.194.088.087.176.263.176.35v2.633c-.351-.175-.702-.438-1.141-.702-.088-.087-.176-.263-.352-.35-.789-.527-1.228 0-1.579.701a1.693 1.693 0 0 1-.877.264V.029zm3.072 5.967l.702-.614V7.84l-.351.615a.685.685 0 0 0 .35.35c.264.264.615.44.966.527.35.088.614.176.878.088.437.176.965.439 1.402.614.616.176 1.23.44 1.669.702.614.351.878.702.878 1.053l-.878 2.633c-.351.878-.965 1.58-1.669 2.282-.086.175-.174.263-.26.35-.791.44-1.406.703-2.02.79h-.965c-.265-.087-.44-.175-.702-.263v-2.632l.702.79c.263.175.526.263.965.35.263 0 .527 0 .878-.087l1.402-1.229c.528-.614.791-1.228.704-1.404 0-.79-.262-1.229-.704-1.492-.086 0-.174-.088-.26-.175-.528-.264-1.229-.44-2.02-.264-.264 0-.527.088-.702.176-.176.088-.263.088-.263.175a1.626 1.626 0 0 0-.702.615v-.966c.437-.263.35-.526 0-.614V6.435zm-3.51 119.26c-.088-.438-.264-.79-.44-1.14v-2.896c.352.526.615 1.053.878 1.492.613 1.228 1.141 2.457 1.492 3.685l.439 1.054.439-1.054c.263-.702.438-1.316.702-2.018.263-.439.437-.877.702-1.316v4.037c-.175.438-.351.877-.44 1.316l-.262.439-.264.614c.088.175.176.35.264.439v3.422c-.088-.088-.176-.263-.264-.439l-.877-1.58-.352.615c-.526 1.053-1.052 1.93-1.579 2.633-.263.35-.614.702-.877 1.053v-2.896c.35-.439.614-.965.877-1.404a9.875 9.875 0 0 0 1.053-1.843v-.088l-.44-.965c-.174-.614-.35-1.141-.613-1.843-.088-.439-.263-.878-.439-1.316zm3.51 4.652c.263.438.437.79.702 1.14v3.247c-.265-.263-.44-.614-.702-.965zm-1.141-15.533l1.14-.439v2.633l-1.14-.439-1.492.527c-.088 0-.263.087-.439.175v-3.16l1.843.79zm1.14-.439l.703-.175v2.983h-.175l-.527-.175v-2.633zm1.668-19.482l.614-.614-.614-1.053v-7.46l2.28 5.266.528 1.14.79-.964c.088-.264.263-.44.351-.615l2.37-3.861a53.458 53.458 0 0 0 2.018-3.861v-.088l-2.019-5.09-.79-1.843-1.579-4.388-.175-.614-.79 2.984c-.176.702-.44 1.316-.704 2.018V53.56l1.318 3.247.351-1.14 1.404-3.95c.351-.877.614-1.755.965-2.632v12.9l-.614 2.018.614 1.58 2.194 6.143v17.639l-1.755 2.632-.439.615-2.107 2.632 2.107 2.984v4.037l-2.369-2.896-.527-.79-.877-1.316-.265.263-1.14 1.229-1.14.965v-4.827zm6.318-45.808c.702-2.019 1.405-3.95 2.194-5.88V54.35l-2.194 7.635zm0 49.143l2.194 3.16v3.334c-.79-.79-1.492-1.58-2.194-2.457zm-6.318 1.492l-.527.439.527.526v2.457l-.965-.877v-2.282l.35.263.088-.087-.438-.351v-3.774l.965-1.14v4.826zm0 .965l1.756 1.404.524.44 1.669 1.14 2.37 1.316v1.668c-.878-.351-1.58-.702-2.37-1.053-.527-.264-1.053-.615-1.669-.878a591.76 591.76 0 0 0-1.58-1.053l-.7-.527zm6.318 4.3c.702.351 1.491.702 2.194 1.053v1.404a60.948 60.948 0 0 1-2.194-.79zm-6.318-22.904l-.702 1.93.702 1.756v7.459l-.965-1.755V74.358c.35-1.053.7-2.193.965-3.247.263-.79.44-1.58.614-2.281l.966-4.3v-.088l.086-.614-1.666-5.617V47.944l1.229 2.808 1.051 2.808v22.29a170.65 170.65 0 0 1-1.315 3.774l-.965 2.457zm0-81.35c.965.088 1.756.176 2.28.439v3.247c-.437.702-1.226 1.492-2.28 2.457V.731zm0 6.143c-.264.263-.616.527-.878.79l-.087.175V5.821c.175-.351.438-.79.614-1.14.263-.79-.088-1.405-.614-1.844V.643c.35 0 .614.088.965.088v6.143zm-.351 118.822c-.265.614-.439 1.316-.614 1.843v-4.037c.263-.615.614-1.229.965-1.843.176-.263.44-.614.614-.878a19.201 19.201 0 0 1 1.666-1.93v2.194l-.437.526c-.702.878-1.316 1.93-1.843 3.072a3.715 3.715 0 0 0-.351 1.053zm2.631-6.845v-.088l.442-.263-.442-.176-.614-.175c-.525-.176-1.052-.44-1.666-.615-.351-.087-.702-.263-.965-.35V114.2l.965-.44v1.931l-.264.088.264.088 1.756.702.524.176v1.58-1.58l1.318.526.351-.263v.35l-.263-.087h-.088l.351.088v-.351l1.14-.527c.44-.263.79-.439 1.23-.614a9.336 9.336 0 0 1 2.193-.79v1.58c-.79.175-1.58.439-2.194.79a1.91 1.91 0 0 0-.702.438l-1.228-.35 1.053.35c.263.088.614.176.877.264.264.087.615.175.878.263l1.316.263v1.492h-.089l-2.105-.527-1.842-.526-.44-.088-.087.088-1.669 1.93zm6.232-3.774c.527-.088 1.053-.175 1.668-.175.087 0 .263-.088.439-.088v1.667c-.615 0-1.405.088-2.107.176v-1.58zm-8.512-1.316l2.28-.878.528-.175c.351-.088.79-.176 1.141-.351l2.37-.527v2.106c-.79.176-1.58.44-2.37.615-.527.175-1.053.35-1.669.526 0 0-.086 0-.086.088l-2.194.526v-1.93zm0 19.306c.791 1.141 1.58 2.106 2.28 2.984.616.614 1.23 1.14 1.669 1.404.262.175.527.263.702.351.527.263 1.053.526 1.667.614.702.264 1.405.264 2.194.088v1.316c-.438.088-.965.176-1.404.176-.264 0-.526-.088-.79-.088-.79-.175-1.58-.439-2.369-.79-.263-.175-.613-.263-.965-.438-.176-.176-.44-.352-.704-.527-.7-.614-1.489-1.229-2.28-2.194zm8.512 5.441a7.81 7.81 0 0 0 2.019-.878c0-.087.087-.087.087-.087v1.667c-.614.176-1.23.439-1.93.614h-.176v-1.316zm-9.477-3.774v-3.246c.263.526.614 1.053.965 1.58v2.895a6.626 6.626 0 0 1-.965-1.229zm3.245-12.724v2.457c-.26-.263-.437-1.14-.26-1.492 0 0 0-.175.086-.35.088-.264.174-.44.174-.615zm-.524-99.252c-1.316-.878-2.195-2.018 0-3.423l.524-.35 1.669-1.23h.088l2.281-.087 2.019-.088c.086 0 .086.088.175.088v.79c-.877-.088-1.58-.088-2.194.088-1.053.263-1.755.877-1.93 2.106.175 1.228.877 1.58 1.93 1.58v2.281c-.79-.088-1.58-.263-2.369-.526-.527-.264-1.053-.527-1.669-.79-.174-.176-.35-.264-.524-.439zm6.756-4.3zm0 0zm-2.194 3.773h2.194v2.633l-1.668-.263c-.175-.088-.35-.088-.526-.088v-2.282zm-6.318 14.743a86.27 86.27 0 0 1 2.28-3.773v6.23a76.187 76.187 0 0 0-2.28 4.652zm2.28-3.773c.351-.439.616-.965.966-1.404-.35-.439-.701-.79-.966-1.317-.086-.35-.174-.79 0-1.316.265-.526.616-1.053 1.318-1.667l.351-.351v9.214c-.527.965-1.053 2.018-1.669 3.072V33.2zm1.669 88.458v1.228c-.088.088-.263.176-.439.264-.264.175-.614 1.404-.879 1.404-.086.088-.174.088-.35-.088v-2.457c.09-.088.176-.176.264-.263.177-.088.439-.088.877-.088zm2.37 8.249h-.966c-.439 0-.79-.088-.79-.176 0-.087 1.141-.35 1.141-.438.088 0 .263-.088.439-.176h.175zm-.44-7.46c-.614 0-1.14.088-1.403.176-.175.088-.265.176-.527.263v-1.228H63.03v8.249h-2.194v-.79c.176-.088.264-.175.264-.263.087-.088.087-.176.087-.351v-5.441c0-.263 0-.351-.087-.439 0 0-.176-.088-.264-.088-.175-.087-.263-.087-.438-.087zm.44 8.776c.525.351 1.316.439 2.193.264v1.228a5.149 5.149 0 0 1-2.194-.263zm-2.194-1.492l1.316.264c.175.614.439.965.877 1.228v1.229c-1.316-.614-1.491-1.843-2.193-2.72zm-.176-102.586c.79-.615 1.58-1.229 2.37-1.668.525-.263.965-.526 1.49-.614l.703.088v4.037c-.703.614-1.228 1.404-1.668 2.106l.528.526c.437-.087.79-.175 1.14-.263l2.107-1.229c.35-.263.79-.614 1.316-1.053l-1.316-.614v-3.247l-2.107-.35V22.23h4.738v8.6l-.7-.438a28.59 28.59 0 0 1-1.931 1.492c-.703.438-1.405.79-2.107 1.053-.703.175-1.404.263-2.194.087-.087 0-.263 0-.35-.087-.703 1.14-1.317 2.281-2.019 3.422zm9.3-4.915h4.039v1.58c-.965.351-2.107.263-3.247.263.088.527.088.966-.087 1.317l-.263.175 1.666.263a3.28 3.28 0 0 1 1.317 1.141l.614-.614v2.282c-.263.438-.614.877-.965 1.316-1.317 2.896-2.282 5.616-3.073 8.249l-2.631 9.039v-9.478a239.35 239.35 0 0 1 2.63-6.318c0-.088 0-.176.091-.263l.174-.264-.264-.088zm-4.737 2.72l2.107.264v3.247l-.88-.439c-.525.264-.876.615-1.227.966zm0 88.634c-.79.088-1.492.264-2.194.351v-2.106c.702-.175 1.405-.263 2.194-.35zm1.931 9.04c-.089.087-.089.175-.089.438v5.792c0 .088.089.175.265.263h.263c.176.088.263.088.35.176.087.087 1.23.35 1.23.438 0 .264-1.053.176-1.843.176H63.03v-8.25h2.106v.878c-.087 0-.175.088-.175.088zm.176-18.254v3.686l-1.141-.264c-.351-.087-.615-.263-.966-.35v-1.405l1.318.527.524.088-1.052-.966c-.263-.35-.528-.614-.79-.965v-3.335l.966 1.58zm0 0l2.193 2.72.438.088.965.176c.528.087 1.056.087 1.581.087.527 0 .965 0 1.492-.087v1.14l-3.247.264 1.667 2.018 1.492.176h.088c4.124.175 7.722.79 10.267 2.369 1.668 2.106.176 2.545-2.194 2.457-2.193-.702-4.037-1.316-5.88-2.281-.702-.264-1.491-.351-2.193-.44-.088 0-.088 0-.176-.087-1.316 0-2.544 0-3.862.088-.875 0-1.754.088-2.631.175v-2.106l2.63-.263c.265 0 .529 0 .792-.088-.263-.263-.527-.614-.791-.965-.35-.439-.7-.878-1.052-1.317l-.174-.087-1.405-.351zm-1.756 28.345h-.35v-1.228c.438-.088.965-.176 1.579-.352l.527-.263a7.046 7.046 0 0 1 2.63-.526v7.547c-.874.526-1.753.877-2.63 1.316v-1.667c1.142-.351 2.107-1.317 2.37-2.282.26-1.404-.704-2.282-2.37-2.457-.527-.088-1.054-.088-1.756-.088zm1.756-12.549H63.03v-1.492c.79.088 1.58.176 2.107.176h.176c2.896-.264 2.368-2.019.438-2.282-.175-.088-.351-.088-.614-.088v-1.667c.877 0 1.756 0 2.631.088v4.914-4.914c.965.087 1.844.263 2.81.614 2.105 1.316 1.14 2.545-.88 3.598-.612.263-1.226.526-1.93.702-.789.175-1.666.263-2.631.351zm-2.107-6.582v-2.106c.702-.175 1.404-.263 2.107-.35v2.105c-.703.088-1.405.176-2.107.351zm0-24.22v-17.64l2.019 5.53.087-.352v10.97l-.438-.965zm2.107-42.123c-.176.614-.44 1.228-.615 1.93L63.03 54.35V43.205c.702-1.843 1.404-3.686 2.106-5.44v9.477zM63.03 18.458v-.79c.262.351.351.614 0 .79zm2.107 104.078v-.877h2.895c.44 0 .791 0 .878.088.176.087.351.35.527.877.262.527.087 2.457-.527 1.93-.263 0-.614-1.228-.965-1.403l-.177-.088c-.26-.176-.524-.263-.7-.439a5.716 5.716 0 0 0-1.492-.175c-.176 0-.353.087-.44.087zm0-45.633l.526-1.228c.525-1.317 1.316-2.984 2.105-4.739 1.318-2.984 2.81-6.23 4.038-8.863v8.6c-.79 1.755-1.58 3.51-2.37 5.44l-1.668 4.388v-9.565 9.565l-.789 2.106.789 1.756.965 2.106 3.073 5.967v4.827c-1.404-1.492-2.808-3.16-4.038-5.09-.524-.79-1.052-1.58-1.58-2.457l-1.051-1.843V77.43l.086-.176-.086.088zm2.63 60.99v-7.546c.442 0 .792 0 1.23.087l2.546 1.668c.175.263.263.439.263.702.088.439.088.79 0 1.14-.176.79-.79 1.405-1.316 2.02a14.025 14.025 0 0 1-2.722 1.93zM83.04 93.139c-3.246.088-4.302-1.58-3.774-4.65l.966-.089c-.438 2.72.614 3.598 2.808 3.247v1.492zm0-1.492v1.492c.614 0 1.404-.088 2.192-.263 1.757-.176 2.545.877 3.25 1.93l.086.176-1.58.878c-.7.263-1.403.438-2.107.438-.614 0-1.315 0-1.841-.087v2.018c.35.176.79.351 1.227.527 1.493.175 2.37.175 3.073.087l.788-.35-.086.35c-.615 1.141-1.668 2.282-2.81 3.247l-2.192 1.755v1.668l10.004 4.475c2.282.615 3.422 1.668 4.123 2.809l-.437 1.755.527.263 1.052-1.843c.177-.702.088-1.316-.79-1.755-1.14-1.316-1.842-2.633-1.58-3.686-.702-1.316-1.668-1.755-2.807-1.667-1.141.088-2.282.088-3.334 0-1.756-.088-3.424-.351-4.74-.878l-.877-.35 4.913-4.564c.44-.439 1.493-1.58 1.844-2.106.35-.439 1.667-1.668 2.106-2.194 7.81-9.039 9.564-15.884 10.267-22.466.527-6.318.351-12.022-2.37-19.57-2.104-3.158-3.86-6.23-7.985-8.424-3.422-.965-6.758.263-9.916 2.545v3.686c.614-.878 1.316-1.667 1.93-2.457 3.686-3.335 7.02-4.564 9.916-.966 1.93 1.405 3.6 5.529 3.686 6.933.703 9.214 2.019 23.957-6.142 34.84-.791-1.405-2.28-2.107-4.037-1.668-1.23.439-2.019 1.755-4.564 3.247-.263 0-.527.088-.79.175zm-2.896-22.992c-.79.79-1.755 1.492-2.106 2.545-2.196 5.792-3.16 11.76-1.053 19.482.788 2.808 2.719 5.002 6.055 5.529v2.018c-2.28-1.14-4.302-2.545-6.055-4.388-1.843-2.72-3.598-5.792-4.564-9.565-.439-1.755-.439-2.984-.35-3.861.261-2.458 1.052-5.178 2.456-7.635.791-1.93 2.545-3.774 4.916-5.529 1.49-.526 2.631-1.053 3.597-1.755.876-.702 1.58-1.492 2.018-2.282 1.23-1.58.965-2.983-.263-4.387-1.93-2.896-1.317-4.388.35-5.266l.615.615c-2.37.877-1.58 2.544-.35 4.3 1.052.877 2.28 1.667 2.718 2.808.88 1.755.615 2.896.09 3.949-.176.35-.702 1.228-1.58 1.843-.615.526-1.492.702-2.282.702-.44.087-.878.087-1.316.087-1.141.176-2.106.264-2.896.79zm2.896 36.858l-.351-.088-1.404.702c-2.105.965-4.651 1.755-7.898 2.194l-1.58.175v-1.14c3.335-.176 6.494-1.053 9.74-2.282l.089-.088-.351-.175a42.713 42.713 0 0 1-9.478-7.547v-4.827c1.755 2.72 4.124 5.792 7.987 9.741.875.614 1.754 1.14 2.631 1.667l.44.176.175-.176v1.668zm-11.233-43.44c.614-1.14 1.053-2.193 1.49-2.983 3.337-4.739 6.497-8.25 9.655-11.145 0 0 0-.088.088-.088v3.686c-2.106 2.545-4.125 5.529-5.881 8.775-1.754 3.335-3.597 6.67-5.352 10.356zm0-39.84h7.897c1.23.79 2.721 1.667 2.02 2.72l-.965.702c-.44-.702-.965-1.14-1.493-1.404l-2.368-.088c-2.37.702-3.687 2.545-5.091 4.476v-2.282l.088-.088c1.316-1.228 2.457-2.106 3.51-2.545v-.614l-2.545.176a2.966 2.966 0 0 1-1.053.526z"/></g></g></g></g></g></g></g></svg>