<svg xmlns="http://www.w3.org/2000/svg" width="29" height="30" viewBox="0 0 29 30"><g><g><path fill="#b20202" d="M20.578 15.173l-1.863 1.867-4.113 4.114-1.821-1.82-.047-.042-2.086-2.091-.13-.125-1.732-1.737-.156-.151 1.862-1.857 2.252-2.258 1.867-1.867 1.93 1.847 2.217 2.216h.005l1.862 1.862zm2.3 2.21l3.936 3.938 2.258-2.258-3.938-3.932 3.6-3.6-2.258-2.257-3.677 3.678-1.82-1.821.078-.078 3.599-3.6-2.257-2.257-3.6 3.6-.078.077-1.732-1.732 3.678-3.677-2.258-2.257-3.6 3.599L10.856.853 8.598 3.11l3.954 3.953-1.91 1.909L6.69 5.019 4.437 7.277l3.949 3.947-1.857 1.858-.12-.115L2.58 9.133.323 11.391 4.27 15.34.828 18.782l2.257 2.258 3.444-3.443 1.737 1.737-3.443 3.443 2.257 2.257 3.443-3.442 1.82 1.82L8.9 26.855l2.253 2.252 3.443-3.443 3.953 3.953 2.257-2.257-3.952-3.953 1.856-1.857 3.938 3.937 2.258-2.257-3.938-3.938-.01-.01 1.909-1.91z"/></g></g></svg>