<svg xmlns="http://www.w3.org/2000/svg" width="47" height="75" viewBox="0 0 47 75"><g><g><g><path fill="#b10302" d="M6.769 74.537L7.86 71.55l-8.03-.976c.103-.313.184-.602.288-.882C4.59 57.739 9.068 45.788 13.524 33.828c.2-.54.439-.725 1.025-.722 5.845.032 11.69.034 17.535.029.482-.001.763.082.958.606 4.506 12.095 9.036 24.182 13.56 36.27.05.135.086.274.162.518l-8.017.98 1.216 3.028z"/></g><g><path fill="#b10302" d="M23.286 11.616L29.663.265 41.71 3.829l-1.133 3.31c-.928 2.718-1.844 5.439-2.8 8.147-.116.329-.392.654-.68.86-.821.59-1.93.948-2.467 1.718-.518.743-.474 1.885-.664 2.854-.516 2.629-1.041 5.257-1.522 7.893-.096.522-.303.649-.805.647-5.556-.02-11.112-.02-16.668-.004-.534.002-.74-.14-.841-.691a615.84 615.84 0 0 0-1.986-10.165c-.063-.31-.287-.722-.545-.832-2.136-.911-3.106-2.605-3.72-4.772-.846-2.986-1.973-5.892-2.996-8.882.28-.101.52-.2.769-.273 3.538-1.047 7.08-2.08 10.61-3.15.518-.156.748-.063 1.01.412 1.842 3.34 3.718 6.662 5.584 9.989.116.207.24.409.429.726z"/></g></g></g></svg>