<svg xmlns="http://www.w3.org/2000/svg" width="67" height="74" viewBox="0 0 67 74"><g><g><g><path fill="#39a2a7" d="M8.524 73.933c-.917-.148-1.833-.302-2.752-.443-2.967-.453-5.217-3.316-5.534-5.735a7.376 7.376 0 0 1 .522-3.832c.851-2.054 2.225-3.72 3.867-5.185.13-.115.283-.2.438-.309-.254-1.385-.06-2.692.834-3.822.834-1.054 1.714-2.07 2.567-3.108 1.462-1.778 2.918-3.56 4.38-5.34 1.634-1.99 3.272-3.977 4.907-5.968 2.03-2.47 4.054-4.946 6.084-7.417 2.118-2.577 4.24-5.15 6.357-7.726.616-.749 1.227-1.503 1.872-2.292C34.522 28.363 38.53 32.4 44.15 34.87l-2.983 2.463c-1.832 1.514-3.66 3.032-5.494 4.544-2.063 1.703-4.13 3.401-6.195 5.104-2.073 1.71-4.14 3.426-6.214 5.137-1.65 1.361-3.307 2.714-4.957 4.076-1.64 1.355-3.268 2.726-4.917 4.07-.669.545-1.273 1.183-2.114 1.5-.899.337-1.807.448-2.738.208-.343-.089-.583-.11-.85.22-.493.606-1.1 1.12-1.592 1.725-.595.733-1.075 1.538-1.264 2.493-.116.59.052 1.078.371 1.542.485.705 1.206.958 2.012 1.125 3.226.668 6.053-.288 8.701-2.049 1.944-1.293 3.674-2.852 5.427-4.382 2.418-2.11 4.846-4.206 7.686-5.75 1.832-.999 3.764-1.725 5.832-2.033 1.833-.273 3.67-.223 5.506.035 5.148.726 9.57 3.051 13.628 6.17 2.558 1.966 4.834 4.23 6.913 6.692.466.551.91 1.123 1.331 1.708.571.792.664 1.651.182 2.516-.464.834-1.206 1.243-2.16 1.193a2.154 2.154 0 0 1-1.657-.874c-2.698-3.545-5.848-6.619-9.568-9.083-2.597-1.72-5.383-3-8.46-3.61-3.694-.734-7.125-.146-10.307 1.891-1.713 1.097-3.284 2.37-4.818 3.698-2.247 1.946-4.436 3.964-6.915 5.625-2.13 1.428-4.414 2.494-6.96 2.932-.489.084-.986.12-1.479.177z"/></g><g><path fill="#39a2a7" d="M40.65 3.785c2.532-1.558 5.137-2.679 8.032-3.064 4.092-.546 7.706.564 10.93 3.082 2.155 1.684 3.926 3.696 5.166 6.144 1.087 2.143 1.563 4.423 1.47 6.833-.134 3.381-1.33 6.402-3.055 9.252-.052.086-.25.146-.362.124a27.874 27.874 0 0 1-6.589-2.109 27.392 27.392 0 0 1-8.546-6.205 27.215 27.215 0 0 1-6.153-10.63c-.346-1.12-.595-2.27-.893-3.427z"/></g><g><path fill="#39a2a7" d="M36.853 7.64c3.512 11.414 10.952 18.872 22.38 22.432-.36.2-.71.418-1.08.595-2.358 1.13-4.845 1.48-7.432 1.21-3.354-.349-6.31-1.653-8.927-3.747-3.002-2.402-5.128-5.418-6.195-9.127-1.104-3.832-.892-7.556 1.087-11.096.048-.085.104-.167.167-.267z"/></g></g></g></svg>