<svg xmlns="http://www.w3.org/2000/svg" width="29" height="18" viewBox="0 0 29 18"><g><g><path fill="#fff" d="M26.995 3.498c0 .29-.108.63-.312.988-.705 1.23-1.74 2.317-2.659 3.215a410.052 410.052 0 0 1-5.973 5.692l-2.097 1.972c-1.188 1.115-1.354 1.117-2.535.018a2086.228 2086.228 0 0 0-3.653-3.395l-.406-.377a1332.524 1332.524 0 0 1-5.443-5.07c-.495-.465-1.114-1.094-1.507-1.834-.168-.322-.254-.633-.254-.918 0-.346.124-.642.369-.88.416-.407 1.15-.604 2.12-.579.109.07.249.145.411.234l.073.04c.525.285 1.243.673 1.82 1.207 2 1.843 4.083 3.875 6.757 6.59.47.476.792.67 1.115.665.32-.002.653-.205 1.08-.658a105.566 105.566 0 0 1 6.435-6.328c.769-.684 1.87-1.226 2.945-1.445.613-.13 1.115-.063 1.413.18.197.16.301.398.301.683zM.823 3.307v.078c.055 2.056 1.28 3.457 2.594 4.664 1.748 1.601 3.552 3.295 5.144 4.785a708.88 708.88 0 0 0 4.352 4.063c.178.164.279.296.317.421h2.936c.007-.234.156-.464.515-.804 2.28-2.157 4.576-4.371 6.797-6.512l.192-.186.177-.17c.766-.74 1.533-1.478 2.3-2.216 1.29-1.24 2.008-2.455 2.261-3.82a3.81 3.81 0 0 0 .065-.686c0-.766-.261-1.412-.735-1.822-.465-.403-1.104-.557-1.848-.448-1.26.194-2.63.82-3.577 1.639-1.923 1.666-3.741 3.51-5.499 5.289-.38.385-.787.795-1.183 1.193-.678.68-1.165.68-1.86-.007l-.076-.075C11.681 6.701 9.6 4.641 7.425 2.744A10.43 10.43 0 0 0 4.08.816c-.803-.279-1.586-.19-2.206.252-.667.475-1.05 1.291-1.05 2.239z"/><path fill="none" stroke="#000" stroke-miterlimit="20" d="M26.995 3.498c0 .29-.108.63-.312.988-.705 1.23-1.74 2.317-2.659 3.215a410.052 410.052 0 0 1-5.973 5.692l-2.097 1.972c-1.188 1.115-1.354 1.117-2.535.018a2086.228 2086.228 0 0 0-3.653-3.395l-.406-.377a1332.524 1332.524 0 0 1-5.443-5.07c-.495-.465-1.114-1.094-1.507-1.834-.168-.322-.254-.633-.254-.918 0-.346.124-.642.369-.88.416-.407 1.15-.604 2.12-.579.109.07.249.145.411.234l.073.04c.525.285 1.243.673 1.82 1.207 2 1.843 4.083 3.875 6.757 6.59.47.476.792.67 1.115.665.32-.002.653-.205 1.08-.658a105.566 105.566 0 0 1 6.435-6.328c.769-.684 1.87-1.226 2.945-1.445.613-.13 1.115-.063 1.413.18.197.16.301.398.301.683zM.823 3.307v.078c.055 2.056 1.28 3.457 2.594 4.664 1.748 1.601 3.552 3.295 5.144 4.785a708.88 708.88 0 0 0 4.352 4.063c.178.164.279.296.317.421h2.936c.007-.234.156-.464.515-.804 2.28-2.157 4.576-4.371 6.797-6.512l.192-.186.177-.17c.766-.74 1.533-1.478 2.3-2.216 1.29-1.24 2.008-2.455 2.261-3.82a3.81 3.81 0 0 0 .065-.686c0-.766-.261-1.412-.735-1.822-.465-.403-1.104-.557-1.848-.448-1.26.194-2.63.82-3.577 1.639-1.923 1.666-3.741 3.51-5.499 5.289-.38.385-.787.795-1.183 1.193-.678.68-1.165.68-1.86-.007l-.076-.075C11.681 6.701 9.6 4.641 7.425 2.744A10.43 10.43 0 0 0 4.08.816c-.803-.279-1.586-.19-2.206.252-.667.475-1.05 1.291-1.05 2.239z"/></g></g></svg>