<svg xmlns="http://www.w3.org/2000/svg" width="182" height="111" viewBox="0 0 182 111"><g><g><path fill="#072344" d="M37.274 32.573c-.18.26-.33.54-.55.77-1.42 1.46-2.84 2.93-4.31 4.34-.19.18-.84.18-1.02 0-1.48-1.4-2.88-2.89-4.35-4.3-.66-.64-.65-1.13-.02-1.76 1.41-1.39 2.77-2.82 4.18-4.2.21-.2.79-.37.91-.25 1.66 1.59 3.27 3.22 4.88 4.86.12.12.17.32.28.54zm-16.15-1.71c1.53 1.63 1.5 1.86.02 3.45-4.01 4.31-7.99 8.64-12.02 12.94-.73.78-1.55 1.55-2.49 2.05-1.84.96-3.31-.09-3.23-3.04.4-.64 1.02-2.07 2.01-3.14 2.9-3.15 5.91-6.19 8.96-9.2 1.11-1.1 1.29-1.78.01-2.99a142.16 142.16 0 0 1-8.6-8.76c-.96-1.08-1.68-2.59-1.97-4.01-.42-2.05.74-2.93 2.52-1.91 1.62.93 3.05 2.27 4.37 3.62 3.53 3.61 6.96 7.32 10.42 10.99zm41.6-12.69c.76-2.94-1.29-5.37-4.19-4.47-1.81.57-3.62 1.68-4.99 3.01-4.45 4.31-8.72 8.81-13.03 13.28-.57.59-.87.75-1.49.07a108.26 108.26 0 0 0-4.27-4.41c-1.782-1.751-3.71-1.92-5.55-.15-1.475 1.418-2.98 2.82-4.32 4.36-.86.99-1.36.9-2.2.01-4.09-4.33-8.23-8.6-12.35-12.89-1.45-1.51-3.09-2.69-5.19-3.08-2.52-.46-4.39.93-4.02 3.43.26 1.71 1.1 3.56 2.23 4.87 2.76 3.19 5.82 6.12 8.81 9.1.93.93.92 1.59-.01 2.53-2.78 2.82-5.58 5.65-8.19 8.64-1.13 1.3-2.05 2.93-2.62 4.56-.85 2.44.9 4.49 3.49 4.43 2.72-.07 4.59-1.62 6.34-3.53 3.97-4.34 8.04-8.6 12.03-12.93.6-.65.92-.58 1.49.03 1.32 1.39 2.69 2.75 4.12 4.02 1.21 1.08 1.33 1.86.05 3.07-2.03 1.94-3.93 4.04-5.71 6.2-1.29 1.57-1.15 2.8.03 3.92 1.15 1.09 2.67 1.06 4.11-.25.85-.77 1.54-1.71 2.28-2.59.86-1.03 1.65-2.85 2.57-2.91 1.09-.07 2.29 1.35 3.44 2.14 1.21.83 2.35 1.82 3.66 2.44.68.33 2.01.35 2.44-.08.52-.54.71-1.8.47-2.57-.31-.96-1.11-1.84-1.88-2.57-1.76-1.67-3.62-3.25-5.48-4.82-.71-.6-.73-1.06-.06-1.7 1.43-1.38 2.89-2.74 4.18-4.24.7-.82.96-.56 1.55.05 1.77 1.86 3.54 3.7 5.32 5.54 2.07 2.15 4.15 4.3 6.22 6.45-.01-.07-.01-.15-.02-.22-.08-.87.04-1.66.31-2.35-1.49-1.53-2.96-3.06-4.43-4.59-1.94-2.02-3.89-4.05-5.84-6.07-.96-1-.84-1.97.01-2.86 4.5-4.72 9-9.45 13.59-14.09 1.02-1.03 2.51-2.11 3.92-.98 1.44 1.15.55 2.82-.2 4-.91 1.43-2.17 2.65-3.37 3.89-2.31 2.38-4.62 4.79-7.07 7.03-1.25 1.15-.96 1.76.12 2.77 1.76 1.64 3.49 3.31 5.2 5 .84.83 2.826 2.816 3.656 3.656.25-.06.5-.09.76-.12.37-.04.74-.07 1.11-.09-.77-.83-2.706-2.806-3.516-3.616-1.65-1.69-3.34-3.35-5.02-5.01-.89-.88-.83-1.49.04-2.35 2.6-2.56 5.14-5.17 7.66-7.8 1.49-1.55 3.22-2.9 3.81-5.16z"/></g><g><path fill="#e6bc88" d="M88.86 35.981c-3.015 3.016-8.006 2.915-8.006 2.915s-.101-4.99 2.915-8.006c3.015-3.016 8.006-2.915 8.006-2.915s.1 4.991-2.915 8.006z"/></g><g><path fill="#e6bc88" d="M67.976 35.981c3.016 3.016 8.006 2.915 8.006 2.915s.1-4.99-2.914-8.006c-3.016-3.016-8.006-2.915-8.006-2.915s-.102 4.991 2.914 8.006z"/></g><g><path fill="#e6bc88" d="M67.976 73.044c3.016-3.016 8.006-2.915 8.006-2.915s.1 4.991-2.914 8.006c-3.016 3.016-8.006 2.915-8.006 2.915s-.102-4.99 2.914-8.006z"/></g><g><path fill="#e6bc88" d="M88.86 73.044c-3.015-3.016-8.006-2.915-8.006-2.915s-.101 4.991 2.915 8.006c3.015 3.016 8.006 2.915 8.006 2.915s.1-4.99-2.915-8.006z"/></g><g><path fill="#b20202" d="M82.104 23.007c0 4.265-3.6 7.722-3.6 7.722s-3.6-3.457-3.6-7.722c0-4.264 3.6-7.72 3.6-7.72s3.6 3.456 3.6 7.72z"/></g><g><path fill="#072344" d="M72.214 92.594l6.204-6.205 6.204 6.205z"/></g><g><path fill="#072344" d="M141.295 33.436l5.882-5.882 5.882 5.882-5.882 5.881z"/></g><g><path fill="#e6bc88" d="M141.333 70.733l5.882-5.881 5.882 5.881-5.882 5.882z"/></g><g><path fill="#072344" d="M113.662 70.129l11.244-11.244 11.244 11.244-11.244 11.244z"/></g><g><path fill="#072344" d="M136.15 92.593l-.01.01-.01-.01h-22.44l-.01.01-.02-.01.02-.01 11.23-11.23 11.23 11.23z"/></g><g><path fill="#072344" d="M158.742 70.129l11.244-11.244 11.244 11.244-11.244 11.244z"/></g><g><path fill="#072344" d="M181.23 92.593h-22.49l11.25-11.24z"/></g><g><path fill="#072344" d="M158.62 92.593h-22.47l-.01.01-.01-.01.01-.01 11.23-11.23z"/></g><g><path fill="#072344" d="M113.69 92.593l-.01.01-.02-.01H91.2l8.22-8.22 2.75-2.75.27-.27 11.24 11.23z"/></g><g><path fill="#3aa2a6" d="M22.462 70.129l11.244-11.244L44.95 70.129 33.706 81.373z"/></g><g><path fill="#072344" d="M44.95 92.593l-.01.01-.01-.01H22.49l-.01.01-.02-.01.02-.01 11.23-11.23 11.23 11.23z"/></g><g><path fill="#072344" d="M67.42 92.593H44.95l-.01.01-.01-.01.01-.01 8.18-8.18 3.05-3.05.11.11z"/></g><g><path fill="#072344" d="M22.49 92.593l-.01.01-.02-.01H0l11.24-11.24 11.24 11.23z"/></g><g><path fill="#b20202" d="M158.088 33.791l-3.394 3.403-7.498 7.5-3.32-3.319-.084-.076-3.801-3.81-.238-.228-3.156-3.167-.285-.275 3.394-3.384 4.105-4.115 3.403-3.403 3.518 3.366 4.038 4.038h.01l3.394 3.394zm4.19 4.03l7.177 7.176 4.115-4.115-7.177-7.167 6.56-6.56-4.114-4.115-6.702 6.703-3.32-3.318 6.704-6.703-4.114-4.114-6.561 6.56-.142.142-3.157-3.157 6.702-6.702-4.114-4.114-6.56 6.56-7.205-7.205-4.115 4.114 7.205 7.205-3.48 3.479-7.204-7.204-4.105 4.114 7.196 7.195-3.385 3.385-.218-.209-6.978-6.987-4.114 4.115 7.196 7.195-6.276 6.276 4.114 4.115 6.276-6.276 3.167 3.166-6.277 6.276 4.115 4.114 6.276-6.275 3.318 3.318-6.276 6.275 4.105 4.105 6.276-6.275 7.205 7.204 4.114-4.114-7.204-7.205 3.384-3.384 7.177 7.176 4.114-4.114-7.177-7.177-.018-.019 3.479-3.479z"/></g><g><path fill="#b20202" d="M.01 97.44v-.779h181.227v.78z"/></g><g><path fill="#072344" d="M.01 111.047v-.78h181.227v.78z"/></g><g><path d="M22.46 92.593h.03l-.01.01z"/></g><g><path d="M44.93 92.593h.02l-.01.01z"/></g><g><path d="M113.66 92.593h.03l-.01.01z"/></g><g><path d="M136.15 92.593l-.01.01-.01-.01z"/></g><g><path fill="#072344" d="M0 102.047v-1.984h181.237v1.984z"/></g><g><g><path fill="#072344" d="M7.959 105.732v-5.67h2.267v5.67z"/></g><g><path fill="#072344" d="M.01 107.645v-2.315h10.216v2.315z"/></g></g><g><g><path fill="#072344" d="M21.866 105.732v-5.67h2.268v5.67z"/></g><g><path fill="#072344" d="M13.917 107.645v-2.315h10.217v2.315z"/></g></g><g><g><path fill="#072344" d="M35.774 105.732v-5.67h2.268v5.67z"/></g><g><path fill="#072344" d="M27.825 107.645v-2.315h10.217v2.315z"/></g></g><g><g><path fill="#072344" d="M49.682 105.732v-5.67h2.267v5.67z"/></g><g><path fill="#072344" d="M41.733 107.645v-2.315h10.216v2.315z"/></g></g><g><g><path fill="#072344" d="M63.59 105.732v-5.67h2.267v5.67z"/></g><g><path fill="#072344" d="M55.64 107.645v-2.315h10.217v2.315z"/></g></g><g><g><path fill="#072344" d="M77.497 105.732v-5.67h2.268v5.67z"/></g><g><path fill="#072344" d="M69.548 107.645v-2.315h10.217v2.315z"/></g></g><g><g><path fill="#072344" d="M91.405 105.732v-5.67h2.267v5.67z"/></g><g><path fill="#072344" d="M83.456 107.645v-2.315h10.216v2.315z"/></g></g><g><g><path fill="#072344" d="M105.312 105.732v-5.67h2.268v5.67z"/></g><g><path fill="#072344" d="M97.364 107.645v-2.315h10.216v2.315z"/></g></g><g><g><path fill="#072344" d="M119.22 105.732v-5.67h2.268v5.67z"/></g><g><path fill="#072344" d="M111.271 107.645v-2.315h10.217v2.315z"/></g></g><g><g><path fill="#072344" d="M133.128 105.732v-5.67h2.268v5.67z"/></g><g><path fill="#072344" d="M125.179 107.645v-2.315h10.217v2.315z"/></g></g><g><g><path fill="#072344" d="M147.035 105.732v-5.67h2.268v5.67z"/></g><g><path fill="#072344" d="M139.087 107.645v-2.315h10.216v2.315z"/></g></g><g><g><path fill="#072344" d="M160.943 105.732v-5.67h2.268v5.67z"/></g><g><path fill="#072344" d="M152.994 107.645v-2.315h10.217v2.315z"/></g></g><g><g><path fill="#072344" d="M174.85 105.732v-5.67h2.269v5.67z"/></g><g><path fill="#072344" d="M166.902 107.645v-2.315h10.217v2.315z"/></g></g><g><path fill="#072344" d="M45.689 1.56c-2.734-1.124-5.794.082-7.072 2.832-.428.92-.734 1.895-1.092 2.833-1.407-.65-2.708-1.538-4.358-1.302-.247-1.597-.08-2.864 1.39-3.92A13.49 13.49 0 0 1 36.853.67H27.07c.88.402 1.735.901 2.554 1.517 1.385 1.041 1.35 2.29 1.193 3.77-1.706-.327-3.004.663-4.484 1.293-.132-.462-.24-.873-.367-1.277-.69-2.18-1.843-3.939-4.188-4.63C18.438.356 15.42 2.724 15.854 6c.156 1.181 1.368 2.122 2.677 2.08 1.183-.04 1.9-.828 1.912-2.18.007-.803-.071-1.606-.11-2.409-.027-.548.19-.718.736-.546 1.48.467 2.234 1.578 2.56 2.982.544 2.345.128 4.612-.737 6.863h-.867c-2.51.011-3.816 1.542-3.427 4.021.198 1.262.996 1.93 2.264 1.87 1.519-.073 2.418-1.02 3.154-2.227.692-1.135.713-2.399.774-3.658.13-2.694 3.148-4.698 5.509-4.493.862.075 1.137.507.78 1.29-.332.726-.757 1.411-1.15 2.111-.99 1.763-.966 3.5.157 5.191.517.78 1.082 1.528 1.626 2.29h.345c.703-.933 1.5-1.812 2.089-2.814.863-1.469.798-3.009-.064-4.5a41.465 41.465 0 0 1-1.037-1.882c-.618-1.209-.297-1.74 1.05-1.695 2.438.084 5.213 2.124 5.12 5.111-.057 1.833.574 3.365 1.98 4.564 1.284 1.096 3.206.93 3.884-.343 1.046-1.963-.125-4.412-2.306-4.79-.392-.068-.813.02-1.2-.063-.254-.054-.614-.236-.684-.443-.741-2.175-1.162-4.399-.5-6.669.368-1.256 1.093-2.259 2.428-2.698.626-.206.866-.013.82.622-.058.801-.171 1.604-.15 2.402.035 1.231.693 1.957 1.753 2.08 1.126.131 2.455-.665 2.758-1.65.565-1.84-.52-4.123-2.31-4.858z"/></g><g/><g/><g><path fill="#3aa2a6" d="M74.39 53.417c-.718 2.32-2.933 2.29-5.011 2.08-1.447.418-2.302-.467-2.556-1.568-.328-2.56 1.738-2.749 3.733-2.233l.46.7c1.975-3.903-3.9-6.165-6.065-2.83-.851 1-1.404.935-2.148-.2-2.37-4.558-8.971-3.843-8.426 1.185.114 1.878 2.265 2.718 3.745 1.9.16-.453-.51-2.296-.198-2.577.649-.355 1.73-.799 2.157-.504 8.737 7.997-.7 6.562 2.732 11.233 1.457-3.35 4.444-2.743 7.01-2.918 6.786.261 10.358-7.906 5.019-12.025a71.14 71.14 0 0 1-3.933-.636c3.854 1.68 4.53 5.45 3.48 8.393z"/></g><g><path fill="#3aa2a6" d="M101.77 47.417c-1.065-1.308-2.596-1.876-4.077-1.126-1.214.616-2.294 1.694-3.131 2.796-.77 1.013-1.306 1.391-2.431.572-.807-.587-1.748-.999-2.654-1.438-.943-.457-2.822.561-3.378 1.878-.545 1.29-.532 2.458 1.048 3.07 1.14-1.958 2.179-2.345 3.353-1.303 1.078.955.903 3.01-.617 3.678-1.262.556-2.878.811-4.223.568-3.04-.55-4.452-5.666-2.09-8.403a9.028 9.028 0 0 1 2.107-1.773c-1.202.116-2.404.18-3.607.191-2.921 3.326-2.764 8.322.995 10.83 1.44.962 3.576 1.24 5.385 1.211 1.38-.022 2.724-.125 3.83.347.958.408 1.738 1.244 2.204 2.953.816-1.446.989-2.558.565-3.464a2.867 2.867 0 0 0-.741-.959c-.916-.794-.94-1.463-.476-2.462.477-1.026.717-2.16 1.175-3.198.295-.67.663-1.477 1.237-1.81.674-.39 1.74-.643 2.387-.369.509.217.66 1.316.934 2.037.19.505.319 1.034.474 1.552.664-.248 1.635-.3 1.936-.778.946-1.498.973-3.154-.205-4.6z"/></g><g><path fill="#072344" d="M109.46 36.183c-1.56 5.06-3.2 10.1-4.83 15.14-1.1 3.39-3.49 5.53-6.9 6.18-.941.177-1.824.342-2.681.501.424.906.25 2.018-.565 3.464-.466-1.709-1.246-2.545-2.203-2.953-6.172 1.128-10.707 1.892-18.114 3.206-.04-.21-4.747.402-4.797.192-2.2-.19-4.41-.27-6.6-.59-8.71-1.26-8.35-3.22-9.04-11.09-.01-.07-.01-.15-.02-.22-.08-.87.04-1.66.31-2.35.69-1.82 2.42-2.99 4.44-3.39.25-.06.5-.09.76-.12.37-.04.74-.07 1.11-.09 2.96-.2 6.03.03 8.91.63.556.117 1.112.226 1.669.331 1.313.25 2.624.463 3.933.636 2.413.317 4.822.49 7.228.467a41.475 41.475 0 0 0 3.607-.19 37.015 37.015 0 0 0 6.743-1.274c10.69-3.09 16.48-14.85 12.5-25.32-.32-.82-.82-1.58-1.07-2.42-.54-1.87-.98-3.77-1.45-5.66 1.65 1.25 3.72 2.19 4.88 3.79 4.73 6.55 4.44 13.79 2.18 21.13zm-6.82-28.22c-1.27-.71-2.01-2.67-2.62-4.2A70.648 70.648 0 0 1 98.883.67l-2.037.144c.207 1.388.85 2.914.967 4.306.07.88-1.01 2.211-2.013 2.643-.68-.65-1.57-1.2-1.99-1.99-.81-1.5-1.35-3.15-2-4.74-.47.03-.94.07-1.41.1 3.64 5.88 2.21 10.99-1.41 15.95-.67.92-.26 2.64-.35 3.99 1.24.07 2.57.45 3.7.14 2.4-.67 4.65-1.94 7.06-2.48 1.01-.22 3.11.6 3.31 1.33 2.56 9.33.42 20.52-11.86 22.39-5.86.9-12.07.98-17.93.12-5.06-.74-10.04-1.29-14.96-.98-.67.04-1.34.09-2.01.17-2.13.24-4.25.65-6.36 1.31-.69.21-.234-.77-.924-.51-.07.03-.13.05-.2.08-.86.34 1.524 6.6 1.934 8.61.63 3.02 1.73 5.96 2.12 9.01.32 2.53-.05 5.16-.18 7.75-.13 2.54-.75 5.12-.43 7.6.37 2.93.78 5.86 1.21 8.79.4 2.73.83 5.46 1.26 8.19h2.83c-.25-3.71-.56-7.42-.93-11.13l-.06-.59c-.66-6.36 4.76-15.49 10.27-16.26 8.6-1.2 17.26-2.01 25.88-3.07 3.73-.46 5.58 1.34 6.04 4.77.5 3.64 1.04 7.31 1.09 10.98.03 2.36-.01 4.72-.08 7.08-.07 2.74-.17 5.48-.21 8.22h3.12c-.02-.85-.09-1.71-.12-2.55-.07-2.82.185-5.69.235-8.48.23-12.07 1.565-23.84 6.585-35.23 2.04-4.65 3.21-9.84 3.85-14.9 1.23-9.66-.82-18.18-10.24-23.47z"/></g></g></svg>