<svg xmlns="http://www.w3.org/2000/svg" width="68" height="90" viewBox="0 0 68 90"><g><g><g><path fill="#b5b5b5" d="M8.351 66.891v-.1c0-.575-.134-.77-.477-.77-.342 0-.49.195-.49.77v1.8c0 .594.143.79.484.79.324 0 .483-.202.483-.79v-.246h.808v.196c0 .827-.277 1.535-1.285 1.535-1.06 0-1.314-.714-1.314-1.522V66.89c0-1.067.447-1.565 1.326-1.565.825 0 1.273.498 1.273 1.339v.226z"/></g><g><path fill="#b5b5b5" d="M20.882 66.021c.349 0 .543.29.543.776v1.851c0 .48-.194.734-.543.734-.383 0-.56-.26-.56-.734v-1.864zm-1.384.865v1.655c0 1.15.577 1.535 1.384 1.535.82 0 1.368-.374 1.368-1.535v-1.655c0-1.163-.548-1.56-1.368-1.56z"/></g><g><path fill="#b5b5b5" d="M33.426 67.909h.518c.3 0 .448.253.448.7 0 .512-.148.709-.448.709h-.518zm0-1.851h.435c.365 0 .49.196.49.58 0 .393-.147.62-.5.62h-.425zm-.808 3.91h1.626c.654 0 .973-.562.973-1.352 0-.593-.211-.916-.631-1.098.354-.076.572-.563.572-1 0-.58-.301-1.11-1.05-1.11h-1.49z"/></g><g><path fill="#b5b5b5" d="M47.8 65.407v.695h-1.467v1.062h1.339v.694h-1.339v1.415h1.468v.695h-2.275v-4.561z"/></g><g><path fill="#b5b5b5" d="M59.737 69.968h-.807v-3.866h-1v-.694h2.808v.694h-1.001z"/></g><g><path fill="#b5b5b5" d="M9.035 73.973h.188c.383 0 .613.436.613 1.074 0 .676-.218 1.055-.613 1.055h-.188zm-.808 2.129h-.189c-.394 0-.612-.379-.612-1.055 0-.638.23-1.074.612-1.074h.19zm0-3.323v.518h-.235c-.69 0-1.391.55-1.391 1.75 0 1.232.695 1.731 1.391 1.731h.235v.563h.808v-.563h.235c.696 0 1.391-.499 1.391-1.731 0-1.2-.701-1.75-1.39-1.75h-.236v-.518z"/></g><g><path fill="#b5b5b5" d="M16.5 72.779v.695h-1.468v1.062h1.337v.694h-1.337v1.415h1.467v.695h-2.274v-4.561z"/></g><g><path fill="#b5b5b5" d="M22.202 73.474v3.171h-1.195c.246-.569.382-1.087.382-2.135v-1.036zm-1.61-.695V74.2c0 1.257-.105 1.776-.388 2.446h-.253v1.61h.778v-.916h1.762v.916h.778v-1.61h-.26v-3.867z"/></g><g><path fill="#b5b5b5" d="M29.077 72.779v.695H27.61v1.062h1.338v.694H27.61v1.415h1.467v.695h-2.274v-4.561z"/></g><g><path fill="#b5b5b5" d="M33.454 73.455h.407c.407 0 .606.24.606.67 0 .436-.2.682-.606.682h-.407zm0 2.028h.707c.69 0 1.132-.62 1.132-1.371 0-.733-.43-1.333-1.12-1.333h-1.526v4.561h.807z"/></g><g><path fill="#b5b5b5" d="M39.87 75.476l.39-2.122.323 2.122zm-1.219 1.865h.865l.254-1.189h.913l.202 1.189h.87l-.942-4.562H39.73z"/></g><g><path fill="#b5b5b5" d="M45.962 76.645h1.067V72.78h.807v3.866h.26v1.618h-.755v-.923h-2.186v-4.561h.807z"/></g><g><path fill="#b5b5b5" d="M52.371 72.779v1.706c0 .543-.023 1.232-.098 1.61h.004l1.179-3.316h.872v4.561h-.755v-1.724c0-.696.018-1.176.1-1.586h-.005l-1.18 3.31h-.87V72.78z"/></g><g><path fill="#b5b5b5" d="M58.734 72.779v1.706c0 .543-.023 1.232-.1 1.61h.007l1.178-3.316h.872v4.561h-.753v-1.724c0-.696.016-1.176.098-1.586h-.006l-1.178 3.31h-.871V72.78z"/></g><g><path fill="#b5b5b5" d="M8.26 81.56h.087c.315 0 .49.122.569.198.17.159.254.432.254.707 0 .419-.167.894-.823.894h-.088zm-.395 1.799h-.088c-.656 0-.822-.475-.822-.894 0-.426.14-.905.822-.905h.088zm-.354-2.517v.192l.28.024.074.066v.22h-.096c-.197 0-.556.023-.832.25-.123.098-.377.357-.377.871 0 .373.131.64.35.828.119.103.386.281.85.281h.105v.273l-.074.066-.28.023v.193h1.103v-.193l-.28-.023-.075-.066v-.273h.106c.464 0 .73-.178.85-.28.218-.19.35-.456.35-.829 0-.514-.255-.773-.377-.871-.276-.227-.636-.25-.833-.25H8.26v-.22l.074-.066.28-.024v-.192z"/></g><g><path fill="#b5b5b5" d="M11.83 82.354h-.237l-.057-.301-.053-.038h-.744v.827h.521l.048-.037.036-.259h.206v.776h-.206l-.036-.26-.048-.032h-.521v.91h.867l.062-.037.065-.385h.22v.611h-1.844v-.17l.214-.018.044-.038v-1.85l-.044-.038-.214-.017v-.17h1.72z"/></g><g><path fill="#b5b5b5" d="M12.903 83.94a5.921 5.921 0 0 0 .635-1.925h.526v1.926zm.074-2.112v.17h.29l.043.055c-.1.666-.35 1.328-.687 1.888h-.206v.77h.227l.066-.53.044-.052H14.4l.044.051.065.53h.228v-.77h-.267l-.035-.032v-1.855l.043-.038.215-.018v-.17z"/></g><g><path fill="#b5b5b5" d="M17.016 82.354h-.237l-.056-.301-.053-.038h-.744v.827h.52l.05-.037.034-.259h.206v.776h-.206l-.035-.26-.049-.032h-.52v.91h.867l.061-.037.066-.385h.22v.611h-1.844v-.17l.213-.018.045-.038v-1.85l-.045-.038-.213-.017v-.17h1.72z"/></g><g><path fill="#b5b5b5" d="M18.344 82.025c.048-.005.153-.01.21-.01.298 0 .551.141.551.512 0 .377-.192.555-.556.555-.03 0-.082 0-.205-.014zm-.653-.197v.169l.241.018.04.038v1.85l-.04.037-.22.02v.17h.934v-.17h-.259l-.043-.057v-.638c.144.009.197.009.218.009.75 0 .938-.483.938-.77 0-.54-.487-.676-.999-.676z"/></g><g><path fill="#b5b5b5" d="M20.758 82.218l.333.85h-.662zm-.061-.419l-.81 2.123-.207.038v.17h.687v-.17l-.235-.02-.022-.037.24-.643h.81l.25.643-.018.037-.218.02v.17h.854v-.17l-.21-.038-.833-2.123z"/></g><g><path fill="#b5b5b5" d="M24.673 81.828v.169l-.215.018-.043.038v1.85l.043.037.215.02v.17h-.902v-.17l.228-.02.043-.037v-1.888h-.481a6.035 6.035 0 0 1-.184 1.128c-.088.32-.298 1.024-.736 1.024-.1 0-.245-.033-.245-.24 0-.095.048-.202.158-.25l.267.198c.096-.126.228-.337.355-.84.043-.17.122-.526.157-.982l-.044-.056h-.302v-.17z"/></g><g><path fill="#b5b5b5" d="M25.887 83.002c.07-.01.197-.028.302-.028.27 0 .534.14.534.459 0 .475-.35.503-.621.503-.062 0-.18-.01-.215-.01zm-.63-1.174v.169l.214.018.043.038v1.85l-.043.037-.214.02v.17h.959c.441 0 .638-.137.695-.185a.603.603 0 0 0 .224-.497c0-.559-.551-.666-.893-.666-.11 0-.254.013-.355.023v-.752l.043-.038.228-.018v-.17z"/></g><g><path fill="#b5b5b5" d="M28.52 81.828v.169l-.228.018-.044.038v.775h1.13v-.775l-.044-.038-.227-.018v-.169h.902v.169l-.215.018-.044.038v1.85l.044.037.215.02v.17h-.902v-.17l.227-.02.044-.037v-.888h-1.13v.888l.044.037.228.02v.17h-.902v-.17l.214-.02.044-.037v-1.85l-.044-.038-.214-.018v-.169z"/></g><g><path fill="#b5b5b5" d="M31.687 81.988c.412 0 .726.38.726.995 0 .779-.442.986-.718.986a.647.647 0 0 1-.56-.315c-.114-.183-.167-.431-.167-.68zm.832.126a1.09 1.09 0 0 0-.815-.343c-.731 0-1.164.517-1.164 1.212 0 .39.144.676.328.868a1.1 1.1 0 0 0 .822.334c.671 0 1.153-.479 1.153-1.202 0-.422-.166-.7-.324-.869z"/></g><g><path fill="#b5b5b5" d="M35.068 82.504h-.228l-.065-.452-.04-.037h-.722v1.888l.043.057h.259v.169h-.924v-.17l.21-.018.04-.038v-1.85l-.04-.038-.24-.017v-.17h1.707z"/></g><g><path fill="#b5b5b5" d="M36.059 82.974c0-.596.27-.986.718-.986.411 0 .727.38.727.995 0 .779-.442.986-.718.986a.645.645 0 0 1-.56-.315c-.115-.183-.167-.431-.167-.68zm1.55-.86a1.09 1.09 0 0 0-.814-.343c-.732 0-1.165.517-1.165 1.212 0 .39.144.676.328.868.158.165.42.334.824.334.67 0 1.15-.479 1.15-1.202 0-.422-.165-.7-.322-.869z"/></g><g><path fill="#b5b5b5" d="M42.037 84.02c-.27.104-.578.165-.867.165-.355 0-.775-.093-1.117-.488-.135-.155-.402-.531-.402-1.165 0-.577.223-.981.476-1.22.207-.197.554-.39 1.087-.39.372 0 .658.093.823.159v.723h-.245l-.065-.427-.057-.084a.987.987 0 0 0-.487-.123c-.827 0-1.072.715-1.072 1.367 0 .441.118.774.276.986.14.189.398.413.853.413.159 0 .28-.028.385-.06l.07-.076.097-.521h.245z"/></g><g><path fill="#b5b5b5" d="M43.772 81.988c.412 0 .728.38.728.995 0 .779-.443.986-.719.986a.645.645 0 0 1-.56-.315c-.114-.183-.167-.431-.167-.68zm.832.126a1.088 1.088 0 0 0-.814-.343c-.731 0-1.165.517-1.165 1.212 0 .39.144.676.329.868.157.165.42.334.823.334.67 0 1.151-.479 1.151-1.202 0-.422-.165-.7-.324-.869z"/></g><g><path fill="#b5b5b5" d="M46.09 83.02c.066-.008.197-.028.298-.028.36 0 .538.202.538.446 0 .437-.328.498-.622.498-.061 0-.178-.01-.213-.01zm-.63-1.192v.169l.214.018.044.038v1.85l-.044.037-.214.02v.17h.959c.442 0 .639-.137.696-.185a.597.597 0 0 0 .223-.493c0-.544-.542-.652-.894-.652a3.96 3.96 0 0 0-.353.024v-.809h.705l.052.038.056.3h.237v-.525z"/></g><g><path fill="#b5b5b5" d="M48.499 82.025c.049-.005.154-.01.21-.01.298 0 .553.141.553.512 0 .377-.193.555-.557.555-.031 0-.083 0-.206-.014zm-.651-.197v.169l.24.018.039.038v1.85l-.04.037-.219.02v.17h.933v-.17h-.259l-.043-.057v-.638c.145.009.197.009.219.009.75 0 .937-.483.937-.77 0-.54-.486-.676-.998-.676z"/></g><g><path fill="#b5b5b5" d="M50.913 82.218l.332.85h-.66zm-.061-.419l-.81 2.123-.207.038v.17h.688v-.17l-.237-.02-.02-.037.24-.643h.808l.25.643-.016.037-.22.02v.17h.855v-.17l-.21-.038-.832-2.123z"/></g><g><path fill="#b5b5b5" d="M53.568 81.828v.169l-.228.018-.044.038v.775h1.13v-.775l-.045-.038-.228-.018v-.169h.903v.169l-.215.018-.043.038v1.85l.043.037.215.02v.17h-.903v-.17l.228-.02.045-.037v-.888h-1.13v.888l.044.037.228.02v.17h-.902v-.17l.214-.02.044-.037v-1.85l-.044-.038-.214-.018v-.169z"/></g><g><path fill="#b5b5b5" d="M56.542 81.828v.169l-.228.018-.044.038V83.5l1.174-1.353v-.094l-.044-.038-.228-.018v-.169h.903v.169l-.215.018-.044.038v1.85l.044.037.215.02v.17h-.903v-.17l.228-.02.044-.037V82.42l-1.165 1.342v.141l.044.037.227.02v.17h-.91v-.17l.214-.02.044-.037v-1.85l-.044-.038-.214-.018v-.169z"/></g><g><path fill="#b5b5b5" d="M60.151 82.888c-.048.005-.153.011-.237.011-.516 0-.559-.25-.559-.428 0-.403.353-.456.609-.456h.187zm.63-1.06h-1.024c-.214 0-.43.004-.614.159a.611.611 0 0 0-.209.47c0 .353.29.559.59.559v.008c-.178.034-.336.18-.475.452l-.22.427-.045.038-.192.02v.168h.596v-.15l.271-.578c.093-.211.245-.31.464-.31.075 0 .193.01.228.01v.802l-.043.038-.228.02v.168h.902v-.169l-.215-.02-.043-.037v-1.85l.043-.038.215-.018z"/></g><g><path fill="#b5b5b5" d="M7.352 86.422c.052-.005.144-.01.241-.01.184 0 .433.02.604.197.14.146.18.339.18.536 0 .516-.316.798-.732.798-.035 0-.15 0-.293-.028zm-.718 2.925h1.103v-.193l-.31-.023-.075-.066v-.925c.052.005.227.019.333.019.591 0 1.13-.25 1.13-1.052 0-.522-.228-.91-1.217-.91h-.999v.192l.284.023.075.066v2.587l-.075.066-.25.023z"/></g><g><path fill="#b5b5b5" d="M10.484 87.205c.411 0 .727.38.727.997 0 .778-.443.986-.718.986a.646.646 0 0 1-.56-.316c-.115-.183-.167-.432-.167-.68zm.832.128a1.084 1.084 0 0 0-.815-.343c-.73 0-1.165.516-1.165 1.212 0 .389.144.675.329.867.158.165.42.334.823.334.67 0 1.152-.479 1.152-1.201 0-.424-.166-.701-.324-.87z"/></g><g><path fill="#b5b5b5" d="M14.233 89.263a2.283 2.283 0 0 1-.713.122c-.435 0-.723-.17-.884-.325a1.19 1.19 0 0 1-.36-.872c0-.31.1-.631.346-.86.154-.146.434-.325.898-.325.118 0 .363.015.713.128v.587h-.227l-.066-.366-.048-.053a.98.98 0 0 0-.398-.08c-.298 0-.789.18-.789.969 0 .866.604.98.872.98a.728.728 0 0 0 .302-.05l.048-.048.088-.4h.218z"/></g><g><path fill="#b5b5b5" d="M16.853 89.263a2.286 2.286 0 0 1-.714.122c-.434 0-.722-.17-.885-.325a1.193 1.193 0 0 1-.359-.872c0-.31.102-.631.347-.86.152-.146.433-.325.897-.325.118 0 .364.015.714.128v.587h-.227l-.067-.366-.048-.053a.98.98 0 0 0-.398-.08c-.298 0-.788.18-.788.969 0 .866.604.98.871.98a.73.73 0 0 0 .303-.05l.047-.048.088-.4h.22z"/></g><g><path fill="#b5b5b5" d="M18.426 87.047v.168l-.228.019-.044.037v1.447l1.174-1.353v-.094l-.043-.037-.229-.02v-.167h.902v.168l-.214.019-.044.037v1.85l.044.037.214.02v.17h-.902v-.17l.228-.02.044-.037v-1.483l-1.165 1.342v.141l.044.037.228.02v.17h-.911v-.17l.214-.02.044-.037v-1.85l-.044-.037-.214-.02v-.167z"/></g><g><path fill="#b5b5b5" d="M21.48 86.008a.25.25 0 0 0-.175-.06c-.145 0-.22.098-.22.238 0 .348.443.447.728.447.283 0 .726-.1.726-.447 0-.14-.074-.239-.22-.239a.248.248 0 0 0-.174.061v.357c-.061.047-.145.09-.332.09-.19 0-.273-.043-.333-.09zm-.886 1.04v.167l.216.019.043.037v1.85l-.043.038-.216.019v.17h.912v-.17l-.228-.02-.045-.037v-.14l1.166-1.343v1.483l-.044.038-.228.019v.17h.902v-.17l-.214-.02-.044-.037v-1.85l.044-.037.214-.019v-.168h-.902v.168l.228.019.044.037v.094l-1.174 1.352v-1.446l.044-.037.227-.019v-.168z"/></g><g><path fill="#b5b5b5" d="M25.57 89.263a2.278 2.278 0 0 1-.714.122c-.433 0-.722-.17-.885-.325a1.195 1.195 0 0 1-.359-.872c0-.31.101-.631.347-.86.153-.146.433-.325.897-.325.12 0 .364.015.714.128v.587h-.227l-.066-.366-.048-.053a.987.987 0 0 0-.399-.08c-.297 0-.788.18-.788.969 0 .866.604.98.871.98a.726.726 0 0 0 .302-.05l.048-.048.088-.4h.219z"/></g><g><path fill="#b5b5b5" d="M27.143 87.047v.168l-.227.019-.044.037v.775h.22c.165 0 .313-.08.397-.286l.153-.367c.106-.253.229-.403.434-.403.198 0 .284.122.284.263a.25.25 0 0 1-.122.225l-.323-.197c-.049.065-.062.102-.092.184l-.133.332c-.083.211-.197.282-.288.314v.01c.205.033.332.235.42.413l.284.587.044.056h.28v.17h-.7v-.151l-.258-.577c-.158-.352-.228-.385-.39-.385h-.21v.887l.044.038.227.018v.17h-.903v-.17l.216-.018.043-.038v-1.85l-.043-.037-.216-.019v-.168z"/></g><g><path fill="#b5b5b5" d="M29.281 88.192c0-.596.271-.987.718-.987.411 0 .727.38.727.997 0 .778-.442.986-.719.986a.647.647 0 0 1-.56-.316c-.113-.183-.166-.432-.166-.68zm.736-1.202c-.731 0-1.165.516-1.165 1.212 0 .389.144.675.329.867a1.1 1.1 0 0 0 .822.334c.67 0 1.153-.479 1.153-1.201 0-.424-.166-.701-.325-.87z"/></g><g><path fill="#b5b5b5" d="M32.623 86.008a.25.25 0 0 0-.175-.06c-.144 0-.22.098-.22.238 0 .348.443.447.728.447s.728-.1.728-.447c0-.14-.076-.239-.22-.239a.247.247 0 0 0-.175.061v.357c-.062.047-.144.09-.333.09-.188 0-.27-.043-.333-.09zm-.885 1.04v.167l.216.019.043.037v1.85l-.043.038-.216.019v.17h.912v-.17l-.228-.02-.044-.037v-.14l1.165-1.343v1.483l-.044.038-.228.019v.17h.902v-.17l-.214-.02-.044-.037v-1.85l.044-.037.214-.019v-.168h-.902v.168l.228.019.044.037v.094l-1.174 1.352v-1.446l.043-.037.229-.019v-.168z"/></g><g><path fill="#b5b5b5" d="M37.652 86.778h.086c.316 0 .492.123.57.198.171.158.255.432.255.708 0 .418-.166.893-.825.893h-.086zm-.394 1.799h-.089c-.656 0-.823-.475-.823-.893 0-.427.141-.906.823-.906h.089zm-.356-2.517v.193l.281.023.075.066v.22h-.097c-.198 0-.555.023-.831.25-.123.098-.377.356-.377.872 0 .372.132.639.35.827.12.103.385.282.849.282h.106v.272l-.075.066-.281.024v.192h1.105v-.192l-.281-.024-.074-.066v-.272h.105c.464 0 .73-.179.85-.282.218-.188.35-.455.35-.827 0-.516-.254-.774-.376-.872-.277-.227-.636-.25-.833-.25h-.096v-.22l.074-.066.281-.023v-.193z"/></g><g><path fill="#b5b5b5" d="M41.275 87.572h-.236l-.058-.301-.053-.037h-.744v.827h.521l.048-.038.035-.259h.206v.775h-.206l-.035-.258-.048-.033h-.521v.91h.868l.061-.037.065-.385h.22v.611h-1.844v-.17l.214-.018.044-.038v-1.85l-.044-.037-.214-.02v-.167h1.72z"/></g><g><path fill="#b5b5b5" d="M42.405 89.16c.364-.667.54-1.325.636-1.926h.525v1.925zm.075-2.113v.169h.29l.043.055a5.278 5.278 0 0 1-.688 1.888h-.205v.77h.227l.064-.53.045-.052h1.646l.045.051.065.531h.228v-.77h-.267l-.036-.033V87.27l.045-.037.213-.018v-.169z"/></g><g><path fill="#b5b5b5" d="M46.575 87.572h-.237l-.056-.301-.053-.037h-.745v.827h.522l.047-.038.036-.259h.206v.775h-.206l-.036-.258-.047-.033h-.522v.91h.869l.06-.037.066-.385h.219v.611h-1.844v-.17l.215-.018.043-.038v-1.85l-.043-.037-.215-.02v-.167h1.721z"/></g><g><path fill="#b5b5b5" d="M47.956 87.243c.046-.005.152-.01.21-.01.298 0 .55.142.55.512 0 .376-.192.555-.555.555-.03 0-.083 0-.205-.014zm-.654-.196v.168l.242.019.039.037v1.85l-.039.038-.219.019v.17h.932v-.17h-.259l-.042-.057v-.638c.143.01.195.01.219.01.748 0 .935-.484.935-.771 0-.54-.486-.675-.997-.675z"/></g><g><path fill="#b5b5b5" d="M50.422 87.436l.332.85h-.66zm-.062-.418l-.811 2.122-.205.038v.17h.688v-.17l-.237-.02-.02-.037.239-.643h.81l.25.643-.018.038-.219.019v.17h.854v-.17l-.21-.038-.831-2.122z"/></g><g><path fill="#b5b5b5" d="M53.129 87.047v.168l-.228.019-.045.037v1.887h1.097v-1.887l-.045-.037-.228-.02v-.167h.902v.168l-.214.019-.044.037v1.855l.035.032h.267v.77h-.228l-.065-.53-.043-.05h-2.063v-.17l.214-.02.044-.037v-1.85l-.044-.037-.214-.02v-.167z"/></g><g><path fill="#b5b5b5" d="M56.142 87.047v.168l-.227.019-.044.037v1.447l1.174-1.353v-.094l-.044-.037-.228-.02v-.167h.902v.168l-.214.019-.044.037v1.85l.044.037.214.02v.17h-.902v-.17l.228-.02.044-.037v-1.483L55.88 88.98v.141l.043.037.228.02v.17h-.91v-.17l.214-.02.043-.037v-1.85l-.043-.037-.215-.02v-.167z"/></g><g><path fill="#b5b5b5" d="M59.213 87.047v.168l-.228.019-.043.037v1.447l1.174-1.353v-.094l-.044-.037-.228-.02v-.167h.902v.168l-.215.019-.043.037v1.85l.043.037.215.02v.17h-.902v-.17l.228-.02.044-.037v-1.483l-1.165 1.342v.141l.044.037.227.02v.17h-.911v-.17l.214-.02.044-.037v-1.85l-.044-.037-.214-.02v-.167z"/></g><g><path fill="#b5b5b5" d="M32.801 11.657c.045-.011.293-.07.293-.367 0-.124-.06-.19-.06-.307 0-.095.051-.147.113-.147.04 0 .08.007.117.022a.446.446 0 0 1 .056-.072.473.473 0 0 0-.338-.164c-.141 0-.275.096-.275.297 0 .22.194.305.194.507a.35.35 0 0 1-.1.23"/></g><g><path fill="#b5b5b5" d="M32.988 10.139c.036.06.112.074.211.065.095-.007.171-.004.228.079.061.086.15.098.261.084l.014-.056a.562.562 0 0 0-.009-.28 1.08 1.08 0 0 1-.034-.216.407.407 0 0 1-.214-.3c-.007-.032-.008-.062-.012-.087-.371.101-.61.523-.61.523.132.013.113.108.165.188"/></g><g><path fill="#b5b5b5" d="M33.126 13.032a.525.525 0 0 1-.137.02.22.22 0 0 1-.22-.223c0-.127.058-.161.058-.281 0-.151-.094-.168-.094-.168s.042.065.042.123c0 .143-.135.21-.135.434 0 .275.225.42.405.42a.72.72 0 0 0 .136-.015.557.557 0 0 1-.063-.243c0-.022.003-.045.008-.067"/></g><g><path fill="#b5b5b5" d="M34.023 11.125a1.49 1.49 0 0 0-.14-.27.422.422 0 0 0-.084-.08.293.293 0 0 1-.103-.117l-.026.005a.375.375 0 0 0-.034.068.823.823 0 0 0-.054.305c0 .102.016.222.057.361a1.498 1.498 0 0 0 .494.032.381.381 0 0 0-.023-.123c-.03-.051-.057-.114-.087-.181"/></g><g><path fill="#b5b5b5" d="M34.16 11.6a.578.578 0 0 1-.022-.11c-.08.007-.149.007-.194.007a1.59 1.59 0 0 1-.315-.04l-.033-.006-.01-.035a1.362 1.362 0 0 1-.06-.38.87.87 0 0 1 .06-.33c.002-.008.008-.018.011-.026a.532.532 0 0 0-.38.524c0 .144.093.383.093.383s.018.14-.15.318c0 0-.122.029-.116.202 0 0-.032.257-.089.433-.02.061.034.12.034.12s-.02.05-.014.104c0 0-.025.052-.02.086 0 0 .041.041.136.041.064 0 .11-.031.11-.031s.003-.082-.047-.116c0 0 0-.055-.044-.104 0 0-.05-.131.071-.485.006-.016.015-.047.11-.103.138-.082.42-.175.502-.44 0 0 .222.063.403.082a.997.997 0 0 1-.036-.094"/></g><g><path fill="#b5b5b5" d="M33.836 12.126a.676.676 0 0 0 .274-.383 3.54 3.54 0 0 1-.283-.058.641.641 0 0 1-.11.173c.007.022.01.043.011.066a.26.26 0 0 1-.072.163c-.068.05-.037.098-.001.15.03.043.108.17.166.353.047 0 .114 0 .159.007-.061-.11-.12-.243-.143-.287-.05-.096-.04-.159-.001-.184"/></g><g><path fill="#b5b5b5" d="M34.442 11.376a.656.656 0 0 0 .147-.056 1.737 1.737 0 0 0-.067-.328 1.27 1.27 0 0 0-.253-.492l-.007.018a2.298 2.298 0 0 1 .18.7v.043a1.634 1.634 0 0 0 0 .115"/></g><g><path fill="#b5b5b5" d="M35.743 11.603c0-.07-.033-.07-.033-.12 0-.03.004-.048.004-.07 0-.021-.018-.068-.06-.114a6.042 6.042 0 0 1-.186-.226s-.02-.076-.156-.034a1.945 1.945 0 0 1-.284.067s.01-.047.01-.158c0-.266-.113-.3-.113-.53 0-.087.039-.196.104-.249.006.037.023.12.057.192 0 0-.008.126 0 .158 0 0-.032.06-.008.093.026.032.05.026.05.026s.012.028.072.041c.06.012.092-.082.117-.155.025-.074.047-.17.047-.17s.155-.197.071-.448l.13-.104s-.056-.041-.152-.022c-.013-.03-.043-.06-.106-.076.004-.066-.074-.103-.166-.071-.031-.078-.167-.026-.202.012 0 0-.056-.104-.194.045-.018-.025-.107-.053-.18.107-.043-.024-.12.01-.14.142-.02-.005-.088.025-.08.175-.025 0-.07.025-.049.174 0 0-.041.017-.02.13l.034.039c.141.159.223.368.265.516.024.078.043.16.058.25l.012.092.003.042-.033.017a.951.951 0 0 1-.17.065c.003.012.003.025.004.038.001.004.005.016.005.025a.734.734 0 0 1 .018.09c.003.02.013.048.022.082.07-.015.105-.028.105-.028s.032.143.186.36c0 0 .141.451.132.596-.004.05.037.082.037.082s-.037.081-.02.151a.24.24 0 0 1-.143.038.11.11 0 0 1-.092-.072c.044-.038.026-.057.026-.103 0-.045-.01-.084-.012-.09-.009-.045-.024-.065-.024-.13 0-.04-.004-.079-.025-.079-.01 0-.027.007-.042.012-.011-.033-.037-.058-.069-.062l-.098-.321-.872-2.861c.016-.005.057-.023.039-.097-.012-.037-.04-.086-.076-.067l-.01.005-.079-.258-.053.017.088.286c-.018.033-.006.07-.004.09.004.047.01.093.01.093s-.032.088.002.266a.34.34 0 0 0 .21.27l.004.018c.002.03.004.109.034.223a.654.654 0 0 1 .01.316.781.781 0 0 0-.036.188c0 .188.114.177.205.299.088.119.16.332.232.459.037.069.023.208.054.306.043.136.108.205.108.252 0 .038-.022.115-.022.14 0 .02.04.048.098.052l.122.4a.058.058 0 0 0-.039-.014c-.026 0-.046.02-.048.057.01-.014.02-.019.026-.02.002.024.027.044.05.046.007.002.03.015.053.049l.036.123c-.016.01-.05-.012-.05-.033 0-.02-.002-.03-.004-.039.009 0 .013.004.018.006-.001-.01-.008-.024-.024-.024-.022 0-.035.035-.035.056 0 .055.054.102.065.12-.02-.01-.03-.03-.067-.03a.223.223 0 0 0-.112.04c.006-.013.04-.05.04-.091 0-.009-.002-.02-.01-.026.001-.01.004-.02.004-.03 0-.045-.024-.08-.025-.1-.005-.023-.005-.128-.055-.128-.006 0-.022 0-.032.006-.016-.03-.033-.044-.052-.044-.032 0-.048.02-.05.047a.032.032 0 0 1 .027-.016s.016.044.04.061c-.007.015-.02.02-.044.02-.011-.012-.024-.044-.045-.044a.04.04 0 0 0-.037.046c-.015.01-.01.04 0 .051 0-.016.01-.036.023-.03.016.032.115.076.115.11 0 .008-.003.017-.003.027 0 .006.002.012.006.02a.448.448 0 0 1-.03.086 1.19 1.19 0 0 0-.478-.093c-.317.006-.605.203-.605.465 0 .195.163.489.49.489.304 0 .51-.124.51-.35a.236.236 0 0 0-.086-.186.35.35 0 0 0-.216-.064.714.714 0 0 0-.156.019.192.192 0 0 0-.02.081c0 .03.009.066.043.102l-.04.043a.209.209 0 0 1-.059-.144v-.002c0-.071.032-.118.039-.13l.004-.005.004-.002a.858.858 0 0 1 .185-.023c.175-.001.333.088.355.271a.172.172 0 0 1 .052.122c0 .065-.044.142-.144.19-.004.158-.167.226-.28.247a.702.702 0 0 0 .316.046c.557-.042.742-.273.829-.523a.387.387 0 0 0 .073-.02.237.237 0 0 1-.022.077c.04-.014.076-.057.098-.103l.018-.007a.31.31 0 0 1-.062.195c.1-.048.141-.158.158-.26.012-.006.052-.039.065-.039.025 0 .046.01.066.01.041 0 .092-.073.1-.106.007-.019-.006-.032-.015-.034.17-.142.14-.208.183-.284.03-.05.04-.085.04-.109 0-.027-.01-.042-.03-.051-.018-.059-.05-.071-.081-.071-.018 0-.033.004-.044.006.006.02.01.039.01.057 0 .055-.03.096-.085.121.012-.019.022-.037.022-.053 0-.022-.02-.027-.02-.061 0-.06.051-.174.132-.195-.162 0-.22.225-.26.345a.257.257 0 0 1-.08.02c.044-.109.016-.19.122-.246-.06-.042-.132-.01-.174.045-.021.028-.053.097-.102.157l-.019-.01c-.008-.118-.072-.22-.118-.501 0 0 .025-.089-.043-.24 0 0 .004-.2-.053-.44 0 0 .039-.012.075-.053 0 0 .078.06.378-.236 0 0 .013-.014.054 0 0 0 .138.088.205.236 0 0-.038.062-.012.116 0 0-.072.044-.044.105.037.068.094.124.148.138.043.01.049.003.036-.097 0 0 .021-.044.021-.09"/></g><g><path fill="#b5b5b5" d="M33.704 9.398l.804 2.64c.07.004.135.003.164.003.062 0 .06-.045.027-.053a.714.714 0 0 1-.193-.136 1.18 1.18 0 0 1-.087-.253c-.01-.05-.023-.096-.025-.115-.013-.104-.008-.205-.008-.265 0-.053-.057-.457-.186-.693l.024-.079-.004-.017c-.017-.087-.002-.135.018-.164-.01-.08.002-.138.031-.175.007-.006.012-.013.02-.019.003-.08.027-.127.05-.152a.131.131 0 0 1 .04-.032c-.01-.143-.055-.271-.148-.344-.003-.043-.01-.073-.01-.073.091-.032.127-.158.127-.158.046.008.06-.13.05-.171-.029-.113-.155-.158-.267-.109-.086.04-.139.17-.16.255a.075.075 0 0 0 .053.095.194.194 0 0 1-.024.049c-.117-.033-.2-.032-.296-.034"/></g><g><path fill="#b5b5b5" d="M34.336.84c0 .12-.09.216-.2.216-.11 0-.2-.097-.2-.216 0-.12.09-.216.2-.216.11 0 .2.096.2.216"/></g><g><path fill="#b5b5b5" d="M34.19.231c0-.046.07-.231.07-.231h-.25s.07.185.07.231a1.15 1.15 0 0 1-.212-.076v.272s.17-.077.212-.077c0 .048-.07.233-.07.233h.25s-.07-.185-.07-.233c.042 0 .214.077.214.077V.155s-.172.076-.213.076"/></g><g><path fill="#b5b5b5" d="M30.378 3.529a2.169 2.169 0 0 1-.549-.143c-.414-.172-.624-.445-.624-.81 0-.201.061-.385.12-.562.058-.174.113-.336.113-.507a.79.79 0 0 0-.085-.342.75.75 0 0 1 .235-.037 1 1 0 0 1 .353.076c.026.065.041.141.041.211 0 .22-.1.451-.197.676-.091.21-.177.41-.177.589 0 .404.562.739.77.849"/></g><g><path fill="#b5b5b5" d="M28.197 3.786a.665.665 0 0 1-.286-.55c0-.13.031-.267.093-.41l-.024-.016a.689.689 0 0 1-.197.175c-.102.069-.2.133-.256.317-.056-.18.007-.277.08-.389a.649.649 0 0 0 .134-.386c0-.104-.061-.197-.129-.296-.082-.122-.166-.249-.157-.415l.059-.042c.006-.005.182-.123.521-.145a.827.827 0 0 0-.003.071c0 .18.074.34.15.497.071.157.15.32.15.504a.837.837 0 0 1-.108.415c-.047.096-.092.188-.092.329 0 .097.022.21.065.34"/></g><g><path fill="#b5b5b5" d="M27.5 1.64c.053-.07.195-.199.55-.26.214-.038.365-.222.511-.403.144-.174.278-.34.455-.34.073 0 .13.04.201.092.056.038.12.082.204.118.189.076.303.14.368.18a.916.916 0 0 0-.2-.022c-.26 0-.442.11-.633.228-.217.132-.44.268-.802.268-.349 0-.562.092-.653.14"/></g><g><path fill="#b5b5b5" d="M31.05 4.692c-.272-.177-.565-.43-.634-.724a.182.182 0 0 1 .026-.137.103.103 0 0 1 .083-.045c.125.41.34.71.525.906"/></g><g><path fill="#b5b5b5" d="M30.583 5.824a.68.68 0 0 1 .146-.488.739.739 0 0 1 .576-.25c.229 0 .382.074.494.242a2.439 2.439 0 0 0-.141-.005c-.425 0-.815.18-1.075.5"/></g><g><path fill="#b5b5b5" d="M32.003 3.578c.175-.071.63-.232 1.257-.73.308 0 .32-.003.625-.003-.559.764-1.639.727-1.882.733"/></g><g><path fill="#b5b5b5" d="M36.253 3.578c-.175-.071-.63-.232-1.257-.73-.307 0-.32-.003-.624-.003.559.764 1.637.727 1.88.733"/></g><g><path fill="#b5b5b5" d="M30.046 5.645c-.473 0-.61-.313-.645-.433.137.12.28.18.43.18.162 0 .312-.06.455-.117.141-.055.275-.108.417-.108a.43.43 0 0 1 .058.003.68.68 0 0 0-.225.32c-.087.076-.336.155-.49.155"/></g><g><path fill="#b5b5b5" d="M34.135 8.143l-.006-.015c-.03-.072-.074-.138-.114-.205-.086-.135-.166-.264-.166-.424 0-.288.118-.467.231-.639l.05-.077.005-.008.007.008.049.076c.113.173.23.352.23.64 0 .16-.079.289-.163.424a1.675 1.675 0 0 0-.116.205z"/></g><g><path fill="#b5b5b5" d="M33.46 8.123l-.005-.012c-.028-.058-.056-.109-.082-.157-.082-.148-.153-.276-.153-.48 0-.241.103-.427.256-.632l.007-.007.005.008c.032.056.066.107.099.156.094.139.182.269.182.477 0 .173-.083.297-.173.428-.044.064-.091.132-.13.207z"/></g><g><path fill="#b5b5b5" d="M32.787 8.139l-.005-.018c-.017-.084-.05-.167-.08-.249-.05-.133-.101-.271-.101-.408 0-.241.103-.372.243-.555l.01-.015.013-.015.007-.009.004.01c.016.031.039.067.06.101.085.137.188.305.188.464 0 .218-.088.333-.189.467-.049.064-.099.13-.141.21z"/></g><g><path fill="#b5b5b5" d="M30.046 15.855a.39.39 0 0 0 .002-.056.266.266 0 0 0-.204-.247c.2-.155.562-.437.915-.736a1.289 1.289 0 0 0 .476-.012 1.558 1.558 0 0 0-.078.458 5.354 5.354 0 0 1-1.11.593"/></g><g><path fill="#b5b5b5" d="M38.312 15.888a5.262 5.262 0 0 1-1.198-.626 1.472 1.472 0 0 0-.078-.458 1.295 1.295 0 0 0 .476.012c.311.264.63.514.844.68a.372.372 0 0 0-.075.231c0 .058.01.113.031.16"/></g><g><path fill="#b5b5b5" d="M40.717 15.48c-.078-.493-.429-.884-.876-.987l.009.937c.006 0 .012 0 .017.002.039 0 .076.002.114.003.244.007.487.021.736.044"/></g><g><path fill="#b5b5b5" d="M39.377 14.493c-.45.103-.8.494-.877.986.25-.022.494-.037.741-.044.036 0 .07-.003.106-.003.008-.002.013-.002.018-.002.006-.31.007-.616.012-.937"/></g><g><path fill="#b5b5b5" d="M40.782 15.751c0 .074-.055.133-.121.133s-.121-.06-.121-.133c0-.072.055-.132.12-.132.067 0 .122.06.122.132"/></g><g><path fill="#b5b5b5" d="M39.729 15.691c0 .072-.053.132-.121.132-.067 0-.12-.06-.12-.132 0-.073.053-.132.12-.132.068 0 .121.059.121.132"/></g><g><path fill="#b5b5b5" d="M39.729 14.953c0 .074-.053.132-.121.132-.067 0-.12-.058-.12-.132 0-.072.053-.13.12-.13.068 0 .121.058.121.13"/></g><g><path fill="#b5b5b5" d="M39.729 15.322c0 .072-.053.13-.121.13-.067 0-.12-.058-.12-.13 0-.072.053-.131.12-.131.068 0 .121.059.121.131"/></g><g><path fill="#b5b5b5" d="M39.838 15.697c0 .074.054.132.121.132s.122-.058.122-.132c0-.073-.055-.132-.122-.132s-.12.059-.12.132"/></g><g><path fill="#b5b5b5" d="M40.189 15.717c0 .072.055.133.123.133.066 0 .12-.061.12-.133 0-.073-.054-.131-.12-.131-.068 0-.123.058-.123.131"/></g><g><path fill="#b5b5b5" d="M38.436 15.751c0 .074.053.133.12.133.066 0 .12-.06.12-.133 0-.072-.054-.132-.12-.132-.067 0-.12.06-.12.132"/></g><g><path fill="#b5b5b5" d="M39.378 15.697c0 .074-.055.132-.12.132-.069 0-.122-.058-.122-.132 0-.073.053-.132.121-.132.066 0 .121.059.121.132"/></g><g><path fill="#b5b5b5" d="M39.026 15.717c0 .072-.054.133-.121.133-.065 0-.12-.061-.12-.133 0-.073.055-.131.12-.131.067 0 .121.058.121.131"/></g><g><path fill="#b5b5b5" d="M39.729 14.585c0 .073-.053.131-.121.131-.067 0-.12-.058-.12-.131 0-.073.053-.13.12-.13.068 0 .121.057.121.13"/></g><g><path fill="#b5b5b5" d="M39.676 13.89c0-.056.083-.28.083-.28h-.303s.085.224.085.28c-.05 0-.256-.092-.256-.092v.328s.205-.091.256-.091c0 .056-.085.28-.085.28h.303s-.083-.224-.083-.28c.052 0 .256.091.256.091v-.328s-.204.092-.256.092"/></g><g><path fill="#b5b5b5" d="M40.194 16.391c-.031-.071-.073-.128-.073-.128l-.06-.078s.05-.043.122-.043c.09 0 .174.032.243.093a.22.22 0 0 1 .14.1c.058-.1.101-.21.13-.325a10.123 10.123 0 0 0-2.174 0c.05.207.15.391.283.54a.317.317 0 0 1 .202-.165.356.356 0 0 1 .257-.124c.078-.001.109.04.109.04l-.052.078s-.057.09-.08.176a.338.338 0 0 1-.026.283c.108.045.228.071.35.077a.378.378 0 0 1 .113-.415c.022-.093.016-.2.016-.202l-.007-.087a.179.179 0 0 1 .113.019c.122.09.166.215.18.312.058.08.084.191.081.245l-.001.027c.052-.026.103-.057.15-.089a.431.431 0 0 1-.049-.146.378.378 0 0 1 .033-.188"/></g><g><path fill="#b5b5b5" d="M39.802 17.006h-.01a.145.145 0 0 1-.119-.066.28.28 0 0 1 .073-.379l.005-.004.001-.005a.694.694 0 0 0 .028-.22c.084.072.11.171.119.242v.007l.002.003a.372.372 0 0 1 .076.196c-.008.141-.074.226-.175.226"/></g><g><path fill="#b5b5b5" d="M33.399 15.836c-.27 0-.384-.149-.415-.199.307-.092.586-.376.692-.702.032.086.07.172.11.256a1.65 1.65 0 0 0-.065.235 1.012 1.012 0 0 0-.003.282.466.466 0 0 1-.32.128"/></g><g><path fill="#b5b5b5" d="M30.966 14.711c-.16 0-.32-.033-.475-.095.03-.072.18-.386.424-.565a.973.973 0 0 0 .445.11l.076-.002a1.619 1.619 0 0 0-.119.469v.024a.968.968 0 0 1-.35.059"/></g><g><path fill="#b5b5b5" d="M31.3 15.63c-.099-.48.052-.824.084-.892l.022.002c.019.002.04.003.06.003.11 0 .246-.022.386-.062a1.303 1.303 0 0 0-.025.255c.003.112.019.22.048.32-.199.236-.506.35-.575.373"/></g><g><path fill="#b5b5b5" d="M32.175 15.563c-.058-.055-.228-.255-.235-.63-.002-.093.012-.2.037-.293.156-.057.287-.128.371-.204a.962.962 0 0 0 .05.429 2.624 2.624 0 0 0-.223.698"/></g><g><path fill="#b5b5b5" d="M33.43 15.165a1.453 1.453 0 0 0-.396-.602c.113-.182.24-.337.375-.46h.105l.033.001c-.01.062-.015.125-.015.19 0 .124.027.28.078.452l-.03.113a.995.995 0 0 1-.15.306"/></g><g><path fill="#b5b5b5" d="M31.931 8.932a.626.626 0 0 1-.536-.288.589.589 0 0 1-.046-.507.791.791 0 0 0 .572.27c.295 0 .528-.161.694-.48a.753.753 0 0 1 .004.557h-.647v.446a.854.854 0 0 1-.04.002"/></g><g><path fill="#b5b5b5" d="M34.135 15.534c-.22-.248-.491-.871-.491-1.24 0-.056.005-.112.015-.166.29.103.462.486.465.49l.011.029.014-.03c0-.003.175-.386.464-.49.01.055.013.11.013.167 0 .369-.271.992-.49 1.24"/></g><g><path fill="#b5b5b5" d="M34.135 16.302c-.07-.05-.13-.116-.21-.271a1.082 1.082 0 0 1-.094-.58c.009-.043.018-.081.029-.119.07.126.14.23.207.3l.06.064.008.011.011-.011.06-.063c.066-.072.136-.175.206-.3.01.037.02.075.028.117.032.185-.02.444-.093.581-.08.155-.14.22-.212.27"/></g><g><path fill="#b5b5b5" d="M39.012 16.887a.163.163 0 0 1-.056-.012c-.035-.012-.063-.043-.081-.086a.261.261 0 0 1 .004-.193.224.224 0 0 1 .163-.124h.006l.006-.006a.277.277 0 0 1 .181-.108.534.534 0 0 0-.08.2l-.001.006.002.003c.021.057.026.117.011.165-.012.036-.057.155-.155.155"/></g><g><path fill="#b5b5b5" d="M40.41 16.758c-.09 0-.152-.096-.164-.193a.273.273 0 0 1 .038-.161l.006-.007-.003-.008a.684.684 0 0 0-.08-.154.286.286 0 0 1 .18.084l.004.006h.007c.105.003.154.164.157.22.01.093-.035.198-.123.212h-.022"/></g><g><path fill="#b5b5b5" d="M31.814 18.57c0-.516.55-1.054 1.036-1.53.109-.107.212-.207.305-.304.261-.271.505-.575.63-.737a1.397 1.397 0 0 1-.045-.164c-.35.354-1.05.93-1.542.93a.855.855 0 0 1-.645-.246c-.164.19-.126.527.086.759l.01.01-.011.012c-.449.363-.863.792-.863 1.439 0 .627.513.92.857.92.37 0 .54-.13.678-.27-.25-.109-.496-.398-.496-.818"/></g><g><path fill="#b5b5b5" d="M33.791 19.494a.93.93 0 0 1-.205.024c-.165 0-.293-.054-.38-.167-.093-.118-.14-.294-.14-.526 0-.469.167-.873.38-1.384.143-.346.306-.739.448-1.23a1.768 1.768 0 0 1-.056-.099c-.125.18-.3.382-.484.597-.56.657-1.258 1.472-1.258 2.301 0 .037.002.075.006.115a.726.726 0 0 0 .258.189l.087.032.022.009-.018.017-.066.068a1.08 1.08 0 0 1-.146.131.928.928 0 0 0 .827.482c.265 0 .469-.097.604-.29a.808.808 0 0 0 .121-.269"/></g><g><path fill="#b5b5b5" d="M34.535 19.818a.83.83 0 0 1-.142-.33l-.015-.09-.002-.023.021.004.08.02c.076.02.146.029.209.029a.505.505 0 0 0 .127-.015c.02-.11.03-.226.03-.345 0-.47-.124-.947-.268-1.497-.1-.394-.206-.8-.28-1.252a.6.6 0 0 1-.107.091l-.046.033-.006.005-.007-.005-.046-.033a.686.686 0 0 1-.108-.091c-.072.451-.178.858-.279 1.252-.142.55-.266 1.028-.266 1.497 0 .12.008.235.029.345.038.01.081.015.127.015a.81.81 0 0 0 .208-.028l.081-.021.02-.004-.002.023-.014.09c-.004.017-.03.173-.142.33a.762.762 0 0 1-.095.113c.191.328.455.459.494.478.039-.019.301-.15.493-.478a.899.899 0 0 1-.094-.113"/></g><g><path fill="#b5b5b5" d="M34.092 8.482c-.006-.254-.13-.444-.221-.582-.024-.038-.047-.074-.064-.105l-.005-.009-.006.007c-.068.08-.286.358-.286.568 0 .04.004.08.01.123h.572z"/></g><g><path fill="#b5b5b5" d="M33.42 8.473c0-.246-.126-.451-.247-.65l-.004-.007-.008.006c-.226.223-.368.45-.404.66l-.002.002h.665z"/></g><g><path fill="#b5b5b5" d="M37.894 3.529c.113-.014.332-.052.547-.143.416-.172.626-.445.626-.81 0-.201-.061-.385-.121-.562-.06-.174-.113-.336-.113-.507a.78.78 0 0 1 .085-.342.745.745 0 0 0-.235-.037.99.99 0 0 0-.353.076.589.589 0 0 0-.04.211c0 .22.1.451.196.676.092.21.177.41.177.589 0 .404-.562.739-.77.849"/></g><g><path fill="#b5b5b5" d="M40.074 3.786a.664.664 0 0 0 .287-.55 1.03 1.03 0 0 0-.094-.41l.025-.016c.058.083.128.13.196.175.103.069.201.133.257.317.055-.18-.008-.277-.082-.389a.653.653 0 0 1-.133-.386c0-.104.062-.197.128-.296.082-.122.167-.249.16-.415l-.06-.042c-.007-.005-.184-.123-.522-.145a.827.827 0 0 1 .004.071c0 .18-.075.34-.15.497-.072.157-.149.32-.149.504 0 .194.054.306.107.415.047.096.091.188.091.329 0 .097-.02.21-.065.34"/></g><g><path fill="#b5b5b5" d="M40.771 1.64c-.053-.07-.195-.199-.548-.26-.215-.038-.368-.222-.513-.403-.143-.174-.279-.34-.454-.34-.074 0-.13.04-.202.092a1.025 1.025 0 0 1-.204.118c-.189.076-.302.14-.366.18a.896.896 0 0 1 .2-.022c.259 0 .44.11.632.228.216.132.438.268.801.268.348 0 .562.092.654.14"/></g><g><path fill="#b5b5b5" d="M37.689 5.824a.675.675 0 0 0-.147-.488.735.735 0 0 0-.575-.25c-.23 0-.383.074-.494.242.045-.003.094-.005.14-.005.427 0 .816.18 1.076.5"/></g><g><path fill="#b5b5b5" d="M38.225 5.645c.472 0 .61-.313.646-.433a.65.65 0 0 1-.431.18c-.163 0-.312-.06-.455-.117-.14-.055-.274-.108-.416-.108a.46.46 0 0 0-.06.003.67.67 0 0 1 .227.32c.087.076.336.155.489.155"/></g><g><path fill="#b5b5b5" d="M34.81 8.123l.006-.012c.028-.058.056-.109.084-.157.081-.148.151-.276.151-.48 0-.241-.103-.427-.256-.632l-.006-.007-.004.008c-.032.056-.068.107-.1.156-.096.139-.183.269-.183.477 0 .173.084.297.174.428.045.064.09.132.129.207z"/></g><g><path fill="#b5b5b5" d="M35.485 8.139l.004-.018c.02-.084.05-.167.08-.249.05-.133.101-.271.101-.408 0-.241-.102-.372-.243-.555l-.01-.015-.013-.015-.006-.009-.005.01-.06.101c-.084.137-.187.305-.187.464 0 .218.086.333.188.467.05.064.099.13.142.21z"/></g><g><path fill="#b5b5b5" d="M34.872 15.836c.272 0 .385-.149.416-.199-.307-.092-.585-.376-.692-.702-.032.086-.07.172-.11.256.027.072.047.147.063.235h.002c.014.082.014.18.002.282a.465.465 0 0 0 .32.128"/></g><g><path fill="#b5b5b5" d="M37.306 14.711c.161 0 .319-.033.474-.095-.032-.072-.18-.386-.423-.565a.964.964 0 0 1-.447.11l-.073-.002c.066.172.11.346.117.469v.024c.047.018.17.059.352.059"/></g><g><path fill="#b5b5b5" d="M36.971 15.63a1.44 1.44 0 0 0-.085-.892l-.022.002a.843.843 0 0 1-.06.003c-.108 0-.243-.022-.384-.062a1.221 1.221 0 0 1-.022.575c.197.236.504.35.573.373"/></g><g><path fill="#b5b5b5" d="M36.097 15.563c.055-.055.227-.255.235-.63 0-.093-.014-.2-.039-.293a1.168 1.168 0 0 1-.37-.204.962.962 0 0 1-.05.429c.138.258.208.602.224.698"/></g><g><path fill="#b5b5b5" d="M34.843 15.165c.085-.242.227-.46.394-.602a2.135 2.135 0 0 0-.375-.46h-.103l-.035.001c.011.062.015.125.015.19 0 .124-.027.28-.079.452l.031.113c.03.106.081.211.152.306"/></g><g><path fill="#b5b5b5" d="M36.34 8.932c.222 0 .427-.11.537-.288a.587.587 0 0 0 .045-.507.792.792 0 0 1-.573.27c-.294 0-.528-.161-.692-.48a.757.757 0 0 0-.004.557h.645v.446l.042.002"/></g><g><path fill="#b5b5b5" d="M36.457 18.57c0-.516-.551-1.054-1.036-1.53-.108-.107-.212-.207-.305-.304a9.803 9.803 0 0 1-.632-.737c.019-.05.035-.107.049-.164.349.354 1.047.93 1.54.93a.856.856 0 0 0 .645-.246c.164.19.127.527-.085.759l-.013.01.015.012c.445.363.86.792.86 1.439 0 .627-.511.92-.858.92-.369 0-.54-.13-.675-.27.25-.109.495-.398.495-.818"/></g><g><path fill="#b5b5b5" d="M34.48 19.494a.919.919 0 0 0 .206.024.456.456 0 0 0 .38-.167c.092-.118.14-.294.14-.526 0-.469-.168-.873-.38-1.384-.144-.346-.307-.739-.449-1.23.019-.03.038-.063.056-.099.127.18.3.382.484.597.56.657 1.26 1.472 1.26 2.301 0 .037-.003.075-.006.115a.734.734 0 0 1-.261.189l-.086.032-.02.009.016.017.067.068c.039.041.087.088.144.131a.925.925 0 0 1-.825.482c-.266 0-.47-.097-.605-.29a.802.802 0 0 1-.12-.269"/></g><g><path fill="#b5b5b5" d="M34.18 8.482c.006-.254.13-.444.22-.582a1.19 1.19 0 0 0 .064-.105l.006-.009.006.007c.067.08.285.358.285.568a.78.78 0 0 1-.01.123h-.571z"/></g><g><path fill="#b5b5b5" d="M34.852 8.473c0-.246.125-.451.246-.65l.006-.007.006.006c.227.223.367.45.405.66v.002h-.663z"/></g><g><path fill="#b5b5b5" d="M30.227 17.177a.188.188 0 0 1-.054.247c-.079.052-.179.025-.228-.059a.19.19 0 0 1 .056-.247c.078-.052.179-.026.226.06"/></g><g><path fill="#b5b5b5" d="M30.075 16.966s-.069-.367-.305-.832a.437.437 0 0 1-.122 0 .52.52 0 0 1-.019.173.394.394 0 0 1-.07.295.371.371 0 0 1-.097.082c.163.225.377.44.377.44z"/></g><g><path fill="#b5b5b5" d="M29.014 15.417a.33.33 0 0 1 .11.05.408.408 0 0 1 .263.131l.031.034c.015-.015.028-.029.044-.041-.277-.43-.586-.761-.586-.761l-.263.175s.085.259.183.419c.01.016.032-.012.05-.014a.373.373 0 0 1 .168.007"/></g><g><path fill="#b5b5b5" d="M28.892 16.349a.184.184 0 0 1-.11-.106.214.214 0 0 1-.001-.16.282.282 0 0 1 .14-.136.335.335 0 0 1 .198-.003l.008.005.004.001.006-.002a.357.357 0 0 1 .198.005.404.404 0 0 1 .094.048.738.738 0 0 0-.199.096l-.007.005v.01c-.014.073-.063.17-.143.212a.25.25 0 0 1-.188.025"/></g><g><path fill="#b5b5b5" d="M29.638 16.026a.285.285 0 0 1-.147-.1l-.002-.002-.003-.003a.49.49 0 0 0-.121-.049 1.076 1.076 0 0 0-.13-.023.338.338 0 0 1 .22-.112h.009l.003-.008a.253.253 0 0 1 .248-.108l.028.007c.127.033.193.126.176.243a.19.19 0 0 1-.08.132.258.258 0 0 1-.188.027z"/></g><g><path fill="#b5b5b5" d="M28.832 15.868a.177.177 0 0 1-.139-.151c-.013-.106.076-.188.17-.21a.363.363 0 0 1 .129.009c.04.011.07.025.093.047l.004.004h.005c.026.003.052.005.077.012a.32.32 0 0 1 .151.09.635.635 0 0 0-.201.053l-.006.003-.004.006c-.03.06-.1.13-.176.14a.257.257 0 0 1-.103-.003"/></g><g><path fill="#b5b5b5" d="M29.534 16.31l-.002-.009v-.005c.024-.056.048-.124.006-.218a.237.237 0 0 1-.138.142.236.236 0 0 0-.165.062c-.037.038-.147.17-.038.294a.14.14 0 0 0 .072.044c.074.02.16-.013.22-.085a.293.293 0 0 0 .045-.226"/></g><g><path fill="#b5b5b5" d="M39.557 6.746c.325-.236.618-.507.867-.806.5-.602.451-1.178.407-1.398-.046-.233-.142-.38-.217-.425-.046.098-.34.698-.848 1.229-.053.055-.21.113-.16.175.158.191.258.766-.05 1.225"/></g><g><path fill="#b5b5b5" d="M39.646 7.638c.313-.137.615-.298.89-.48.49-.323.628-.831.648-.923a1.157 1.157 0 0 0-.286-.033c-.187 0-.473.041-.765.234a6.224 6.224 0 0 0-1.025.854.675.675 0 0 1 .215.05.785.785 0 0 1 .303.22l.017.023.005.004v.006l-.002.045"/></g><g><path fill="#b5b5b5" d="M39.5 8.41c.342 0 .673-.034.98-.098.544-.114.81-.51.855-.584a1.238 1.238 0 0 0-.72-.225c-.09 0-.181.01-.273.028a4.753 4.753 0 0 0-.712.21 1.12 1.12 0 0 1-.094.26.91.91 0 0 1-.279.297c.09.023.172.06.244.113"/></g><g><path fill="#b5b5b5" d="M40.357 9.325c.503 0 .827-.284.889-.339a1.383 1.383 0 0 0-.941-.483c-.119-.009-.242-.007-.365-.013-.186-.008-.223.01-.335.01.16.126.198.39.197.39a.643.643 0 0 1-.263.302c-.006.005-.012.012-.022.018.25.055.496.094.736.112.034.002.069.003.104.003"/></g><g><path fill="#b5b5b5" d="M40.29 10.351a1.1 1.1 0 0 0 .417-.079 1.378 1.378 0 0 0-.689-.757 4.296 4.296 0 0 0-.615-.244.672.672 0 0 1-.228.048c.066.065.246.28.2.703.1.063.237.137.353.194.182.09.372.135.562.135"/></g><g><path fill="#b5b5b5" d="M38.939 10.73a4.263 4.263 0 0 1-.29-.353.837.837 0 0 0-.023-.265c.07.043.343.192.713.003.028.029.058.058.082.085.38.412.389.86.387.944 0 0-.512-.03-.87-.415"/></g><g><path fill="#b5b5b5" d="M38.775 11.625c.024-.075.143-.485-.095-.994a3.616 3.616 0 0 0-.057-.113.996.996 0 0 1-.199.347c-.073 0-.355-.1-.35-.098.03.016-.061-.036-.091-.057.036.087.07.17.106.248.239.508.614.646.686.667"/></g><g><path fill="#b5b5b5" d="M37.84 11.775c.037-.066.218-.425.076-.963-.023-.08-.112-.277-.108-.294-.127.481-.406.569-.425.569a.162.162 0 0 1-.064-.023c.152.495.46.68.52.71"/></g><g><path fill="#b5b5b5" d="M37.02 11.713c.038-.049.205-.297.19-.718a.76.76 0 0 1-.279-.458c-.01.02-.113.165-.226.248a.623.623 0 0 1-.13.068c.004.018.008.036.009.054.083.542.379.768.436.806"/></g><g><path fill="#b5b5b5" d="M37.381 10.995a.617.617 0 0 0 .227-.2c.1-.14.145-.333.123-.548l-.001-.014.011-.003.007-.002.008-.002.01-.003.005.013c.07.21.189.371.34.45a.589.589 0 0 0 .277.072h.016a.718.718 0 0 0 .144-.291.783.783 0 0 0-.099-.57l-.007-.012.011-.01.009-.007.01-.008.008.01c.185.21.367.253.485.253h.015a.6.6 0 0 0 .307-.095.726.726 0 0 0-.001-.348.7.7 0 0 0-.368-.444l-.01-.006.002-.013c.002-.003.003-.009.006-.012l.004-.013.012.003a.757.757 0 0 0 .216.032.552.552 0 0 0 .345-.11.693.693 0 0 0 .217-.27.671.671 0 0 0-.672-.485l-.047.002h-.013l-.001-.013-.001-.009-.003-.005-.001-.012.013-.004a.773.773 0 0 0 .577-.702.746.746 0 0 0-.27-.193.621.621 0 0 0-.245-.048.814.814 0 0 0-.34.08l-.01.005-.007-.013-.008-.014-.007-.015.012-.005a2.26 2.26 0 0 0 .686-.562c.206-.254.313-.526.313-.787 0-.414-.237-.597-.299-.636-.152.508-.51.796-.826 1.052-.328.264-.611.492-.611.899 0 .139.063.274.135.43.1.216.225.485.225.86 0 .555-.5.853-.995.86-.433 0-.757-.175-.894-.483a.708.708 0 0 1-.082.005l-.04-.001v1.792a.863.863 0 0 0 .362-.139c.095-.062.224-.192.29-.445l.003-.014.013.004.015.002.01.002v.014c-.01.274.078.443.154.539a.618.618 0 0 0 .235.187"/></g><g><path fill="#b5b5b5" d="M39.728 10.342c.185.087.377.13.573.13.227 0 .391-.06.451-.085l.086-.038-.033-.094c-.03-.09-.2-.53-.69-.791l.008-.033a2.401 2.401 0 0 0 .245.016c.518 0 .857-.278.95-.364l.073-.068-.063-.078a1.494 1.494 0 0 0-.545-.403c-.161-.064-.333-.102-.333-.102s.11-.012.3-.074c.42-.167.631-.484.675-.554l.05-.085-.075-.057a1.324 1.324 0 0 0-.775-.244c-.096 0-.193.01-.29.03l-.06.014c.11-.063.217-.128.32-.196a1.69 1.69 0 0 0 .693-.987l.023-.102-.094-.024a1.307 1.307 0 0 0-.309-.036c-.147 0-.35.024-.573.12l-.005-.012c.06-.064.118-.13.176-.197.529-.636.476-1.254.43-1.49a1 1 0 0 0-.165-.397c.941-1.407 1.34-2.506 1.382-2.626l.032-.09.076.046c.28.168.46.46.526.841.104.615-.118 1.375-.568 1.936-.124.159-.254.309-.383.455.085-.071.174-.143.265-.215.666-.522 1.218-.579 1.422-.579.052 0 .088.003.11.006l.075.01-.008.08c-.013.142-.117.884-.919 1.512-.279.219-.559.412-.838.58.148-.061.296-.117.445-.17.298-.102.588-.155.861-.155.386 0 .626.105.688.138l.068.033-.03.075c-.05.124-.345.759-1.23 1.072l.072-.002c.686 0 1.077.28 1.147.337l.122.096-.085.132c-.064.1-.386.553-1.094.738.492.138.75.393.806.457l.103.113-.1.116c-.078.09-.506.534-1.332.534h-.089l-.08-.004c.612.242.856.638.901.723l.037.066-.06.045a1.424 1.424 0 0 1-.812.232 1.93 1.93 0 0 1-.545-.082 5.808 5.808 0 0 1-.403-.13l.098.056c.662.394.83.91.858 1.01l.02.075-.068.027a1.14 1.14 0 0 1-.411.07c-.29 0-.58-.086-.866-.257a6.446 6.446 0 0 1-.536-.353c.068.07.134.141.196.215.486.56.492 1.087.488 1.186l-.003.068-.063.01a.174.174 0 0 1-.03.002c-.135 0-.611-.041-1.07-.572a5.997 5.997 0 0 1-.206-.25c.324.623.225 1.117.201 1.21l-.018.074-.07-.014c-.094-.019-.583-.15-.939-.802l-.077-.146c.149.571-.017.953-.053 1.027l-.033.067-.062-.028c-.08-.035-.485-.238-.69-.877a.096.096 0 0 1-.006-.02c.023.448-.138.73-.177.79l-.038.06-.06-.034c-.073-.042-.442-.281-.582-.91a7.465 7.465 0 0 1-.06-.309l.03-.038c.041-.055.153-.23.195-.514.176.413.45.573.508.603l.077.04.045-.079c.033-.058.165-.32.14-.715.266.474.644.597.69.61l.085.025.029-.09c.033-.1.113-.421-.009-.835l.022-.015c.38.402.903.437.926.439l.099.005v-.106a1.491 1.491 0 0 0-.222-.765c-.056-.08-.093-.13-.093-.13s.072.046.13.071"/></g><g><path fill="#b5b5b5" d="M34.107 6.437s-.02.197-.095.32a3 3 0 0 1-.224.298s-.062-.049-.158-.214a5.288 5.288 0 0 1-.18-.352s-.01.062-.067.237c-.057.177-.217.368-.217.368s-.06-.088-.174-.263c-.114-.177-.123-.425-.123-.425s-.03.145-.076.3c-.049.155-.162.335-.162.335s-.029-.015-.134-.221c-.105-.208-.095-.269-.172-.61-.075-.342-.418-.777-.418-.777l-.01-.114c-.016-.197-.135-.369-.135-.369l.394.182-.073-.297s.125.066.223.13c.1.063.477.251.477.251a4.335 4.335 0 0 0-.058-.513s.124.096.239.139a.958.958 0 0 0 .271.069s.627.453.872 1.526"/></g><g><path fill="#b5b5b5" d="M32.605 14.104c-.159 0-.628-.085-.628-.533v-.925l-.006.006v-1.715s-.026.004-.07-.003c-.046-.007-.101-.035-.101-.035s.005.104-.046.276c-.05.173-.286.532-.286.532l.172.186s.13.146.047.57a3.34 3.34 0 0 1-.137.5s.204-.055.286-.096c0 0-.082.172-.342.275-.07.028-.327.1-.327.1s.125.146.3.231a.995.995 0 0 1-.284.139c-.249.083-.506.073-.506.073s.207.265.429.32c.222.055.522.014.522.014s-.065.117-.122.283c-.057.165-.075.318-.075.318s.336.006.628-.132c.292-.137.38-.255.38-.255s-.03.248.007.455c.039.207.197.401.197.401s.126-.38.273-.574c.146-.192.331-.411.331-.411z"/></g><g><path fill="#b5b5b5" d="M31.402 4.987s-.044-.005-.153-.005c-.11 0-.224.047-.224.047a1.231 1.231 0 0 0-.657-.198c-.349.006-.515.265-.515.265s-.207-.143-.252-.408c-.067-.395.166-.585.404-.633a.746.746 0 0 1 .377.006s-.033-.066-.005-.155c.039-.12.148-.12.148-.12s.105.4.338.688zm-1.154-.692c0-.06-.044-.108-.098-.108-.056 0-.1.048-.1.108s.044.109.1.109z"/></g><g><path fill="#b5b5b5" d="M36.88 4.987zm0 0c.002 0 .306-.222.54-.513.232-.289.336-.688.336-.688s.11 0 .148.12a.221.221 0 0 1-.003.155s.137-.052.376-.006c.237.048.47.238.404.632a.668.668 0 0 1-.251.41s-.167-.26-.515-.265a1.227 1.227 0 0 0-.658.196s-.114-.046-.223-.046a1.46 1.46 0 0 0-.153.005zm1.253-.584c.055 0 .1-.048.1-.108s-.045-.108-.1-.108c-.056 0-.098.048-.098.108z"/></g><g><path fill="#b5b5b5" d="M35.666 14.104c.158 0 .63-.085.63-.533v-.925l.004.006v-1.715s.027.004.071-.003c.045-.007.1-.035.1-.035s-.005.104.046.276c.05.173.287.532.287.532l-.173.186s-.13.146-.047.57c.057.29.137.5.137.5s-.204-.055-.286-.096c0 0 .082.172.343.275.069.028.326.1.326.1s-.125.146-.3.231a.992.992 0 0 0 .286.139c.246.083.506.073.506.073s-.208.265-.43.32c-.224.055-.522.014-.522.014s.063.117.12.283c.058.165.077.318.077.318s-.337.006-.629-.132c-.291-.137-.382-.255-.382-.255s.033.248-.006.455c-.038.207-.196.401-.196.401s-.127-.38-.273-.574a11.836 11.836 0 0 0-.331-.411z"/></g><g><path fill="#b5b5b5" d="M32.529 4.343l.028.091c.015.04.03.087.045.135.076.249.085.481.085.481s-.25-.131-.427-.248a2.092 2.092 0 0 1-.407-.302l-.025-.02c.024.052.123.277.163.45a1.66 1.66 0 0 1-.562-.392c.047.108.155.345.264.52a2.135 2.135 0 0 1-.45-.31 2.214 2.214 0 0 1-.674-1.155c.117.018.696.11 1.136.11.503 0 1.205-.016 1.573-.138-.043.083-.192.305-.618.423.052.016.13.043.266.043.088 0 .18-.01.272-.033-.063.08-.228.262-.412.307.252.215.698.43 1.02.394a.828.828 0 0 1-.448.132zm-1.34-.056c.166-.181.533-.21.538-.21l.02-.001-.009-.02-.01-.028-.006-.008H31.644c-.287 0-.58-.049-.584-.049l-.018-.003.002.02c.01.135.051.233.127.3l.01.01.008-.011z"/></g><g><path fill="#b5b5b5" d="M34.167 6.437s.02.197.095.32c.076.125.223.298.223.298s.063-.049.158-.214c.095-.166.181-.352.181-.352s.01.062.067.237c.057.177.217.368.217.368s.06-.088.174-.263a.96.96 0 0 0 .123-.425s.03.145.076.3c.049.155.162.335.162.335s.029-.015.133-.221c.105-.208.096-.269.173-.61.076-.342.419-.777.419-.777l.008-.114c.018-.197.135-.369.135-.369l-.392.182.071-.297s-.124.066-.224.13c-.097.063-.475.251-.475.251.015-.28.057-.513.057-.513s-.123.096-.239.139c-.165.064-.271.069-.271.069s-.627.453-.871 1.526"/></g><g><path fill="#b5b5b5" d="M35.744 4.343c-.218.302-.473.488-.828.488a.83.83 0 0 1-.448-.132c.322.036.767-.18 1.02-.394-.184-.045-.35-.228-.412-.307.091.022.184.032.272.032.135 0 .214-.026.266-.042-.426-.119-.575-.34-.618-.423.368.122 1.07.137 1.573.137.44 0 1.019-.091 1.135-.11-.128.568-.437.941-.673 1.156a2.153 2.153 0 0 1-.45.31 4.67 4.67 0 0 0 .264-.52 1.65 1.65 0 0 1-.563.392c.041-.172.14-.397.164-.45a.377.377 0 0 1-.026.02 2.078 2.078 0 0 1-.406.303c-.178.116-.427.247-.427.247s.009-.232.086-.48a1.91 1.91 0 0 1 .044-.136l.027-.09zm.802-.266c.005 0 .373.029.538.21l.01.01.01-.01c.075-.066.116-.164.127-.3v-.02l-.018.004c-.002 0-.297.05-.584.05l-.068-.001h-.01l-.005.008-.011.027-.008.02.019.002z"/></g><g><path fill="#b5b5b5" d="M31.23 2.296c0 .08.059.144.133.144.072 0 .132-.064.132-.144 0-.08-.06-.145-.132-.145-.074 0-.133.065-.133.145"/></g><g><path fill="#b5b5b5" d="M31.279 2.11h.167s-.047-.124-.047-.155c.028 0 .142.05.142.05v-.181s-.114.051-.142.051c0-.031.047-.154.047-.154h-.167s.046.123.046.154a.788.788 0 0 1-.142-.051v.182s.114-.05.142-.05c0 .03-.046.153-.046.153"/></g><g><path fill="#b5b5b5" d="M31.718 2.261l-.156.837-.078-.005a2.33 2.33 0 0 0 .04-.312c0-.183-.091-.237-.161-.237s-.164.054-.164.237c0 .058.017.176.042.313a2.775 2.775 0 0 0-.078.007l-.157-.84c-.269.064-.487.185-.487.454 0 .26.224.72.267.804l.005-.002c.029.005.59.105 1.147.002h.001c.043-.084.267-.544.267-.804 0-.27-.218-.39-.488-.454"/></g><g><path fill="#b5b5b5" d="M36.763 2.296c0 .08.06.144.134.144.074 0 .133-.064.133-.144 0-.08-.06-.145-.133-.145-.074 0-.134.065-.134.145"/></g><g><path fill="#b5b5b5" d="M36.813 2.11h.169s-.05-.124-.05-.155c.03 0 .144.05.144.05v-.181s-.113.051-.143.051c0-.031.049-.154.049-.154h-.169s.047.123.047.154a.768.768 0 0 1-.142-.051v.182s.113-.05.142-.05c0 .03-.047.153-.047.153"/></g><g><path fill="#b5b5b5" d="M37.74 2.715c0-.27-.218-.39-.487-.454l-.157.84-.077-.007c.025-.137.042-.255.042-.313 0-.183-.094-.237-.164-.237s-.162.054-.162.237c0 .058.017.176.042.312l-.08.005-.156-.837c-.27.064-.486.185-.486.454 0 .26.223.72.264.804h.003a3.558 3.558 0 0 0 1.147-.002l.005.002c.043-.084.266-.544.266-.804"/></g><g><path fill="#b5b5b5" d="M34.991 2.745c.013-.026.41-.801.41-1.226 0-.405-.327-.584-.732-.68l-.24 1.288a2.973 2.973 0 0 0-.11-.008c.047-.24.081-.459.081-.557 0-.282-.152-.368-.264-.368-.115 0-.266.086-.266.368 0 .099.036.317.082.56a6.099 6.099 0 0 0-.11.008l-.24-1.291c-.405.096-.731.275-.731.68 0 .415.378 1.166.407 1.223v.004H34.991z"/></g><g><path fill="#b5b5b5" d="M27.846 5.94c.25.299.541.57.866.806-.307-.46-.207-1.034-.049-1.225.052-.062-.106-.12-.16-.175a5.05 5.05 0 0 1-.848-1.229c-.075.046-.17.192-.217.425-.044.22-.093.796.408 1.398"/></g><g><path fill="#b5b5b5" d="M29.161 7.29a6.244 6.244 0 0 0-1.025-.855 1.395 1.395 0 0 0-.765-.232c-.146 0-.251.024-.286.032.02.092.158.6.649.924.275.18.575.342.89.478a.45.45 0 0 1-.003-.044v-.006l.004-.005.018-.022c.112-.142.286-.212.303-.22a.683.683 0 0 1 .215-.05"/></g><g><path fill="#b5b5b5" d="M29.013 8.298a.917.917 0 0 1-.28-.297 1.082 1.082 0 0 1-.094-.26 4.724 4.724 0 0 0-.712-.21 1.368 1.368 0 0 0-.273-.028c-.395 0-.664.184-.719.224.045.075.31.47.856.585.306.064.636.097.978.1a.69.69 0 0 1 .244-.114"/></g><g><path fill="#b5b5b5" d="M28.467 8.89c-.001 0 .038-.264.198-.39-.112 0-.15-.018-.336-.01-.122.006-.245.004-.365.013a1.38 1.38 0 0 0-.94.483 1.344 1.344 0 0 0 .993.336 5.2 5.2 0 0 0 .735-.112c-.01-.006-.016-.013-.023-.018a.65.65 0 0 1-.262-.301"/></g><g><path fill="#b5b5b5" d="M29.094 9.32a.66.66 0 0 1-.228-.049c-.217.068-.424.15-.615.244-.495.242-.66.677-.687.757.042.018.197.079.415.079.19 0 .38-.045.563-.134.115-.057.252-.132.352-.194-.046-.423.134-.639.2-.704"/></g><g><path fill="#b5b5b5" d="M28.93 10.115l-.082.085c-.38.412-.387.86-.387.944 0 0 .513-.03.87-.416.097-.106.195-.223.29-.35a.837.837 0 0 1 .022-.266c-.07.042-.342.193-.713.003"/></g><g><path fill="#b5b5b5" d="M29.494 11.625c.072-.021.447-.16.686-.667.036-.078.071-.16.106-.248-.022.016-.082.05-.094.058-.033.011-.28.097-.346.097-.013 0-.162-.203-.201-.347l-.055.113c-.24.509-.12.919-.096.994"/></g><g><path fill="#b5b5b5" d="M30.95 11.064a.157.157 0 0 1-.063.023c-.02 0-.298-.088-.426-.57.004.017-.085.214-.107.295-.144.538.04.898.076.963.061-.032.368-.216.52-.71"/></g><g><path fill="#b5b5b5" d="M31.338 10.536a.774.774 0 0 1-.279.46c-.015.42.152.667.19.718.056-.04.353-.265.436-.807l.007-.054a.597.597 0 0 1-.127-.068 1.058 1.058 0 0 1-.227-.249"/></g><g><path fill="#b5b5b5" d="M31.931 9.054a.695.695 0 0 1-.082-.005c-.137.308-.462.484-.895.484-.494-.008-.994-.307-.994-.862 0-.374.123-.643.224-.858.073-.156.136-.292.136-.431 0-.407-.283-.635-.612-.9-.315-.255-.673-.543-.826-1.052-.061.04-.3.223-.3.637 0 .261.109.533.314.787.176.22.42.418.685.561l.014.006-.008.015-.007.014-.008.012-.01-.005a.814.814 0 0 0-.34-.079.62.62 0 0 0-.245.048.73.73 0 0 0-.269.193.769.769 0 0 0 .577.702l.012.004-.001.012-.001.004-.002.01-.001.013h-.013l-.047-.002a.672.672 0 0 0-.495.191c-.125.118-.168.267-.178.294a.69.69 0 0 0 .218.27.55.55 0 0 0 .344.11.78.78 0 0 0 .216-.032l.012-.003.005.013.005.011.003.014-.012.005a.7.7 0 0 0-.366.444.695.695 0 0 0 0 .349c.093.06.201.095.306.095h.014c.119 0 .3-.044.485-.253l.009-.01.01.008.01.008.009.009-.006.012a.786.786 0 0 0-.1.57c.036.149.11.252.144.29h.016a.594.594 0 0 0 .278-.071c.15-.078.27-.24.34-.45l.004-.013.012.004h.006l.007.003.013.003-.002.014a.797.797 0 0 0 .121.548c.092.131.206.19.228.2a.62.62 0 0 0 .235-.187c.077-.096.164-.265.154-.54l-.001-.013.011-.002.016-.002.012-.004.003.014c.066.253.196.383.29.445.135.091.27.126.364.14V9.051a.424.424 0 0 1-.04.002"/></g><g><path fill="#b5b5b5" d="M26.27 10.844l-.018-.01c.008.09-.01.127-.01.127s-.108.092-.242.09c.006.004.01.01.015.017a.05.05 0 0 1 .006.028l.209.05s.02-.004.047 0v.004c.01-.026.025-.069.031-.092l-.012-.003c-.007-.039.004-.075.012-.108 0 0-.008-.046-.038-.103"/></g><g><path fill="#b5b5b5" d="M26.236 10.384c.003-.046.012-.081.012-.081-.044-.017-.054-.044-.054-.044a.326.326 0 0 0 .042-.02.527.527 0 0 1-.056-.058l.009.044c-.028.02-.027.021-.055.04-.03.019-.03.019-.06.035l-.031-.029c.011.027.02.076.022.082.014-.012.027-.023.035-.033 0 0 .019.022.01.073 0 0 .036.008.074.026.035.017.054.035.054.035s-.004-.028-.002-.07"/></g><g><path fill="#b5b5b5" d="M31.193 11.836c-.018.106-.038.21-.06.31-.14.627-.509.867-.582.91l-.06.032-.037-.06c-.04-.06-.2-.34-.177-.789l-.006.02c-.206.64-.611.842-.69.877l-.063.027-.032-.066c-.038-.074-.202-.457-.054-1.027l-.077.146c-.356.652-.844.783-.939.802l-.068.014-.02-.073c-.024-.094-.122-.588.2-1.21a6.688 6.688 0 0 1-.205.249 1.66 1.66 0 0 1-.73.512l1.164 1.998c.048.086.044.232-.053.296-.097.065-.219.002-.267-.084l-1.172-2.15h-.011l-.032-.001-.062-.01-.003-.069c0-.02-.001-.06.003-.113l-.39-.716c-.11.025-.22.037-.33.037-.224 0-.372-.053-.413-.07l-.066-.027.02-.073c.008-.029.028-.093.067-.179l-.027-.007a.172.172 0 0 1-.12.012.187.187 0 0 1-.12-.097.17.17 0 0 1-.021-.053.529.529 0 0 1-.126-.094.764.764 0 0 1-.227-.546 1.106 1.106 0 0 1-.23-.124l-.06-.044.036-.066c.046-.085.29-.481.903-.723a3.568 3.568 0 0 0-.082.004h-.027l-.062.001c-.826 0-1.254-.445-1.331-.534l-.1-.117.103-.113c.058-.064.313-.319.804-.457-.708-.184-1.03-.639-1.093-.738l-.084-.133.12-.095c.071-.057.462-.337 1.15-.337h.07c-.885-.311-1.18-.946-1.23-1.07l-.03-.076.067-.032c.064-.033.302-.138.689-.138.273 0 .563.052.861.156.15.052.298.108.445.17a8.436 8.436 0 0 1-.838-.581c-.801-.628-.906-1.37-.919-1.511l-.007-.08.074-.01a.914.914 0 0 1 .11-.007c.206 0 .756.057 1.423.58.091.07.179.143.264.214-.13-.145-.257-.296-.385-.455-.448-.561-.67-1.321-.565-1.936.065-.382.247-.673.525-.84l.076-.047.032.09c.042.12.441 1.219 1.382 2.625a.998.998 0 0 0-.164.398c-.047.236-.099.854.43 1.49.057.068.115.133.175.197l-.006.012a1.452 1.452 0 0 0-.573-.12 1.31 1.31 0 0 0-.308.036l-.095.024.025.102c.023.105.17.642.692.987.104.068.21.133.32.196l-.06-.014a1.482 1.482 0 0 0-.29-.03c-.432 0-.72.203-.774.244l-.076.057.052.085c.042.07.255.387.674.554.19.062.3.074.3.074s-.172.038-.333.102c-.316.136-.5.347-.545.403l-.064.078.074.068a1.43 1.43 0 0 0 1.06.362l.134-.014.009.034c-.49.26-.661.7-.692.789l-.032.095.086.037c.06.027.224.087.451.087.196 0 .39-.044.574-.13.057-.026.13-.072.13-.072s-.039.05-.094.13a1.499 1.499 0 0 0-.223.765l.003.106.098-.006c.022-.001.546-.036.925-.438l.022.015a1.444 1.444 0 0 0-.01.835l.03.09.086-.025c.045-.013.424-.136.69-.61-.026.395.107.656.14.715l.044.08.078-.041c.058-.03.331-.19.507-.603.042.284.155.459.197.514zm-4.737-.482c.05.09.255-.028.274-.036.024-.017.2-.15.148-.242-.05-.09-.239-.069-.281-.063a.208.208 0 0 1-.005-.11c.041.016.1.015.142-.004l.002-.016a.37.37 0 0 0 .106-.022.067.067 0 0 0 .082.009.083.083 0 0 0 .022-.103.067.067 0 0 0-.094-.025c-.03.02-.04.06-.028.093l-.08-.01.004-.016c-.031-.028-.07-.034-.103-.04 0 0-.037-.034-.075-.093a.079.079 0 0 0 0-.025c.077.054.12.053.12.053s.31-.156.226-.495c-.086-.338-.349-.406-.349-.406.031.223-.043.426-.048.446-.008.026-.03.066-.013.098.012.02.045.026.067.066.02.035-.001.073-.03.093-.027.019-.056.024-.08.003l.004-.001c.042-.044.002-.074.002-.074-.02.064-.073.062-.099.018-.029-.055-.028-.17-.028-.17s.034-.037.096-.02c0 0-.016-.038-.057-.031 0 0 .026-.058.074-.046 0 0 .014-.02 0-.046-.016-.026-.044-.024-.076.008 0 0-.007-.024-.028-.022 0 0-.009.01-.033.029-.002-.003-.016-.076-.03-.1-.019-.034-.06-.025-.088-.006a.102.102 0 0 0-.043.053.205.205 0 0 0-.02-.06c-.029-.049-.09-.035-.132-.007-.043.028-.083.081-.055.131.007.014.023.03.039.05-.02-.006-.043 0-.062.013-.029.02-.056.056-.038.09.016.024.07.073.07.073a.23.23 0 0 1-.039.02c-.011.018.005.037.005.037-.039.016-.055.044-.042.07.016.025.039.022.039.022.011-.052.07-.052.07-.052a.065.065 0 0 0 0 .07c.016-.066.06-.086.06-.086s.096.054.127.108c.024.043.001.095-.059.086 0 0 .006.052.059.032l.003-.002c.007.03-.01.056-.036.074-.032.02-.073.023-.092-.012-.023-.04-.011-.074-.023-.096-.018-.032-.062-.028-.085-.033-.02-.003-.22-.025-.389-.157 0 0-.065.286.174.523a.363.363 0 0 0 .196.105l-.007.004a.057.057 0 0 0-.017.074c.015.026.046.034.07.018a.034.034 0 0 0 .014-.022l.233.058c.003.004.018.021.053.028.037.01.057-.002.058-.004l.037.011.002-.023-.036-.008s-.006-.01-.033-.018a.382.382 0 0 0 .064-.088l.014.005a.242.242 0 0 0 .067-.136c.022.006.06.024.09.056-.026.038-.13.21-.08.299zm1.19-.05c.062-.074.127-.144.194-.215a6.542 6.542 0 0 1-.535.353c-.086.051-.172.094-.26.13l.215.368c.07-.19.189-.41.385-.636z"/></g><g><path fill="#b5b5b5" d="M24.6 55.718c-.09-2.167.077-5.108.12-6.097.044-.61.088-.941.088-1.27 0-.283-.044-.706-.439-.706-.352 0-.44.517-.57 1.13-.133.706-.528 3.012-1.625 5.223-.395.801-.88 1.554-1.494 2.166-1.405 1.46-3.425 2.306-5.575 2.306-2.723 0-5.445-1.459-7.113-3.765-.308-.424-.572-.895-.835-1.365-1.01-1.883-2.24-4.942-2.24-10.826 0-3.2.352-7.013 1.845-10.26.527-1.177 1.23-2.307 1.888-3.107 1.493-1.788 3.293-2.542 5.62-2.542 3.908 0 5.84 2.165 6.763 3.766.834 1.459 1.36 4 1.624 5.601.087.706.176.894.571.894.175 0 .262 0 .351-.14.176-.284.13-.942.13-1.742.046-5.319.353-6.872.485-7.767.043-.376.087-.517.087-.658 0-.236-.131-.33-.352-.33-.087 0-.174 0-.22.047-.174.095-.35.47-.701 1.271-.132.33-.264.611-.483.706-.088.047-.176.047-.264.047-.175 0-.439-.047-.79-.235-.219-.094-.438-.236-.658-.377-1.932-1.176-3.337-2.023-6.895-2.023-1.053 0-2.15.14-3.204.376-2.284.518-4.742 1.788-6.85 4.377-.746.894-1.362 1.883-1.888 2.918C.791 35.69 0 38.75 0 42.42c0 5.413 1.888 9.46 4.128 12.05 1.668 1.929 5.136 4.941 10.8 4.941 1.845 0 4.787-.329 7.597-2.965.57.33.746.895 1.23 2.024.131.33.307.706.614.706.176 0 .33-.127.352-.612 0 0-.014-.712-.12-2.847"/></g><g><path fill="#b5b5b5" d="M61.013 52.46c-.25.429-.498.857-.79 1.243-1.58 2.098-4.158 3.426-6.734 3.426-1.604 0-3.123-.482-4.349-1.332V29.989c1.075-1 2.697-1.86 5.138-1.86 2.204 0 3.908.686 5.322 2.314.623.728 1.288 1.756 1.787 2.827 1.414 2.956 1.746 6.424 1.746 9.338 0 5.355-1.163 8.14-2.12 9.852zM40.717 57.13c-2.577 0-5.155-1.328-6.735-3.426-.292-.386-.541-.814-.79-1.243-.956-1.713-2.12-4.497-2.12-9.852 0-2.914.332-6.382 1.746-9.338.499-1.071 1.164-2.099 1.787-2.827 1.414-1.628 3.118-2.313 5.322-2.313 2.478 0 4.112.884 5.187 1.904v25.727zm25.202-22.874c-.5-.942-1.08-1.842-1.789-2.655-1.995-2.357-4.323-3.513-6.485-3.984a14.627 14.627 0 0 0-3.035-.343c-2.695 0-4.086.495-5.47 1.241v-.974c0-.39.086-1.218.35-1.522.306-.305.874-.305 1.268-.305 1.27-.043 1.925 0 1.925-.435 0-.392-.568-.392-.743-.392-1.401 0-1.837.088-5.294.088-1.444 0-2.844-.088-4.331-.088-.306 0-.657 0-.657.392 0 .304.302.347.652.347l.224.001c.306 0 1.531.087 1.925.217.394.131.525.393.611.74.044.305.044.609.044.957v1c-1.402-.761-2.792-1.267-5.52-1.267-.997 0-2.036.129-3.035.343-2.161.47-4.49 1.627-6.486 3.984-.706.813-1.287 1.713-1.787 2.655-1.123 2.142-1.87 4.926-1.87 8.268 0 4.926 1.787 8.61 3.907 10.965 1.581 1.756 4.865 4.498 10.228 4.498 1.17 0 2.809-.15 4.563-.967v1.11c0 .61-.044.809-.175 1.157-.282.67-1.358.7-2.145.7-.862 0-1.223.171-1.223.388 0 .348.393.391.568.391 1.137 0 1.926-.13 3.807-.13 4.2 0 4.157.13 6.081.13.35 0 .656-.043.656-.348s-.35-.347-.524-.347c-1.75-.088-2.582-.262-2.845-.609-.174-.219-.174-.523-.174-.784V57.04c1.735.799 3.354.946 4.514.946 5.363 0 8.648-2.742 10.227-4.498 2.121-2.356 3.909-6.04 3.909-10.965 0-3.342-.748-6.126-1.871-8.268z"/></g></g></g></svg>