<svg xmlns="http://www.w3.org/2000/svg" width="106" height="140" viewBox="0 0 106 140"><g><g><g><path fill="#b5b5b5" d="M13.001 104.135v-.157c0-.895-.21-1.199-.743-1.199s-.762.304-.762 1.199v2.803c0 .924.22 1.23.753 1.23.504 0 .752-.315.752-1.23v-.384h1.257v.306c0 1.288-.431 2.39-2 2.39-1.652 0-2.045-1.111-2.045-2.37v-2.588c0-1.661.696-2.437 2.063-2.437 1.285 0 1.982.776 1.982 2.085v.352z"/></g><g><path fill="#b5b5b5" d="M32.509 102.78c.542 0 .845.452.845 1.208v2.882c0 .747-.303 1.142-.845 1.142-.596 0-.872-.405-.872-1.142v-2.902zm-2.156 1.347v2.576c0 1.79.899 2.39 2.156 2.39 1.276 0 2.129-.582 2.129-2.39v-2.576c0-1.81-.853-2.43-2.129-2.43z"/></g><g><path fill="#b5b5b5" d="M52.037 105.72h.806c.467 0 .697.393.697 1.09 0 .797-.23 1.102-.697 1.102h-.806zm0-2.883h.677c.568 0 .763.306.763.904 0 .612-.23.965-.78.965h-.66zm-1.258 6.088h2.531c1.019 0 1.514-.876 1.514-2.105 0-.923-.328-1.426-.982-1.71.552-.118.89-.875.89-1.555 0-.904-.468-1.73-1.633-1.73h-2.32z"/></g><g><path fill="#b5b5b5" d="M74.415 101.824v1.083H72.13v1.652h2.084v1.08H72.13v2.204h2.285v1.082h-3.541v-7.1z"/></g><g><path fill="#b5b5b5" d="M92.997 108.925H91.74v-6.018h-1.559v-1.082h4.373v1.082h-1.558z"/></g><g><path fill="#b5b5b5" d="M14.065 115.16h.293c.596 0 .953.678.953 1.671 0 1.053-.338 1.642-.953 1.642h-.293zm-1.257 3.313h-.294c-.614 0-.954-.589-.954-1.642 0-.993.358-1.672.954-1.672h.294zm0-5.172v.806h-.366c-1.075 0-2.166.856-2.166 2.724 0 1.919 1.083 2.696 2.166 2.696h.366v.876h1.257v-.876h.367c1.082 0 2.165-.777 2.165-2.696 0-1.868-1.092-2.724-2.165-2.724h-.367v-.806z"/></g><g><path fill="#b5b5b5" d="M25.685 113.3v1.083h-2.284v1.653h2.082v1.08h-2.082v2.204h2.284v1.081h-3.54v-7.1z"/></g><g><path fill="#b5b5b5" d="M34.563 114.383v4.937h-1.86c.384-.886.595-1.692.595-3.324v-1.613zm-2.505-1.082v2.213c0 1.956-.164 2.763-.606 3.806h-.393v2.508h1.211v-1.426h2.743v1.426h1.211v-2.508h-.404v-6.02z"/></g><g><path fill="#b5b5b5" d="M45.267 113.3v1.083h-2.285v1.653h2.083v1.08h-2.083v2.204h2.285v1.081h-3.541v-7.1z"/></g><g><path fill="#b5b5b5" d="M52.08 114.353h.634c.633 0 .943.374.943 1.042 0 .68-.31 1.063-.943 1.063h-.634zm0 3.157h1.1c1.076 0 1.764-.965 1.764-2.135 0-1.14-.67-2.074-1.745-2.074h-2.375v7.1h1.256z"/></g><g><path fill="#b5b5b5" d="M62.068 117.5l.607-3.305.503 3.305zm-1.897 2.903h1.347l.395-1.85h1.42l.315 1.85h1.356l-1.467-7.102H61.85z"/></g><g><path fill="#b5b5b5" d="M71.552 119.32h1.661v-6.02h1.256v6.02h.404v2.518h-1.175V120.4h-3.402v-7.1h1.256z"/></g><g><path fill="#b5b5b5" d="M81.53 113.3v2.656c0 .846-.036 1.918-.153 2.507h.007l1.835-5.162h1.357v7.1h-1.174v-2.684c0-1.082.028-1.83.155-2.468h-.008l-1.836 5.153h-1.355V113.3z"/></g><g><path fill="#b5b5b5" d="M91.436 113.3v2.656c0 .846-.036 1.918-.156 2.507h.01l1.834-5.162h1.358v7.1H93.31v-2.684c0-1.082.026-1.83.154-2.468h-.01l-1.834 5.153h-1.356V113.3z"/></g><g><path fill="#b5b5b5" d="M12.858 126.97h.136c.491 0 .763.192.886.309.266.247.396.672.396 1.101 0 .652-.26 1.391-1.282 1.391h-.136zm-.614 2.801h-.136c-1.023 0-1.281-.74-1.281-1.39 0-.664.217-1.41 1.28-1.41h.137zm-.552-3.917v.299l.436.036.116.103v.343h-.149c-.307 0-.866.036-1.295.388-.193.153-.587.556-.587 1.357 0 .58.203.995.545 1.29.184.16.6.437 1.323.437h.163v.425l-.116.101-.436.037v.3h1.717v-.3l-.436-.037-.115-.101v-.425h.164c.722 0 1.137-.278 1.322-.438.341-.294.546-.708.546-1.289 0-.8-.396-1.204-.587-1.357-.43-.352-.99-.388-1.296-.388h-.15v-.343l.116-.103.436-.036v-.3z"/></g><g><path fill="#b5b5b5" d="M18.415 128.207h-.368l-.088-.469-.082-.059h-1.16v1.288h.813l.075-.058.054-.403h.321v1.208h-.32l-.055-.404-.075-.051h-.812v1.418h1.35l.096-.058.102-.6h.341v.952h-2.87v-.265l.334-.029.068-.058v-2.88l-.068-.06-.334-.027v-.264h2.678z"/></g><g><path fill="#b5b5b5" d="M20.087 130.677c.565-1.039.839-2.06.99-2.998h.817v2.998zm.115-3.289v.264h.45l.069.086a8.151 8.151 0 0 1-1.07 2.94h-.321v1.198h.354l.103-.826.067-.08h2.565l.068.08.102.826h.354v-1.199h-.416l-.054-.05v-2.889l.068-.06.335-.026v-.264z"/></g><g><path fill="#b5b5b5" d="M26.49 128.207h-.368l-.089-.469-.082-.059h-1.158v1.288h.81l.076-.058.055-.403h.32v1.208h-.32l-.055-.404-.076-.051h-.81v1.418h1.35l.095-.058.103-.6h.34v.952h-2.87v-.265l.333-.029.07-.058v-2.88l-.07-.06-.333-.027v-.264h2.679z"/></g><g><path fill="#b5b5b5" d="M28.557 127.695c.075-.008.238-.015.326-.015.465 0 .86.22.86.797 0 .586-.3.863-.866.863-.048 0-.129 0-.32-.022zm-1.016-.307v.263l.375.029.061.058v2.88l-.06.058-.343.031v.264h1.453v-.264h-.402l-.068-.09v-.991c.225.013.307.013.34.013 1.166 0 1.46-.752 1.46-1.199 0-.84-.758-1.052-1.555-1.052z"/></g><g><path fill="#b5b5b5" d="M32.315 127.995l.518 1.323h-1.03zm-.095-.652l-1.262 3.305-.321.06v.263h1.07v-.264l-.367-.03-.034-.06.374-1h1.261l.39 1-.028.06-.34.03v.264h1.329v-.264l-.328-.059-1.296-3.305z"/></g><g><path fill="#b5b5b5" d="M38.41 127.388v.263l-.335.028-.066.06v2.88l.066.057.336.03v.265h-1.405v-.265l.355-.03.066-.057v-2.94h-.748a9.396 9.396 0 0 1-.287 1.756c-.136.497-.463 1.594-1.145 1.594-.156 0-.382-.052-.382-.374 0-.147.075-.314.246-.387l.416.307c.15-.197.354-.525.553-1.309.067-.262.19-.818.245-1.528l-.069-.087h-.47v-.263z"/></g><g><path fill="#b5b5b5" d="M40.3 129.215c.109-.015.307-.043.47-.043.422 0 .832.219.832.715 0 .74-.545.783-.968.783-.096 0-.28-.015-.333-.015zm-.981-1.827v.263l.333.029.068.058v2.88l-.068.058-.333.031v.264h1.493c.687 0 .994-.213 1.082-.287.288-.226.35-.533.35-.774 0-.87-.859-1.037-1.392-1.037-.17 0-.395.02-.551.036v-1.17l.066-.059.355-.03v-.262z"/></g><g><path fill="#b5b5b5" d="M44.398 127.388v.263l-.354.028-.068.06v1.206h1.758v-1.207l-.068-.059-.354-.028v-.263h1.406v.263l-.335.028-.07.06v2.88l.07.057.335.03v.265h-1.406v-.265l.354-.03.068-.057v-1.382h-1.758v1.382l.068.057.354.03v.265h-1.404v-.265l.334-.03.069-.057v-2.88l-.069-.06-.334-.028v-.263z"/></g><g><path fill="#b5b5b5" d="M49.33 127.637c.64 0 1.13.591 1.13 1.55 0 1.212-.688 1.534-1.118 1.534-.217 0-.6-.066-.873-.49-.176-.285-.258-.672-.258-1.06zm.026-.337c-1.138 0-1.812.804-1.812 1.886 0 .607.224 1.053.51 1.35.245.258.655.521 1.28.521 1.045 0 1.795-.745 1.795-1.87 0-.658-.259-1.09-.504-1.353z"/></g><g><path fill="#b5b5b5" d="M54.593 128.44h-.355l-.102-.703-.06-.058H52.95v2.94l.068.088h.402v.263h-1.438v-.263l.328-.03.06-.058v-2.882l-.06-.058-.376-.027v-.264h2.659z"/></g><g><path fill="#b5b5b5" d="M57.253 127.637c.641 0 1.132.591 1.132 1.55 0 1.212-.687 1.534-1.117 1.534-.22 0-.602-.066-.873-.49-.179-.285-.26-.672-.26-1.06zm1.296.197a1.698 1.698 0 0 0-1.268-.534c-1.14 0-1.814.804-1.814 1.886 0 .607.226 1.053.511 1.35.246.258.654.521 1.283.521 1.043 0 1.791-.745 1.791-1.87 0-.658-.257-1.09-.502-1.353z"/></g><g><path fill="#b5b5b5" d="M65.442 130.802c-.421.16-.9.255-1.349.255-.554 0-1.207-.145-1.74-.76-.21-.24-.626-.826-.626-1.813 0-.898.348-1.527.742-1.9.321-.307.861-.607 1.693-.607.578 0 1.023.146 1.28.247v1.127h-.382l-.1-.665-.09-.13a1.537 1.537 0 0 0-.757-.192c-1.289 0-1.67 1.112-1.67 2.127 0 .688.185 1.205.43 1.536.217.294.62.643 1.329.643.246 0 .436-.044.598-.094l.11-.118.15-.811h.382z"/></g><g><path fill="#b5b5b5" d="M68.142 127.637c.643 0 1.135.591 1.135 1.55 0 1.212-.69 1.534-1.12 1.534-.22 0-.6-.066-.873-.49-.176-.285-.26-.672-.26-1.06zm.03-.337c-1.139 0-1.814.804-1.814 1.886 0 .607.224 1.053.51 1.35.246.258.654.521 1.283.521 1.043 0 1.792-.745 1.792-1.87 0-.658-.258-1.09-.504-1.353z"/></g><g><path fill="#b5b5b5" d="M71.753 129.245c.101-.014.306-.045.462-.045.56 0 .838.315.838.695 0 .68-.51.775-.968.775-.096 0-.277-.015-.332-.015zm-.982-1.857v.263l.332.029.069.058v2.88l-.069.058-.332.031v.264h1.493c.687 0 .994-.213 1.083-.287.211-.167.347-.416.347-.767 0-.848-.843-1.015-1.392-1.015-.168 0-.394.02-.55.036v-1.258h1.099l.08.058.088.468h.369v-.818z"/></g><g><path fill="#b5b5b5" d="M75.502 127.695c.076-.008.24-.015.327-.015.465 0 .86.22.86.797 0 .586-.3.863-.866.863-.049 0-.13 0-.321-.022zm-1.014-.307v.263l.373.029.061.058v2.88l-.061.058-.34.031v.264h1.452v-.264h-.404l-.067-.09v-.991c.225.013.306.013.34.013 1.167 0 1.46-.752 1.46-1.199 0-.84-.757-1.052-1.554-1.052z"/></g><g><path fill="#b5b5b5" d="M79.26 127.995l.517 1.323h-1.029zm-.095-.652l-1.262 3.305-.321.06v.263h1.07v-.264l-.368-.03-.032-.06.375-1h1.258l.39 1-.026.06-.342.03v.264h1.33v-.264l-.328-.059-1.294-3.305z"/></g><g><path fill="#b5b5b5" d="M83.393 127.388v.263l-.355.028-.069.06v1.206h1.76v-1.207l-.07-.059-.355-.028v-.263h1.406v.263l-.334.028-.067.06v2.88l.067.057.334.03v.265h-1.406v-.265l.355-.03.07-.057v-1.382h-1.76v1.382l.07.057.354.03v.265H81.99v-.265l.333-.03.069-.057v-2.88l-.07-.06-.332-.028v-.263z"/></g><g><path fill="#b5b5b5" d="M88.023 127.388v.263l-.355.028-.069.06v2.251l1.829-2.105v-.147l-.07-.059-.354-.028v-.263h1.406v.263l-.335.028-.07.06v2.88l.07.057.335.03v.265h-1.406v-.265l.355-.03.069-.057v-2.31l-1.814 2.09v.22l.069.057.353.03v.265h-1.417v-.265l.333-.03.07-.057v-2.88l-.07-.06-.333-.028v-.263z"/></g><g><path fill="#b5b5b5" d="M93.642 129.039a4.614 4.614 0 0 1-.37.016c-.803 0-.87-.388-.87-.667 0-.626.55-.708.948-.708h.292zm.981-1.651H93.03c-.335 0-.67.006-.956.247a.951.951 0 0 0-.326.734c0 .547.45.868.92.868v.014c-.28.052-.524.278-.741.702l-.341.665-.072.06-.298.03v.262h.928v-.234l.421-.9c.145-.328.382-.482.722-.482.117 0 .3.015.356.015v1.249l-.067.06-.355.03v.262h1.403v-.263l-.334-.03-.067-.06v-2.88l.067-.057.334-.028z"/></g><g><path fill="#b5b5b5" d="M11.446 134.54c.08-.008.223-.016.375-.016.286 0 .673.03.94.307.218.227.28.527.28.834 0 .804-.492 1.242-1.14 1.242-.054 0-.232 0-.455-.043zm-1.12 4.554h1.72v-.3l-.485-.037-.115-.102v-1.44c.08.007.353.029.518.029.92 0 1.758-.389 1.758-1.637 0-.813-.354-1.418-1.894-1.418h-1.555v.3l.442.035.117.103v4.028l-.117.102-.388.037z"/></g><g><path fill="#b5b5b5" d="M15.203 137.295c0-.928.422-1.536 1.118-1.536.64 0 1.132.592 1.132 1.551 0 1.213-.69 1.536-1.118 1.536-.218 0-.6-.067-.873-.492-.178-.285-.259-.672-.259-1.06zm2.413-1.337a1.688 1.688 0 0 0-1.268-.534c-1.138 0-1.814.804-1.814 1.886 0 .606.225 1.052.511 1.35.247.257.655.521 1.282.521 1.045 0 1.794-.746 1.794-1.87 0-.66-.26-1.091-.505-1.353z"/></g><g><path fill="#b5b5b5" d="M22.158 138.962c-.511.175-.954.19-1.11.19-.677 0-1.126-.263-1.377-.506a1.853 1.853 0 0 1-.56-1.357c0-.483.156-.982.539-1.339.239-.227.675-.505 1.397-.505.184 0 .566.023 1.11.198v.914h-.354l-.101-.57-.075-.081a1.525 1.525 0 0 0-.62-.124c-.464 0-1.228.278-1.228 1.507 0 1.349.94 1.526 1.356 1.526.198 0 .334-.021.471-.08l.075-.073.137-.621h.34z"/></g><g><path fill="#b5b5b5" d="M26.236 138.962a3.56 3.56 0 0 1-1.111.19c-.676 0-1.124-.263-1.378-.506a1.857 1.857 0 0 1-.559-1.357c0-.483.158-.982.54-1.339.237-.227.674-.505 1.397-.505.184 0 .566.023 1.111.198v.914h-.354l-.103-.57-.075-.081a1.525 1.525 0 0 0-.62-.124c-.464 0-1.227.278-1.227 1.507 0 1.349.94 1.526 1.357 1.526.196 0 .334-.021.47-.08l.074-.073.138-.621h.34z"/></g><g><path fill="#b5b5b5" d="M28.684 135.513v.261l-.354.03-.068.058v2.252l1.827-2.105v-.147l-.068-.058-.355-.03v-.261h1.404v.261l-.333.03-.068.058v2.88l.068.058.333.03v.264h-1.404v-.265l.355-.03.068-.057v-2.31l-1.814 2.09v.22l.068.058.356.03v.264H27.28v-.265l.334-.03.069-.057v-2.88l-.07-.058-.333-.03v-.261z"/></g><g><path fill="#b5b5b5" d="M33.439 133.896a.39.39 0 0 0-.272-.095c-.226 0-.342.154-.342.372 0 .541.689.696 1.132.696.442 0 1.132-.155 1.132-.696 0-.218-.117-.372-.342-.372a.386.386 0 0 0-.272.095v.555c-.096.073-.226.14-.518.14-.295 0-.424-.067-.518-.14zm-1.379 1.617v.262l.336.029.067.057v2.88l-.067.06-.336.03v.263h1.42v-.264l-.355-.03-.07-.058v-.22l1.814-2.09v2.31l-.067.058-.355.03v.264h1.404v-.264l-.333-.03-.069-.058v-2.88l.069-.058.333-.03v-.26h-1.404v.26l.355.03.067.057v.148l-1.826 2.104v-2.252l.068-.057.354-.03v-.26z"/></g><g><path fill="#b5b5b5" d="M39.806 138.962c-.51.175-.953.19-1.11.19-.675 0-1.126-.263-1.378-.506a1.86 1.86 0 0 1-.559-1.357c0-.483.157-.982.54-1.339.238-.227.673-.505 1.397-.505.184 0 .566.023 1.11.198v.914h-.353l-.103-.57-.074-.081a1.536 1.536 0 0 0-.621-.124c-.463 0-1.228.278-1.228 1.507 0 1.349.941 1.526 1.357 1.526.198 0 .333-.021.47-.08l.075-.073.137-.621h.34z"/></g><g><path fill="#b5b5b5" d="M42.256 135.513v.262l-.355.029-.068.057v1.207h.342c.258 0 .489-.123.619-.445l.239-.572c.164-.394.355-.627.675-.627.308 0 .443.19.443.41a.39.39 0 0 1-.191.35l-.503-.307c-.076.102-.097.16-.144.286l-.206.518c-.13.328-.307.438-.45.49v.014c.32.052.52.365.656.643l.442.914.068.087h.437v.265h-1.09v-.236l-.403-.897c-.245-.549-.354-.6-.607-.6h-.327v1.38l.069.06.354.028v.265H40.85v-.265l.336-.029.067-.058v-2.88l-.067-.058-.336-.03v-.26z"/></g><g><path fill="#b5b5b5" d="M45.584 137.295c0-.928.422-1.536 1.118-1.536.64 0 1.131.592 1.131 1.551 0 1.213-.688 1.536-1.118 1.536-.217 0-.599-.067-.872-.492-.177-.285-.259-.672-.259-1.06zm2.413-1.337a1.686 1.686 0 0 0-1.268-.534c-1.137 0-1.814.804-1.814 1.886 0 .606.225 1.052.512 1.35.246.257.654.521 1.281.521 1.043 0 1.795-.746 1.795-1.87 0-.66-.26-1.091-.506-1.353z"/></g><g><path fill="#b5b5b5" d="M50.787 133.896a.39.39 0 0 0-.272-.095c-.226 0-.342.154-.342.372 0 .541.689.696 1.132.696.444 0 1.133-.155 1.133-.696 0-.218-.118-.372-.343-.372a.385.385 0 0 0-.271.095v.555c-.097.073-.226.14-.519.14-.293 0-.421-.067-.518-.14zm-1.378 1.617v.262l.336.029.067.057v2.88l-.067.06-.336.03v.263h1.42v-.264l-.356-.03-.068-.058v-.22l1.814-2.09v2.31l-.069.058-.354.03v.264h1.403v-.264l-.333-.03-.068-.058v-2.88l.068-.058.333-.03v-.26h-1.403v.26l.354.03.069.057v.148l-1.828 2.104v-2.252l.068-.057.355-.03v-.26z"/></g><g><path fill="#b5b5b5" d="M58.616 135.094h.134c.491 0 .766.192.887.309.266.246.396.672.396 1.102 0 .65-.258 1.39-1.283 1.39h-.134zm-.614 2.8h-.138c-1.021 0-1.281-.738-1.281-1.389 0-.665.22-1.41 1.28-1.41h.139zm-.555-3.917v.3l.439.035.116.103v.344h-.15c-.31 0-.865.035-1.295.387-.191.154-.587.555-.587 1.36 0 .578.206.993.546 1.286.185.16.599.439 1.32.439h.166v.424l-.116.102-.439.037v.3h1.722v-.3l-.439-.037-.114-.102v-.424h.163c.722 0 1.138-.279 1.323-.439.34-.293.545-.708.545-1.287 0-.804-.395-1.205-.586-1.359-.43-.352-.99-.387-1.296-.387h-.149v-.344l.114-.103.439-.035v-.3z"/></g><g><path fill="#b5b5b5" d="M64.255 136.33h-.367l-.09-.468-.083-.058h-1.158v1.287h.811l.076-.059.054-.402h.32v1.206h-.32l-.054-.402-.076-.052h-.811v1.419h1.351l.096-.06.101-.599h.34v.952h-2.868v-.265l.333-.028.069-.06v-2.88l-.07-.057-.332-.03v-.261h2.678z"/></g><g><path fill="#b5b5b5" d="M66.015 138.801c.567-1.038.84-2.062.99-2.997h.818v2.997zm.117-3.288v.263h.45l.068.085a8.216 8.216 0 0 1-1.071 2.94h-.32V140h.354l.1-.827.07-.08h2.563l.069.08.101.827h.356v-1.199h-.417l-.055-.052v-2.888l.07-.057.332-.028v-.263z"/></g><g><path fill="#b5b5b5" d="M72.507 136.33h-.369l-.087-.468-.083-.058h-1.159v1.287h.812l.073-.059.057-.402h.32v1.206h-.32l-.057-.402-.073-.052h-.812v1.419h1.351l.096-.06.101-.599h.341v.952h-2.871v-.265l.335-.028.067-.06v-2.88l-.067-.057-.335-.03v-.261h2.68z"/></g><g><path fill="#b5b5b5" d="M74.656 135.819c.073-.009.237-.015.326-.015.466 0 .859.22.859.796 0 .585-.3.863-.865.863-.048 0-.13 0-.32-.022zm-1.017-.306v.262l.376.029.06.057v2.88l-.06.06-.34.03v.263h1.45v-.264h-.402l-.067-.088v-.993c.224.014.305.014.341.014 1.165 0 1.457-.753 1.457-1.2 0-.839-.757-1.05-1.553-1.05z"/></g><g><path fill="#b5b5b5" d="M78.495 136.119l.517 1.322h-1.028zm-.096-.652l-1.263 3.304-.319.06v.263h1.071v-.264l-.369-.03-.032-.058.373-1.002h1.26l.392 1.002-.03.058-.34.03v.264h1.329v-.264l-.326-.059-1.295-3.304z"/></g><g><path fill="#b5b5b5" d="M82.71 135.513v.261l-.356.03-.069.058v2.938h1.707v-2.938l-.07-.058-.354-.03v-.261h1.404v.261l-.333.03-.069.058v2.887l.055.05h.416v1.2h-.355l-.102-.826-.067-.08h-3.212v-.264l.333-.03.07-.057v-2.88l-.07-.058-.333-.03v-.261z"/></g><g><path fill="#b5b5b5" d="M87.4 135.513v.261l-.352.03-.07.058v2.252l1.829-2.105v-.147l-.07-.058-.354-.03v-.261h1.404v.261l-.333.03-.069.058v2.88l.069.058.333.03v.264h-1.404v-.265l.355-.03.069-.057v-2.31l-1.814 2.09v.22l.067.058.355.03v.264h-1.418v-.265l.334-.03.067-.057v-2.88l-.067-.058-.334-.03v-.261z"/></g><g><path fill="#b5b5b5" d="M92.181 135.513v.261l-.355.03-.067.058v2.252l1.828-2.105v-.147l-.069-.058-.355-.03v-.261h1.404v.261l-.335.03-.067.058v2.88l.067.058.335.03v.264h-1.404v-.265l.355-.03.07-.057v-2.31l-1.815 2.09v.22l.07.058.352.03v.264h-1.418v-.265l.333-.03.069-.057v-2.88l-.07-.058-.332-.03v-.261z"/></g><g><path fill="#b5b5b5" d="M51.064 18.147c.069-.017.456-.107.456-.57 0-.195-.095-.296-.095-.478 0-.149.08-.23.178-.23.063 0 .123.012.181.034a.693.693 0 0 1 .088-.112.736.736 0 0 0-.526-.255c-.22 0-.428.15-.428.462 0 .344.301.475.301.79a.545.545 0 0 1-.155.359"/></g><g><path fill="#b5b5b5" d="M51.354 15.784c.057.093.176.115.33.101.147-.011.266-.006.354.123.095.134.233.153.407.13l.022-.086a.875.875 0 0 0-.015-.437 1.682 1.682 0 0 1-.053-.335.634.634 0 0 1-.333-.468c-.01-.049-.013-.095-.018-.135-.578.158-.95.815-.95.815.205.02.176.168.256.292"/></g><g><path fill="#b5b5b5" d="M51.57 20.288a.817.817 0 0 1-.214.032.341.341 0 0 1-.343-.348c0-.198.09-.251.09-.438 0-.235-.145-.26-.145-.26s.065.1.065.19c0 .224-.21.326-.21.676 0 .428.35.655.63.655.016 0 .13-.004.213-.025a.867.867 0 0 1-.098-.378c0-.034.004-.07.011-.104"/></g><g><path fill="#b5b5b5" d="M52.967 17.319a2.32 2.32 0 0 0-.22-.42.658.658 0 0 0-.13-.125.457.457 0 0 1-.16-.181c-.014 0-.026.004-.04.007a.585.585 0 0 0-.053.106 1.282 1.282 0 0 0-.084.475c0 .159.024.345.088.562a2.332 2.332 0 0 0 .77.05.593.593 0 0 0-.036-.191c-.047-.08-.09-.18-.135-.283"/></g><g><path fill="#b5b5b5" d="M53.18 18.059a.9.9 0 0 1-.035-.17c-.123.01-.231.01-.302.01-.165 0-.334-.03-.49-.062l-.052-.01-.016-.054a2.12 2.12 0 0 1-.093-.591c0-.237.05-.41.093-.514.004-.014.013-.028.018-.04a.829.829 0 0 0-.591.815c0 .224.144.595.144.595s.028.22-.234.495c0 0-.19.045-.18.315 0 0-.05.4-.139.674-.03.095.053.186.053.186s-.03.078-.022.162c0 0-.039.081-.03.134 0 0 .064.065.211.065.099 0 .172-.049.172-.049s.004-.128-.074-.18c0 0 0-.086-.069-.162 0 0-.079-.204.112-.756.008-.024.022-.073.17-.16.215-.127.653-.272.782-.684 0 0 .346.097.628.127a1.553 1.553 0 0 1-.056-.146"/></g><g><path fill="#b5b5b5" d="M52.675 18.877c.258-.172.37-.406.427-.595a5.514 5.514 0 0 1-.442-.091.999.999 0 0 1-.17.27c.011.034.016.066.017.102a.404.404 0 0 1-.112.254c-.107.077-.058.153-.002.233.048.067.168.266.259.55.073 0 .176 0 .247.01-.096-.17-.187-.377-.223-.446-.077-.15-.062-.247-.001-.287"/></g><g><path fill="#b5b5b5" d="M53.619 17.71c.081-.021.16-.05.227-.087a2.705 2.705 0 0 0-.104-.51c-.072-.253-.196-.55-.393-.767l-.01.029.014.029c.183.392.266.96.266 1.061v.066a2.551 2.551 0 0 0 0 .179"/></g><g><path fill="#b5b5b5" d="M55.644 18.063c0-.11-.051-.107-.051-.187 0-.047.006-.074.006-.11 0-.031-.028-.104-.093-.176a9.411 9.411 0 0 1-.29-.352s-.03-.118-.243-.053c-.228.074-.443.105-.443.105s.016-.073.016-.246c0-.414-.176-.467-.176-.825 0-.136.06-.306.162-.388.01.057.037.186.09.3 0 0-.013.195 0 .245 0 0-.051.094-.013.145.04.05.077.04.077.04s.019.043.112.064c.094.019.143-.128.182-.241.04-.115.074-.264.074-.264s.24-.307.11-.698l.202-.162s-.087-.064-.235-.034c-.021-.046-.068-.095-.167-.119.007-.103-.114-.16-.257-.111-.05-.122-.26-.04-.315.019 0 0-.087-.162-.302.07-.028-.038-.167-.083-.28.167-.067-.037-.187.015-.217.22-.033-.006-.138.04-.127.273-.038 0-.107.038-.075.271 0 0-.064.026-.032.204l.053.059c.22.247.347.572.414.803.036.122.066.25.09.39.007.057.016.109.018.143l.005.065-.052.028a1.48 1.48 0 0 1-.264.1c.004.019.004.039.006.058.002.008.008.025.008.04.01.035.02.085.029.14.004.03.02.075.034.128.11-.023.162-.044.162-.044s.051.224.29.561c0 0 .22.703.206.928-.007.078.058.128.058.128s-.058.126-.03.235a.374.374 0 0 1-.224.058.17.17 0 0 1-.143-.111c.069-.06.04-.09.04-.161 0-.07-.016-.13-.018-.14-.015-.07-.039-.101-.039-.203 0-.06-.006-.122-.038-.122-.017 0-.043.01-.066.018-.017-.051-.058-.09-.107-.096l-.152-.5-1.358-4.454c.025-.008.09-.036.06-.15-.017-.058-.061-.135-.117-.105l-.015.008-.123-.402-.083.027.136.444c-.027.052-.009.108-.006.142.006.071.017.144.017.144s-.05.136.002.413a.53.53 0 0 0 .325.42l.008.028c.003.049.007.17.053.348.058.221.04.385.016.493a1.216 1.216 0 0 0-.056.292c0 .293.177.275.318.465.138.185.25.516.361.715.059.107.037.324.085.476.066.211.168.32.168.392 0 .06-.034.179-.034.218 0 .032.062.075.152.081l.19.624a.09.09 0 0 0-.06-.023c-.041 0-.071.03-.076.09.015-.023.03-.03.04-.032.005.037.043.069.079.07a.198.198 0 0 1 .083.078l.056.19c-.026.017-.079-.017-.079-.05a.188.188 0 0 0-.006-.06c.014 0 .02.006.029.009-.002-.016-.013-.038-.037-.038-.035 0-.054.055-.054.087 0 .086.083.16.1.186-.03-.014-.046-.045-.105-.045-.044 0-.1.016-.174.06.01-.018.062-.078.062-.14 0-.013-.003-.032-.015-.04.002-.017.006-.033.006-.048 0-.069-.038-.125-.039-.154-.008-.036-.008-.2-.085-.2a.111.111 0 0 0-.05.01c-.026-.047-.052-.07-.082-.07-.049 0-.074.033-.077.074a.05.05 0 0 1 .042-.025s.025.069.061.096c-.01.023-.029.03-.067.03-.018-.018-.038-.068-.07-.068a.063.063 0 0 0-.057.072c-.024.014-.018.062-.001.079 0-.026.015-.057.036-.047.024.049.179.118.179.17 0 .013-.004.028-.004.043 0 .01.002.019.008.03a.698.698 0 0 1-.045.135 1.853 1.853 0 0 0-.745-.144c-.493.01-.943.315-.943.724 0 .303.255.76.764.76.473 0 .794-.192.794-.545 0-.12-.05-.22-.133-.289a.544.544 0 0 0-.337-.1c-.07 0-.15.009-.243.03a.299.299 0 0 0-.03.126.22.22 0 0 0 .066.16l-.062.066a.325.325 0 0 1-.093-.224l.001-.004c0-.11.05-.184.06-.201l.006-.009.007-.003c.118-.026.21-.036.288-.036.272-.001.518.137.553.423.044.04.08.114.08.189 0 .102-.069.221-.224.295-.006.247-.26.353-.435.385.153.06.31.086.491.072.868-.065 1.155-.425 1.29-.814a.6.6 0 0 0 .114-.03.37.37 0 0 1-.034.119c.06-.022.12-.09.153-.161.009-.002.02-.007.027-.01a.483.483 0 0 1-.095.303c.154-.075.219-.245.245-.404.019-.01.081-.06.102-.06.038 0 .07.013.102.013.064 0 .143-.112.155-.164.01-.03-.008-.05-.022-.052.263-.221.217-.324.284-.443a.351.351 0 0 0 .063-.169c0-.043-.016-.065-.046-.08-.03-.091-.08-.111-.128-.111-.027 0-.05.006-.067.01.008.032.014.06.014.089 0 .085-.045.15-.132.189.02-.03.034-.059.034-.084 0-.034-.032-.042-.032-.095 0-.093.081-.27.207-.302-.251 0-.343.35-.404.537a.4.4 0 0 1-.124.03c.068-.17.024-.294.19-.382-.094-.066-.207-.017-.273.07-.032.043-.08.15-.158.244l-.029-.016c-.013-.183-.113-.341-.184-.78 0 0 .039-.138-.067-.372 0 0 .006-.314-.083-.687 0 0 .06-.019.117-.081 0 0 .122.091.589-.368 0 0 .02-.022.083 0 0 0 .215.136.32.368 0 0-.06.095-.02.18 0 0-.11.068-.067.164.057.105.146.192.23.214.067.016.076.004.057-.151 0 0 .032-.069.032-.14"/></g><g><path fill="#b5b5b5" d="M52.47 14.631l1.25 4.108c.11.007.212.006.256.006.097 0 .093-.07.043-.082a1.112 1.112 0 0 1-.301-.213 1.837 1.837 0 0 1-.135-.392c-.015-.08-.037-.15-.039-.18-.02-.161-.012-.319-.012-.413 0-.083-.09-.711-.291-1.079l.037-.121-.006-.027c-.026-.136-.002-.211.028-.256-.013-.125.004-.215.049-.272l.03-.03c.006-.126.043-.198.078-.237a.205.205 0 0 1 .062-.05c-.014-.221-.085-.422-.23-.535-.005-.067-.015-.113-.015-.113.142-.05.199-.247.199-.247.071.013.09-.202.076-.267-.044-.174-.24-.245-.414-.168-.135.06-.217.263-.25.396a.116.116 0 0 0 .083.149.302.302 0 0 1-.038.075c-.182-.05-.311-.048-.46-.052"/></g><g><path fill="#b5b5b5" d="M53.453 1.308c0 .186-.138.336-.312.336-.17 0-.31-.15-.31-.336 0-.187.14-.337.31-.337.174 0 .312.15.312.337"/></g><g><path fill="#b5b5b5" d="M53.227.36c0-.072.107-.36.107-.36h-.388s.109.288.109.36c-.067 0-.33-.12-.33-.12v.425s.263-.12.33-.12c0 .074-.11.363-.11.363h.389s-.107-.289-.107-.363c.065 0 .333.12.333.12V.24s-.268.12-.333.12"/></g><g><path fill="#b5b5b5" d="M47.291 5.493a3.376 3.376 0 0 1-.854-.222c-.645-.268-.972-.693-.972-1.262 0-.312.095-.599.188-.874.09-.27.175-.522.175-.79a1.23 1.23 0 0 0-.133-.531c.122-.04.241-.058.367-.058.094 0 .288.016.55.118.04.102.063.22.063.33 0 .34-.156.702-.306 1.052-.143.327-.276.639-.276.916 0 .628.875 1.15 1.198 1.321"/></g><g><path fill="#b5b5b5" d="M43.896 5.893c-.296-.224-.444-.512-.444-.856 0-.2.047-.415.144-.639l-.038-.023a1.072 1.072 0 0 1-.306.272c-.159.107-.313.208-.399.493-.087-.278.012-.43.125-.604.098-.151.209-.321.209-.602 0-.162-.096-.306-.2-.46-.129-.19-.26-.388-.246-.647l.091-.066c.01-.007.285-.19.813-.225a1.289 1.289 0 0 0-.005.11c0 .28.115.53.232.774.111.245.233.5.233.785 0 .303-.084.476-.167.645-.073.151-.144.294-.144.513 0 .151.036.326.102.53"/></g><g><path fill="#b5b5b5" d="M42.813 2.554c.08-.109.302-.31.854-.406.334-.059.569-.346.796-.627.224-.27.433-.529.708-.529.114 0 .201.063.314.142.086.06.186.13.316.184.294.119.472.217.573.282a1.427 1.427 0 0 0-.312-.036c-.405 0-.688.173-.985.356-.336.204-.684.417-1.247.417-.544 0-.876.143-1.017.217"/></g><g><path fill="#b5b5b5" d="M48.338 7.305c-.423-.276-.88-.67-.987-1.127a.284.284 0 0 1 .04-.214.16.16 0 0 1 .13-.07c.194.638.53 1.105.817 1.411"/></g><g><path fill="#b5b5b5" d="M47.611 9.066a1.06 1.06 0 0 1 .227-.758c.204-.249.534-.39.896-.39.357 0 .595.115.769.376a3.795 3.795 0 0 0-.22-.007c-.661 0-1.268.282-1.672.78"/></g><g><path fill="#b5b5b5" d="M49.822 5.57c.272-.11.98-.361 1.956-1.136.48 0 .498-.004.974-.004-.871 1.188-2.552 1.131-2.93 1.14"/></g><g><path fill="#b5b5b5" d="M56.437 5.57c-.272-.11-.98-.361-1.956-1.136-.479 0-.498-.004-.972-.004.87 1.188 2.55 1.131 2.928 1.14"/></g><g><path fill="#b5b5b5" d="M46.775 8.788c-.737 0-.95-.488-1.004-.673.213.185.435.278.67.278.252 0 .485-.093.708-.18.22-.087.428-.17.65-.17.028 0 .06.002.09.006-.158.12-.28.295-.352.498-.136.118-.523.24-.762.24"/></g><g><path fill="#b5b5b5" d="M53.141 12.676l-.01-.023c-.048-.11-.116-.215-.177-.319-.134-.21-.26-.411-.26-.66 0-.448.184-.726.36-.994.027-.041.054-.08.079-.12l.008-.012.01.012.076.117c.177.27.36.549.36.998 0 .248-.124.449-.256.66a2.61 2.61 0 0 0-.18.318z"/></g><g><path fill="#b5b5b5" d="M52.09 12.646l-.009-.02c-.043-.089-.087-.168-.127-.244-.128-.23-.238-.429-.238-.747 0-.375.16-.664.399-.984l.01-.011.008.012c.05.088.102.168.154.244.147.216.284.418.284.742 0 .27-.13.463-.27.666-.068.1-.142.206-.202.322z"/></g><g><path fill="#b5b5b5" d="M51.042 12.67l-.008-.028c-.027-.13-.079-.26-.125-.387-.076-.207-.157-.422-.157-.635 0-.375.16-.58.379-.865l.015-.023.02-.023.012-.014.006.016c.025.049.06.104.092.158.133.212.294.474.294.72 0 .34-.137.52-.295.728-.076.1-.153.201-.22.328z"/></g><g><path fill="#b5b5b5" d="M46.775 24.684c.003-.028.004-.059.003-.088a.413.413 0 0 0-.318-.385c.312-.241.876-.68 1.424-1.145.108.018.218.024.323.024.146 0 .288-.015.418-.044a2.426 2.426 0 0 0-.121.714c-.602.407-1.18.719-1.73.924"/></g><g><path fill="#b5b5b5" d="M59.643 24.733c-.587-.204-1.213-.531-1.864-.973a2.291 2.291 0 0 0-.122-.713 2.136 2.136 0 0 0 .74.019c.485.41.98.799 1.315 1.058a.58.58 0 0 0-.117.36c0 .09.015.176.048.25"/></g><g><path fill="#b5b5b5" d="M63.387 24.098c-.122-.767-.667-1.376-1.363-1.535.005.5.01.976.013 1.459.01 0 .019 0 .027.003.06 0 .117.002.177.004.38.01.758.033 1.146.069"/></g><g><path fill="#b5b5b5" d="M61.3 22.562c-.7.16-1.243.769-1.365 1.536.39-.035.77-.059 1.155-.069.055-.001.11-.004.165-.004.011-.003.02-.003.028-.003.008-.483.01-.96.017-1.46"/></g><g><path fill="#b5b5b5" d="M63.488 24.522c0 .114-.085.205-.189.205-.103 0-.188-.091-.188-.205 0-.114.085-.206.188-.206.104 0 .19.092.19.206"/></g><g><path fill="#b5b5b5" d="M61.849 24.428c0 .111-.083.205-.19.205-.103 0-.186-.094-.186-.205 0-.114.083-.206.187-.206.106 0 .189.092.189.206"/></g><g><path fill="#b5b5b5" d="M61.849 23.279c0 .114-.083.205-.19.205-.103 0-.186-.09-.186-.205 0-.113.083-.204.187-.204.106 0 .189.09.189.204"/></g><g><path fill="#b5b5b5" d="M61.849 23.854c0 .11-.083.202-.19.202-.103 0-.186-.091-.186-.202 0-.114.083-.205.187-.205.106 0 .189.091.189.205"/></g><g><path fill="#b5b5b5" d="M62.02 24.437c0 .115.082.205.187.205.104 0 .19-.09.19-.205 0-.114-.086-.205-.19-.205-.105 0-.188.091-.188.205"/></g><g><path fill="#b5b5b5" d="M62.565 24.469c0 .11.085.205.19.205.104 0 .188-.094.188-.205 0-.115-.084-.205-.187-.205-.106 0-.191.09-.191.205"/></g><g><path fill="#b5b5b5" d="M59.836 24.522c0 .114.083.205.187.205.102 0 .187-.091.187-.205 0-.114-.085-.206-.187-.206-.104 0-.187.092-.187.206"/></g><g><path fill="#b5b5b5" d="M61.303 24.437c0 .115-.086.205-.189.205-.105 0-.189-.09-.189-.205 0-.114.084-.205.19-.205.102 0 .188.091.188.205"/></g><g><path fill="#b5b5b5" d="M60.755 24.469c0 .11-.085.205-.189.205-.1 0-.186-.094-.186-.205 0-.115.085-.205.186-.205.104 0 .189.09.189.205"/></g><g><path fill="#b5b5b5" d="M61.849 22.706c0 .113-.083.204-.19.204-.103 0-.186-.091-.186-.204 0-.114.083-.204.187-.204.106 0 .189.09.189.204"/></g><g><path fill="#b5b5b5" d="M61.766 21.623c0-.086.13-.435.13-.435h-.472s.132.349.132.435c-.079 0-.399-.142-.399-.142v.511s.32-.142.399-.142c0 .087-.132.436-.132.436h.472s-.13-.35-.13-.436c.08 0 .399.142.399.142v-.511s-.318.142-.4.142"/></g><g><path fill="#b5b5b5" d="M62.573 25.518c-.049-.111-.113-.2-.113-.2l-.094-.121s.077-.068.19-.068c.139 0 .27.051.379.146a.342.342 0 0 1 .217.154c.09-.154.158-.326.202-.504a15.757 15.757 0 0 0-1.694-.09c-.596 0-1.167.032-1.69.09.079.32.233.608.44.841a.493.493 0 0 1 .315-.258.555.555 0 0 1 .4-.193c.121-.002.17.063.17.063l-.082.121s-.088.138-.123.273a.526.526 0 0 1-.041.44c.168.07.355.112.544.12a.588.588 0 0 1 .176-.646c.035-.144.025-.312.025-.314l-.01-.135a.279.279 0 0 1 .176.03.71.71 0 0 1 .279.486.694.694 0 0 1 .127.38c0 .015 0 .028-.002.042.081-.04.16-.088.235-.138a.67.67 0 0 1-.077-.227c-.01-.095.01-.2.051-.292"/></g><g><path fill="#b5b5b5" d="M61.962 26.475l-.016-.001a.226.226 0 0 1-.184-.102.437.437 0 0 1 .113-.59l.008-.007.002-.008a1.08 1.08 0 0 0 .043-.343c.132.114.17.268.185.377v.012l.004.004a.58.58 0 0 1 .117.306c-.012.22-.115.352-.272.352"/></g><g><path fill="#b5b5b5" d="M51.994 24.653c-.42 0-.597-.231-.646-.31.478-.143.912-.585 1.077-1.093.051.134.11.268.173.399a2.568 2.568 0 0 0-.102.366h-.001c-.02.127-.023.279-.003.439a.725.725 0 0 1-.498.2"/></g><g><path fill="#b5b5b5" d="M48.207 22.902c-.25 0-.5-.052-.74-.148.049-.113.28-.601.66-.88a1.515 1.515 0 0 0 .693.17l.119-.002a2.52 2.52 0 0 0-.185.73l-.001.037c-.07.028-.264.093-.546.093"/></g><g><path fill="#b5b5b5" d="M48.727 24.331c-.154-.747.081-1.28.13-1.388l.035.005c.03.002.061.004.094.004.17 0 .382-.035.6-.097-.026.131-.04.273-.038.397.004.175.029.342.073.499-.308.367-.786.545-.894.58"/></g><g><path fill="#b5b5b5" d="M50.089 24.229c-.09-.087-.354-.397-.366-.98a1.673 1.673 0 0 1 .058-.457c.242-.09.447-.2.578-.318-.024.223 0 .448.078.667-.214.403-.323.938-.348 1.088"/></g><g><path fill="#b5b5b5" d="M52.043 23.61c-.136-.379-.36-.718-.617-.939.177-.283.374-.524.585-.714h.214a1.824 1.824 0 0 0-.024.296c0 .193.042.436.123.704l-.048.176a1.55 1.55 0 0 1-.233.476"/></g><g><path fill="#b5b5b5" d="M49.71 13.905a.975.975 0 0 1-.836-.449.917.917 0 0 1-.07-.788c.088.1.407.419.89.419.46 0 .822-.25 1.08-.746.113.302.114.6.006.866h-1.007V13.903l-.063.002"/></g><g><path fill="#b5b5b5" d="M53.141 24.183c-.342-.386-.766-1.356-.766-1.93 0-.088.009-.175.024-.26.452.16.72.758.724.763l.018.046.02-.046c.002-.005.273-.602.724-.762.016.084.02.171.02.259 0 .574-.422 1.544-.764 1.93"/></g><g><path fill="#b5b5b5" d="M53.141 25.379c-.109-.078-.204-.181-.328-.422-.11-.213-.194-.616-.146-.904.014-.065.027-.126.045-.184.108.195.22.356.322.468l.093.098.014.018.017-.018.092-.098c.103-.113.213-.273.322-.468.016.058.03.119.043.184.05.288-.032.69-.145.904-.123.24-.218.344-.329.422"/></g><g><path fill="#b5b5b5" d="M60.733 26.29a.254.254 0 0 1-.088-.019c-.054-.019-.097-.068-.126-.134a.406.406 0 0 1 .006-.3.348.348 0 0 1 .254-.194h.01l.009-.009a.43.43 0 0 1 .282-.168.832.832 0 0 0-.124.312l-.003.009.005.004c.032.09.04.183.016.258-.018.055-.09.24-.24.24"/></g><g><path fill="#b5b5b5" d="M62.91 26.088c-.142 0-.237-.15-.256-.3a.425.425 0 0 1 .06-.25l.008-.012-.005-.012a1.064 1.064 0 0 0-.124-.24c.104.008.197.052.28.13l.007.01h.01c.164.005.241.255.245.343.015.144-.055.308-.192.33l-.033.001"/></g><g><path fill="#b5b5b5" d="M49.527 28.91c0-.803.856-1.64 1.613-2.381.17-.168.33-.323.474-.474.407-.423.787-.896.983-1.148a2.174 2.174 0 0 1-.07-.256c-.545.552-1.635 1.448-2.402 1.448-.355 0-.663-.066-1.004-.383-.255.296-.197.82.134 1.181l.016.018-.018.018c-.699.565-1.343 1.232-1.343 2.24a1.39 1.39 0 0 0 1.334 1.431c.576 0 .842-.202 1.056-.419-.39-.17-.773-.62-.773-1.274"/></g><g><path fill="#b5b5b5" d="M52.605 30.349a1.45 1.45 0 0 1-.319.037c-.258 0-.456-.085-.593-.26-.143-.184-.216-.459-.216-.82 0-.73.26-1.358.59-2.154.223-.54.477-1.15.698-1.916a2.744 2.744 0 0 1-.087-.152c-.194.278-.467.594-.753.928-.873 1.024-1.959 2.292-1.959 3.582 0 .057.003.117.01.179.116.13.26.236.402.294l.135.05.033.014-.027.027-.103.106a1.681 1.681 0 0 1-.227.204c.27.477.738.75 1.288.75.411 0 .73-.152.939-.452.122-.172.171-.345.19-.417"/></g><g><path fill="#b5b5b5" d="M53.762 30.852a1.292 1.292 0 0 1-.22-.515l-.023-.14-.004-.034.033.006.126.032c.117.031.227.044.324.044.07 0 .138-.008.198-.023.03-.172.046-.351.046-.537 0-.73-.193-1.474-.416-2.332-.156-.612-.321-1.245-.437-1.948a.935.935 0 0 1-.166.142l-.072.05-.009.01-.011-.01-.072-.05a1.068 1.068 0 0 1-.167-.142c-.112.703-.278 1.336-.434 1.948-.223.858-.415 1.601-.415 2.332 0 .186.012.365.045.537.059.015.126.023.198.023.097 0 .206-.013.323-.044l.127-.032.032-.006-.005.035-.02.14c-.007.027-.049.27-.222.514a1.188 1.188 0 0 1-.149.176c.299.511.709.715.77.745.06-.03.469-.234.767-.745a1.396 1.396 0 0 1-.147-.176"/></g><g><path fill="#b5b5b5" d="M53.074 13.205c-.01-.396-.202-.69-.345-.906-.037-.06-.073-.116-.099-.164l-.007-.014-.01.01c-.106.127-.446.559-.446.885 0 .062.006.126.016.191h.89z"/></g><g><path fill="#b5b5b5" d="M52.027 13.19c0-.382-.196-.702-.385-1.01l-.006-.013-.013.01c-.35.348-.571.702-.628 1.027l-.002.003h1.034z"/></g><g><path fill="#b5b5b5" d="M58.992 5.493c.177-.021.517-.08.852-.222.647-.268.974-.693.974-1.262 0-.312-.095-.599-.189-.874-.091-.27-.174-.522-.174-.79 0-.131.04-.376.132-.531a1.16 1.16 0 0 0-.366-.058c-.096 0-.29.016-.55.118a.916.916 0 0 0-.06.33c0 .34.154.702.304 1.052.142.327.274.639.274.916 0 .628-.875 1.15-1.197 1.321"/></g><g><path fill="#b5b5b5" d="M62.386 5.893c.297-.224.447-.512.447-.856 0-.2-.049-.415-.147-.639l.039-.023c.091.128.2.202.306.272.16.107.313.208.4.493.085-.278-.013-.43-.128-.604-.097-.151-.206-.321-.206-.602 0-.162.095-.306.198-.46.128-.19.26-.388.248-.647l-.093-.066c-.01-.007-.285-.19-.811-.225.003.035.005.074.005.11 0 .28-.116.53-.233.774-.112.245-.232.5-.232.785 0 .303.083.476.167.645.072.151.142.294.142.513 0 .151-.032.326-.102.53"/></g><g><path fill="#b5b5b5" d="M63.472 2.554c-.083-.109-.305-.31-.854-.406-.335-.059-.573-.346-.798-.627-.222-.27-.434-.529-.708-.529-.114 0-.203.063-.314.142-.086.06-.185.13-.317.184-.294.119-.47.217-.57.282.105-.024.21-.036.31-.036.404 0 .686.173.985.356.337.204.681.417 1.248.417.54 0 .873.143 1.018.217"/></g><g><path fill="#b5b5b5" d="M58.673 9.066a1.052 1.052 0 0 0-.23-.758c-.204-.249-.53-.39-.894-.39-.357 0-.596.115-.769.376.07-.004.146-.007.22-.007.662 0 1.269.282 1.673.78"/></g><g><path fill="#b5b5b5" d="M59.507 8.788c.735 0 .95-.488 1.007-.673-.215.185-.436.278-.672.278-.254 0-.485-.093-.709-.18-.218-.087-.426-.17-.647-.17a.716.716 0 0 0-.093.006c.16.12.282.295.353.498.136.118.523.24.761.24"/></g><g><path fill="#b5b5b5" d="M54.191 12.646l.01-.02c.042-.089.087-.168.13-.244.126-.23.235-.429.235-.747 0-.375-.16-.664-.397-.984l-.01-.011-.007.012c-.05.088-.105.168-.156.244-.148.216-.284.418-.284.742 0 .27.13.463.27.666.071.1.14.206.201.322z"/></g><g><path fill="#b5b5b5" d="M55.242 12.67l.006-.028c.031-.13.077-.26.126-.387.077-.207.157-.422.157-.635 0-.375-.16-.58-.38-.865l-.016-.023-.019-.023-.01-.014-.008.016c-.027.049-.06.104-.093.158-.13.212-.29.474-.29.72 0 .34.133.52.292.728.077.1.154.201.221.328z"/></g><g><path fill="#b5b5b5" d="M54.288 24.653c.423 0 .598-.231.647-.31-.478-.143-.91-.585-1.077-1.093-.05.134-.11.268-.173.399.043.112.074.228.1.366h.002c.022.127.022.279.004.439.043.043.222.2.497.2"/></g><g><path fill="#b5b5b5" d="M58.077 22.902c.251 0 .496-.052.738-.148-.05-.113-.28-.601-.66-.88a1.5 1.5 0 0 1-.695.17l-.114-.002c.103.268.173.539.182.73l.002.037c.072.028.264.093.547.093"/></g><g><path fill="#b5b5b5" d="M57.555 24.331c.152-.747-.079-1.28-.132-1.388l-.034.005c-.029.002-.061.004-.093.004a2.29 2.29 0 0 1-.599-.097 1.901 1.901 0 0 1-.034.896c.307.367.784.545.892.58"/></g><g><path fill="#b5b5b5" d="M56.195 24.229c.086-.087.354-.397.366-.98 0-.147-.023-.313-.061-.457-.241-.09-.446-.2-.576-.318.024.223 0 .448-.078.667.214.403.323.938.35 1.088"/></g><g><path fill="#b5b5b5" d="M54.242 23.61c.133-.379.355-.718.614-.939a3.324 3.324 0 0 0-.584-.714h-.215c.018.096.024.194.024.296 0 .193-.042.436-.123.704l.048.176c.047.164.126.328.236.476"/></g><g><path fill="#b5b5b5" d="M56.574 13.905a.978.978 0 0 0 .835-.449.913.913 0 0 0 .07-.788c-.088.1-.409.419-.892.419-.458 0-.822-.25-1.077-.746-.113.302-.113.6-.006.866h1.004V13.903l.066.002"/></g><g><path fill="#b5b5b5" d="M56.755 28.91c0-.803-.858-1.64-1.612-2.381-.168-.168-.331-.323-.475-.474a15.262 15.262 0 0 1-.985-1.148 2.17 2.17 0 0 0 .076-.256c.544.552 1.631 1.448 2.398 1.448.355 0 .662-.066 1.005-.383.255.296.197.82-.132 1.181l-.021.018.023.018c.694.565 1.339 1.232 1.339 2.24 0 .976-.796 1.431-1.335 1.431-.575 0-.84-.202-1.051-.419.39-.17.77-.62.77-1.274"/></g><g><path fill="#b5b5b5" d="M53.678 30.349c.113.026.22.037.32.037.254 0 .455-.085.592-.26.143-.184.217-.459.217-.82 0-.73-.261-1.358-.592-2.154-.223-.54-.477-1.15-.698-1.916.03-.046.06-.096.087-.152.198.278.467.594.754.928.872 1.024 1.96 2.292 1.96 3.582 0 .057-.004.117-.008.179-.119.13-.262.236-.407.294l-.134.05-.032.014.026.027.104.106c.061.064.136.138.226.204a1.44 1.44 0 0 1-1.286.75c-.413 0-.73-.152-.94-.452a1.249 1.249 0 0 1-.189-.417"/></g><g><path fill="#b5b5b5" d="M53.21 13.205c.01-.396.202-.69.341-.906.042-.06.076-.116.102-.164l.009-.014.01.01c.103.127.444.559.444.885 0 .062-.006.126-.016.191h-.89z"/></g><g><path fill="#b5b5b5" d="M54.256 13.19c0-.382.195-.702.383-1.01l.01-.013.009.01c.353.348.572.702.63 1.027v.003h-1.032z"/></g><g><path fill="#b5b5b5" d="M47.056 26.742a.293.293 0 0 1-.084.384c-.122.08-.278.038-.354-.092a.296.296 0 0 1 .086-.385c.122-.08.279-.04.352.093"/></g><g><path fill="#b5b5b5" d="M46.82 26.412s-.107-.571-.475-1.294a.68.68 0 0 1-.19-.002.81.81 0 0 1-.03.27.613.613 0 0 1-.109.46.578.578 0 0 1-.151.128c.254.35.588.683.588.683z"/></g><g><path fill="#b5b5b5" d="M45.169 24.001a.513.513 0 0 1 .17.078.635.635 0 0 1 .41.205l.048.052c.023-.023.044-.045.068-.065a9.36 9.36 0 0 0-.911-1.184l-.41.273s.132.402.284.651c.016.025.05-.017.078-.021a.58.58 0 0 1 .263.011"/></g><g><path fill="#b5b5b5" d="M44.979 25.451a.286.286 0 0 1-.17-.165.334.334 0 0 1-.004-.247.44.44 0 0 1 .218-.213.522.522 0 0 1 .309-.004l.011.007.008.002.009-.003a.556.556 0 0 1 .307.007.63.63 0 0 1 .147.075 1.148 1.148 0 0 0-.31.15l-.01.007-.001.016c-.02.114-.098.265-.221.33a.39.39 0 0 1-.293.038"/></g><g><path fill="#b5b5b5" d="M46.14 24.95a.443.443 0 0 1-.23-.157l-.003-.003-.004-.005a.762.762 0 0 0-.189-.075 1.676 1.676 0 0 0-.202-.036c.091-.1.204-.16.341-.174l.015-.001.005-.012a.393.393 0 0 1 .387-.168l.042.01c.199.052.301.197.274.378a.295.295 0 0 1-.124.206.402.402 0 0 1-.292.042z"/></g><g><path fill="#b5b5b5" d="M44.884 24.702a.276.276 0 0 1-.215-.235c-.02-.164.117-.292.263-.326a.565.565 0 0 1 .201.014.338.338 0 0 1 .146.074l.006.006h.008c.04.004.08.007.12.017.09.024.167.071.235.142a.99.99 0 0 0-.314.082l-.008.005-.008.008c-.045.095-.154.203-.273.22a.4.4 0 0 1-.16-.007"/></g><g><path fill="#b5b5b5" d="M45.977 25.39l-.003-.012v-.009c.038-.087.076-.193.01-.338a.369.369 0 0 1-.215.22c-.1 0-.196.035-.257.096-.058.06-.228.264-.059.458a.218.218 0 0 0 .113.07c.115.03.248-.022.342-.134a.456.456 0 0 0 .069-.351"/></g><g><path fill="#b5b5b5" d="M61.581 10.502c.507-.367.962-.79 1.35-1.254.779-.937.703-1.835.634-2.178-.073-.362-.221-.59-.338-.66a7.809 7.809 0 0 1-1.32 1.912c-.083.087-.328.176-.25.272.247.299.403 1.193-.076 1.908"/></g><g><path fill="#b5b5b5" d="M61.72 11.89a9.397 9.397 0 0 0 1.385-.745 2.48 2.48 0 0 0 1.01-1.438 1.8 1.8 0 0 0-.446-.052c-.29 0-.736.065-1.192.364a9.69 9.69 0 0 0-1.594 1.33c.12.008.23.035.334.078.027.01.298.122.47.343l.028.035.008.006v.01s0 .032-.004.07"/></g><g><path fill="#b5b5b5" d="M61.494 13.094a7.632 7.632 0 0 0 1.524-.154 2.101 2.101 0 0 0 1.33-.909 1.928 1.928 0 0 0-1.12-.351c-.14 0-.282.016-.425.044a7.4 7.4 0 0 0-1.109.327 1.742 1.742 0 0 1-.145.405c-.098.2-.339.402-.434.462.14.037.268.094.379.176"/></g><g><path fill="#b5b5b5" d="M62.827 14.517c.783 0 1.288-.441 1.383-.528a2.153 2.153 0 0 0-1.464-.752c-.185-.013-.378-.011-.569-.02-.29-.013-.347.016-.521.016.248.196.308.606.306.608-.06.137-.162.315-.408.47l-.034.027c.387.086.772.146 1.144.174.053.003.107.005.163.005"/></g><g><path fill="#b5b5b5" d="M62.723 16.115c.34 0 .578-.096.648-.124a2.146 2.146 0 0 0-1.072-1.179 6.687 6.687 0 0 0-.958-.379c-.11.046-.229.069-.354.075.103.102.383.436.311 1.095.155.097.368.213.549.301.284.14.58.21.876.21"/></g><g><path fill="#b5b5b5" d="M60.619 16.703a6.637 6.637 0 0 1-.452-.548c.01-.135 0-.276-.035-.413.11.066.534.3 1.11.005.043.045.09.09.128.132.59.641.605 1.34.603 1.47 0 0-.798-.047-1.354-.646"/></g><g><path fill="#b5b5b5" d="M60.363 18.097c.039-.116.224-.755-.147-1.547a5.604 5.604 0 0 0-.088-.175c-.059.224-.29.539-.31.539-.114 0-.553-.155-.546-.152.048.025-.095-.056-.142-.09.056.137.11.266.166.387.371.79.956 1.006 1.067 1.038"/></g><g><path fill="#b5b5b5" d="M58.907 18.33c.058-.101.34-.66.12-1.498-.037-.126-.175-.431-.169-.457-.197.749-.632.885-.662.885a.253.253 0 0 1-.1-.036c.238.77.717 1.058.81 1.107"/></g><g><path fill="#b5b5b5" d="M57.632 18.235c.06-.077.32-.462.296-1.119a1.182 1.182 0 0 1-.434-.714 1.667 1.667 0 0 1-.353.388.97.97 0 0 1-.2.105c.003.028.01.056.012.085.13.844.59 1.195.68 1.255"/></g><g><path fill="#b5b5b5" d="M58.194 17.116a.96.96 0 0 0 .353-.311c.156-.217.226-.519.192-.853l-.003-.021.018-.005.01-.003.013-.003.016-.006.008.021c.108.328.294.578.528.7.189.103.362.113.432.113h.026c.05-.06.17-.222.223-.453.068-.275.015-.59-.154-.887l-.01-.02.017-.014.013-.011.015-.014.014.016c.288.326.57.395.754.395h.023a.933.933 0 0 0 .48-.148 1.13 1.13 0 0 0-.003-.542c-.067-.284-.27-.529-.572-.692l-.017-.008.004-.021c.002-.005.004-.014.009-.019l.006-.02.02.005c.114.034.23.05.335.05a.859.859 0 0 0 .537-.173c.221-.16.321-.38.339-.419-.014-.042-.083-.274-.278-.458-.134-.135-.376-.297-.768-.297-.025 0-.051.002-.074.003l-.02.001-.002-.02-.002-.015-.004-.008-.002-.02.02-.005c.335-.098.601-.3.744-.57.122-.224.149-.437.155-.523a1.16 1.16 0 0 0-.42-.3.967.967 0 0 0-.382-.074c-.17 0-.349.04-.53.122l-.015.009-.01-.02c-.007-.008-.009-.015-.013-.022l-.012-.024.02-.007a3.52 3.52 0 0 0 1.067-.875c.321-.396.487-.818.487-1.225 0-.644-.368-.93-.464-.99-.237.79-.796 1.24-1.286 1.638-.511.41-.952.765-.952 1.399 0 .216.098.427.211.671.156.335.35.753.35 1.336 0 .865-.78 1.33-1.549 1.341-.674 0-1.179-.273-1.392-.752a1.104 1.104 0 0 1-.128.007c-.022 0-.042 0-.063-.002v2.79c.147-.02.355-.074.564-.215.149-.098.35-.3.453-.694l.003-.021.021.006.023.002.017.003v.022c-.015.427.12.69.238.84a.962.962 0 0 0 .367.29"/></g><g><path fill="#b5b5b5" d="M61.847 16.1c.288.135.588.204.892.204.354 0 .61-.094.703-.134l.134-.06-.051-.146a2.306 2.306 0 0 0-1.076-1.23l.013-.052c.07.008.141.015.209.02a2.225 2.225 0 0 0 1.652-.561l.113-.106-.098-.123a2.325 2.325 0 0 0-.848-.626c-.251-.1-.519-.159-.519-.159s.172-.019.466-.115c.654-.26.984-.753 1.052-.864l.079-.13-.118-.09a2.062 2.062 0 0 0-1.206-.38c-.15 0-.301.016-.452.046l-.093.023c.17-.098.338-.2.498-.306a2.632 2.632 0 0 0 1.079-1.535l.036-.16-.146-.037a2.035 2.035 0 0 0-.481-.056c-.229 0-.546.038-.893.186l-.008-.017c.093-.1.185-.202.274-.308.824-.99.74-1.952.67-2.319a1.556 1.556 0 0 0-.256-.619c1.464-2.19 2.086-3.9 2.151-4.088l.05-.14.118.073c.435.261.716.714.818 1.309.162.956-.183 2.14-.883 3.013-.194.248-.396.481-.596.709.132-.111.27-.224.411-.335 1.038-.813 1.896-.901 2.214-.901.081 0 .138.005.172.009l.117.015-.013.125c-.02.221-.183 1.377-1.43 2.353-.434.341-.87.642-1.305.905.23-.097.46-.184.692-.265.464-.16.915-.242 1.341-.242.6 0 .974.163 1.071.214l.106.052-.047.116c-.079.194-.538 1.182-1.915 1.669l.112-.002c1.069 0 1.678.436 1.787.523l.189.15-.132.207c-.1.155-.6.86-1.703 1.149.766.214 1.166.61 1.254.71l.161.177-.157.18c-.121.14-.787.832-2.073.832h-.097l-.04-.001h-.002l-.125-.006c.953.377 1.334.994 1.404 1.126l.057.102-.093.07c-.083.06-.534.362-1.264.362-.275 0-.558-.043-.848-.128a9.039 9.039 0 0 1-.628-.204l.153.089c1.03.614 1.292 1.418 1.335 1.573l.03.116-.104.041a1.776 1.776 0 0 1-.64.108c-.45 0-.903-.133-1.348-.399-.31-.182-.588-.368-.834-.55.106.111.207.221.304.335.757.873.766 1.693.76 1.848l-.005.105-.097.016a.271.271 0 0 1-.048.003c-.21 0-.95-.064-1.664-.891a9.324 9.324 0 0 1-.321-.388c.503.969.349 1.737.312 1.884l-.028.114-.11-.022c-.145-.029-.907-.233-1.46-1.248l-.12-.227c.23.888-.027 1.484-.083 1.599l-.051.103-.098-.043c-.123-.054-.754-.37-1.073-1.366a.148.148 0 0 1-.01-.03c.036.697-.215 1.135-.276 1.229l-.059.092-.093-.052c-.113-.065-.688-.437-.905-1.416a11.618 11.618 0 0 1-.094-.48l.045-.06c.066-.086.239-.358.304-.8.275.642.7.892.792.938l.12.063.07-.123c.051-.09.257-.499.217-1.114.415.738 1.003.93 1.073.951l.133.038.046-.14c.051-.156.177-.655-.013-1.3l.034-.023c.59.625 1.406.68 1.44.683l.155.009.002-.167a2.322 2.322 0 0 0-.347-1.19 6.75 6.75 0 0 0-.146-.202s.114.072.203.11"/></g><g><path fill="#b5b5b5" d="M53.096 10.02s-.03.307-.147.5c-.118.194-.35.463-.35.463s-.096-.076-.244-.334c-.148-.257-.282-.547-.282-.547s-.014.097-.104.37c-.088.274-.337.571-.337.571s-.093-.136-.27-.41c-.178-.273-.193-.661-.193-.661s-.045.227-.118.468c-.076.242-.251.521-.251.521s-.046-.023-.21-.344c-.162-.323-.148-.418-.267-.95-.118-.532-.652-1.21-.652-1.21l-.014-.176c-.026-.307-.21-.575-.21-.575l.613.284-.113-.463s.193.103.347.203c.155.098.741.39.741.39-.021-.435-.089-.798-.089-.798s.192.15.37.216c.26.1.424.107.424.107s.975.706 1.356 2.376"/></g><g><path fill="#b5b5b5" d="M50.758 21.957c-.246 0-.978-.132-.978-.83v-1.44l-.008.01v-2.67s-.042.005-.11-.005a.679.679 0 0 1-.157-.054s.007.16-.072.429-.445.828-.445.828l.268.29s.203.227.073.886c-.088.453-.213.78-.213.78s.317-.086.445-.15c0 0-.128.267-.533.429a8.91 8.91 0 0 1-.509.154s.195.229.469.36a1.55 1.55 0 0 1-.444.217c-.386.129-.787.114-.787.114s.322.412.668.499c.346.084.812.02.812.02s-.1.183-.19.441c-.088.258-.116.495-.116.495s.523.01.977-.205c.455-.214.593-.398.593-.398s-.049.386.01.71c.06.322.306.624.306.624s.197-.592.426-.894c.228-.3.515-.64.515-.64z"/></g><g><path fill="#b5b5b5" d="M48.886 7.764s-.069-.008-.24-.008c-.17 0-.347.073-.347.073a1.917 1.917 0 0 0-1.023-.308c-.543.009-.801.413-.801.413s-.323-.223-.393-.636c-.104-.614.259-.911.63-.985.37-.073.585.008.585.008s-.05-.101-.007-.24c.06-.187.23-.187.23-.187s.164.622.526 1.072zM47.09 6.686c0-.092-.069-.168-.154-.168-.086 0-.156.076-.156.168 0 .093.07.17.156.17z"/></g><g><path fill="#b5b5b5" d="M58.253 6.966c.363-.45.524-1.072.524-1.072s.172 0 .23.186c.045.14-.005.241-.005.241s.214-.08.586-.008c.37.074.733.371.629.984-.069.413-.39.637-.39.637s-.26-.403-.803-.412A1.91 1.91 0 0 0 58 7.828s-.177-.072-.347-.072c-.17 0-.238.008-.238.008zm1.112-.112c.085 0 .155-.073.155-.167 0-.093-.07-.168-.155-.168-.087 0-.154.075-.154.168z"/></g><g><path fill="#b5b5b5" d="M55.524 21.957c.245 0 .98-.132.98-.83v-1.44l.006.01v-2.67s.043.005.111-.005a.7.7 0 0 0 .157-.054s-.008.16.07.429c.08.269.448.828.448.828l-.27.29s-.203.227-.073.886c.09.453.213.78.213.78s-.317-.086-.445-.15c0 0 .128.267.534.429a8.7 8.7 0 0 0 .507.154s-.194.229-.466.36c.068.053.204.137.444.217.384.129.788.114.788.114s-.323.412-.67.499c-.347.084-.812.02-.812.02s.099.183.188.441a2.7 2.7 0 0 1 .119.495s-.524.01-.979-.205c-.454-.214-.594-.398-.594-.398s.05.386-.01.71c-.06.322-.305.624-.305.624s-.198-.592-.426-.894c-.227-.3-.515-.64-.515-.64z"/></g><g><path fill="#b5b5b5" d="M51.93 7.521c-.553 0-.949-.29-1.29-.759.001.002.02.06.044.141a3.34 3.34 0 0 1 .203.959s-.39-.205-.665-.386a3.257 3.257 0 0 1-.634-.471l-.04-.03c.038.08.192.431.255.701-.132-.057-.574-.264-.875-.612.072.169.241.538.41.812a3.324 3.324 0 0 1-.7-.485 3.447 3.447 0 0 1-1.049-1.798c.182.028 1.084.17 1.769.17.783 0 1.876-.023 2.448-.213-.066.13-.299.474-.962.66.081.024.204.065.414.065.138 0 .281-.016.423-.05-.097.123-.355.407-.64.478.392.333 1.085.669 1.586.613a1.29 1.29 0 0 1-.696.205zm-3.376-.847c.258-.282.83-.326.838-.326l.03-.003-.013-.032-.017-.042-.007-.013h-.013l-.11.001c-.447 0-.904-.077-.91-.077l-.026-.005.002.03c.016.212.08.364.197.468l.016.015.013-.016z"/></g><g><path fill="#b5b5b5" d="M53.19 10.02s.03.307.149.5c.118.194.346.463.346.463s.098-.076.247-.334a8.22 8.22 0 0 0 .281-.547s.015.097.104.37c.09.274.339.571.339.571s.091-.136.27-.41c.179-.273.192-.661.192-.661s.045.227.119.468c.074.242.25.521.25.521s.046-.023.208-.344c.164-.323.15-.418.27-.95.117-.532.651-1.21.651-1.21l.014-.176c.027-.307.21-.575.21-.575l-.611.284.11-.463s-.192.103-.348.203c-.152.098-.739.39-.739.39.023-.435.087-.798.087-.798s-.19.15-.37.216c-.258.1-.423.107-.423.107s-.976.706-1.356 2.376"/></g><g><path fill="#b5b5b5" d="M55.646 6.762c-.34.47-.737.758-1.29.758a1.29 1.29 0 0 1-.696-.204c.5.056 1.192-.28 1.586-.614-.286-.07-.543-.356-.641-.477.142.034.287.05.424.05.21 0 .333-.04.414-.066-.664-.186-.895-.53-.962-.658.573.189 1.666.213 2.449.213.684 0 1.585-.143 1.767-.172a3.453 3.453 0 0 1-1.048 1.8c-.3.267-.579.422-.7.484a7.27 7.27 0 0 0 .41-.812c-.301.347-.743.555-.877.611.065-.268.22-.618.256-.7a.587.587 0 0 1-.04.03c-.196.193-.441.362-.632.472-.278.18-.665.385-.665.385s.013-.361.134-.748c.022-.076.044-.146.068-.21.023-.083.043-.14.043-.142zm1.248-.416c.008 0 .58.046.838.328l.014.016.016-.015c.117-.104.18-.256.197-.467l.002-.031-.029.005c-.004 0-.462.077-.909.077l-.107-.001h-.014l-.008.013-.018.042-.013.032.03.001z"/></g><g><path fill="#b5b5b5" d="M48.618 3.575c0 .123.091.224.207.224.112 0 .205-.1.205-.224 0-.125-.093-.226-.205-.226-.116 0-.207.101-.207.226"/></g><g><path fill="#b5b5b5" d="M48.694 3.284h.26s-.073-.192-.073-.24c.044 0 .22.079.22.079V2.84s-.176.08-.22.08c0-.05.073-.24.073-.24h-.26s.072.19.072.24c-.043 0-.22-.08-.22-.08V3.122s.177-.08.22-.08c0 .049-.072.24-.072.24"/></g><g><path fill="#b5b5b5" d="M49.377 3.52l-.242 1.303-.122-.008c.037-.212.063-.396.063-.485 0-.285-.142-.37-.251-.37-.11 0-.256.085-.256.37 0 .09.027.274.065.487a4.33 4.33 0 0 0-.12.01l-.244-1.306c-.419.098-.76.286-.76.706 0 .405.35 1.12.416 1.252l.008-.004c.045.008.918.164 1.786.004v-.001h.002c.067-.131.415-.846.415-1.251 0-.42-.339-.608-.76-.706"/></g><g><path fill="#b5b5b5" d="M57.232 3.575c0 .123.094.224.208.224.115 0 .207-.1.207-.224 0-.125-.092-.226-.207-.226-.114 0-.208.101-.208.226"/></g><g><path fill="#b5b5b5" d="M57.31 3.284h.262s-.076-.192-.076-.24c.047 0 .223.079.223.079V2.84s-.176.08-.223.08c0-.05.076-.24.076-.24h-.262s.073.19.073.24c-.045 0-.221-.08-.221-.08V3.122s.176-.08.22-.08c0 .049-.072.24-.072.24"/></g><g><path fill="#b5b5b5" d="M58.752 4.227c0-.42-.339-.608-.758-.706l-.244 1.305-.12-.009c.039-.213.066-.398.066-.487 0-.285-.147-.37-.256-.37-.11 0-.252.085-.252.37 0 .09.027.273.065.485a4.35 4.35 0 0 0-.124.008l-.244-1.302c-.42.098-.756.286-.756.706 0 .405.347 1.12.411 1.252l.004-.001c.869.16 1.742.005 1.786-.003l.009.004c.066-.132.413-.847.413-1.252"/></g><g><path fill="#b5b5b5" d="M54.473 4.273c.02-.04.637-1.247.637-1.908 0-.631-.507-.909-1.138-1.06l-.374 2.007a4.66 4.66 0 0 0-.172-.013c.074-.375.128-.714.128-.867 0-.439-.237-.573-.413-.573-.179 0-.413.134-.413.573 0 .154.056.493.127.87a9.475 9.475 0 0 0-.17.014l-.374-2.01c-.632.15-1.139.428-1.139 1.06 0 .646.59 1.814.634 1.903v.006H54.474z"/></g><g><path fill="#b5b5b5" d="M43.35 9.248a7.49 7.49 0 0 0 1.348 1.254c-.478-.715-.322-1.61-.076-1.908.08-.096-.166-.185-.25-.272a7.862 7.862 0 0 1-1.32-1.912c-.116.07-.264.298-.338.66-.068.343-.143 1.24.636 2.178"/></g><g><path fill="#b5b5b5" d="M45.397 11.349a9.72 9.72 0 0 0-1.595-1.331 2.172 2.172 0 0 0-1.19-.362 1.88 1.88 0 0 0-.448.051c.033.142.248.933 1.011 1.438.43.281.896.532 1.387.744-.005-.037-.006-.068-.006-.068v-.01l.007-.007.028-.035c.175-.221.445-.33.47-.341.107-.044.217-.071.336-.08"/></g><g><path fill="#b5b5b5" d="M45.167 12.918c-.095-.06-.338-.262-.436-.462a1.685 1.685 0 0 1-.147-.405 7.354 7.354 0 0 0-1.108-.327 2.13 2.13 0 0 0-.424-.044c-.617 0-1.035.287-1.12.35a2.1 2.1 0 0 0 1.331.91c.477.1.99.15 1.523.155.112-.083.24-.14.38-.177"/></g><g><path fill="#b5b5b5" d="M44.317 13.84c-.002-.001.06-.41.308-.606-.175 0-.233-.03-.523-.017-.19.009-.382.007-.568.02a2.147 2.147 0 0 0-1.463.752 2.093 2.093 0 0 0 1.545.523 8.094 8.094 0 0 0 1.143-.174c-.014-.01-.023-.02-.035-.028a1.011 1.011 0 0 1-.407-.47"/></g><g><path fill="#b5b5b5" d="M45.292 14.508a1.028 1.028 0 0 1-.354-.075 6.81 6.81 0 0 0-.958.38 2.139 2.139 0 0 0-1.07 1.178c.067.028.307.123.646.123.296 0 .593-.07.877-.209.18-.088.393-.205.548-.301-.07-.659.209-.994.311-1.096"/></g><g><path fill="#b5b5b5" d="M45.037 15.747l-.127.132a2.199 2.199 0 0 0-.602 1.47s.797-.047 1.353-.647c.152-.165.305-.348.453-.546-.011-.137 0-.277.033-.414-.109.065-.533.3-1.11.005"/></g><g><path fill="#b5b5b5" d="M45.915 18.097c.113-.032.697-.247 1.068-1.038.057-.121.11-.25.166-.386-.034.026-.128.079-.148.091-.05.017-.434.15-.538.15-.02 0-.251-.315-.313-.54l-.085.176c-.374.792-.188 1.43-.15 1.547"/></g><g><path fill="#b5b5b5" d="M48.183 17.224a.244.244 0 0 1-.1.036c-.03 0-.464-.136-.662-.886.006.026-.132.332-.167.458-.224.837.061 1.398.12 1.5.094-.05.572-.338.809-1.108"/></g><g><path fill="#b5b5b5" d="M48.786 16.403a1.205 1.205 0 0 1-.434.714c-.023.655.237 1.04.295 1.12.088-.062.55-.413.68-1.257.002-.029.008-.056.01-.085a.929.929 0 0 1-.198-.105 1.647 1.647 0 0 1-.353-.387"/></g><g><path fill="#b5b5b5" d="M49.71 14.095c-.04 0-.085-.003-.128-.008-.214.48-.72.753-1.393.753-.77-.011-1.548-.477-1.548-1.341 0-.583.192-1.001.348-1.336.114-.243.212-.455.212-.671 0-.634-.44-.988-.953-1.4-.49-.398-1.047-.846-1.286-1.639-.095.063-.465.347-.465.992 0 .407.168.83.487 1.225.275.343.655.652 1.067.874l.022.01-.013.022-.011.022-.012.019-.015-.008a1.268 1.268 0 0 0-.531-.122.965.965 0 0 0-.38.073c-.231.095-.374.249-.42.3.006.088.033.3.155.522.143.271.409.475.745.572l.018.006-.002.019-.002.007-.003.015-.001.02h-.02c-.025 0-.05-.003-.074-.003-.394 0-.636.163-.77.297-.195.184-.262.416-.277.458.018.04.117.258.339.419a.855.855 0 0 0 .536.171c.106 0 .221-.015.336-.048l.02-.005.007.02.007.018.005.022-.019.007c-.3.164-.504.41-.569.692a1.083 1.083 0 0 0-.002.542v.001a.92.92 0 0 0 .478.148h.022c.185 0 .466-.069.754-.395l.014-.016.016.014.015.011.014.015-.01.018c-.168.298-.222.613-.154.888.055.231.172.392.223.452h.026c.07 0 .245-.01.432-.112.234-.121.422-.372.53-.7l.005-.02.02.006.01.002.01.003.02.005-.003.02c-.035.335.033.637.189.854a.963.963 0 0 0 .355.311.966.966 0 0 0 .366-.29c.12-.149.254-.413.239-.84l-.002-.022.018-.003.024-.002.02-.006.004.02c.103.395.305.597.452.694.21.142.42.196.566.217v-2.792a.662.662 0 0 1-.063.003"/></g><g><path fill="#b5b5b5" d="M40.897 16.882c-.012-.007-.02-.013-.03-.015.013.14-.014.196-.014.196s-.168.144-.377.142c.01.006.017.013.024.026a.08.08 0 0 1 .01.043l.324.078s.03-.007.073 0v.005c.016-.04.04-.106.05-.142l-.02-.004c-.011-.061.006-.117.02-.168 0 0-.014-.073-.06-.161"/></g><g><path fill="#b5b5b5" d="M40.844 16.166c.004-.072.018-.127.018-.127-.068-.026-.084-.068-.084-.068a.505.505 0 0 0 .066-.032.82.82 0 0 1-.088-.09l.014.069c-.043.032-.041.033-.086.062-.045.03-.045.03-.094.055l-.047-.045c.017.042.032.119.034.128.022-.019.043-.036.054-.052 0 0 .03.034.018.113 0 0 .055.014.113.04a.382.382 0 0 1 .085.056s-.007-.044-.003-.11"/></g><g><path fill="#b5b5b5" d="M48.56 18.426a8.972 8.972 0 0 1-.094.481c-.218.978-.792 1.351-.905 1.417l-.092.051-.06-.092c-.06-.094-.311-.532-.275-1.23l-.01.031c-.32.996-.95 1.312-1.074 1.366l-.098.042-.05-.102c-.058-.115-.314-.712-.083-1.599-.038.073-.077.148-.12.227-.554 1.015-1.315 1.218-1.461 1.248l-.107.022-.03-.114c-.038-.147-.19-.915.311-1.885-.104.132-.208.262-.32.389-.404.468-.817.692-1.136.798l1.812 3.11c.075.133.068.36-.082.461-.152.101-.341.002-.416-.13l-1.824-3.348h-.018a.57.57 0 0 1-.05-.002l-.096-.017-.004-.105a1.62 1.62 0 0 1 .004-.176l-.608-1.116a2.28 2.28 0 0 1-.513.058c-.348 0-.579-.083-.642-.108l-.104-.042.032-.115c.011-.044.043-.144.104-.278l-.042-.011a.268.268 0 0 1-.188.018.292.292 0 0 1-.186-.15.263.263 0 0 1-.033-.083.823.823 0 0 1-.195-.146 1.19 1.19 0 0 1-.354-.85 1.721 1.721 0 0 1-.359-.193l-.093-.068.057-.103c.072-.132.45-.75 1.405-1.126a5.573 5.573 0 0 0-.127.007h-.14c-1.286 0-1.95-.692-2.071-.831l-.157-.181.161-.177c.09-.1.487-.496 1.253-.71-1.102-.288-1.603-.996-1.702-1.15l-.132-.207.188-.148c.11-.088.718-.524 1.79-.524h.108c-1.376-.485-1.835-1.473-1.915-1.667l-.046-.117.105-.05c.1-.052.47-.216 1.072-.216.426 0 .877.082 1.341.243.232.081.464.17.692.265-.434-.263-.87-.564-1.305-.905-1.246-.976-1.41-2.13-1.43-2.352l-.01-.125.115-.016c.034-.004.091-.01.171-.01.32 0 1.177.089 2.215.902.142.111.278.224.41.335-.201-.227-.4-.461-.598-.709-.698-.873-1.044-2.057-.88-3.013.1-.595.384-1.048.818-1.31l.118-.071.05.14c.065.186.687 1.897 2.151 4.086a1.553 1.553 0 0 0-.255.62c-.073.367-.154 1.329.67 2.319.087.106.179.208.272.308l-.01.017a2.26 2.26 0 0 0-.892-.186c-.166 0-.332.02-.48.056l-.147.037.038.16c.037.163.265 1 1.078 1.535.162.106.328.208.5.306-.032-.008-.063-.016-.095-.022a2.307 2.307 0 0 0-.451-.047 2.05 2.05 0 0 0-1.205.38l-.12.09.081.13c.066.11.397.604 1.05.864.296.096.467.115.467.115s-.268.058-.518.158a2.3 2.3 0 0 0-.849.627l-.099.123.115.106c.142.132.672.565 1.48.565.049 0 .105 0 .171-.003l.208-.02.014.051a2.318 2.318 0 0 0-1.078 1.23l-.05.147.135.058c.092.041.349.135.702.135a2.093 2.093 0 0 0 1.096-.314s-.06.077-.147.203a2.333 2.333 0 0 0-.347 1.19l.005.166.152-.01c.035-.002.851-.056 1.44-.682l.035.023c-.192.645-.065 1.144-.015 1.3l.047.14.133-.038c.07-.02.66-.212 1.073-.95-.04.614.167 1.022.218 1.113l.07.124.12-.064c.09-.046.516-.296.79-.939.066.443.242.715.306.8zm-7.374-.75c.078.14.398-.043.426-.057.038-.026.312-.231.23-.376-.078-.141-.37-.107-.437-.099a.324.324 0 0 1-.007-.17.304.304 0 0 0 .22-.007l.004-.024a.576.576 0 0 0 .164-.035.104.104 0 0 0 .129.014.128.128 0 0 0 .034-.16.104.104 0 0 0-.147-.04.123.123 0 0 0-.043.146l-.124-.015.005-.025c-.048-.045-.107-.054-.16-.064 0 0-.057-.052-.117-.144a.122.122 0 0 0 .001-.039c.12.085.186.084.186.084s.483-.244.352-.771c-.135-.527-.543-.633-.543-.633.048.348-.067.663-.076.695-.012.04-.046.103-.02.153.02.03.071.04.106.102.03.054-.003.114-.048.145-.042.029-.087.036-.125.004l.006-.002c.066-.067.003-.114.003-.114-.03.098-.113.096-.152.027-.046-.085-.045-.264-.045-.264s.054-.057.15-.032c0 0-.025-.058-.089-.048 0 0 .04-.09.116-.07 0 0 .021-.032-.001-.072-.024-.042-.069-.039-.118.011 0 0-.011-.037-.043-.034 0 0-.014.017-.052.045-.002-.004-.024-.118-.046-.156-.03-.051-.095-.038-.137-.008a.158.158 0 0 0-.068.082.319.319 0 0 0-.03-.092c-.046-.077-.142-.055-.207-.012-.066.044-.128.126-.085.204.01.02.036.048.06.077-.03-.008-.066.002-.096.02-.045.033-.086.088-.058.14.024.038.108.114.108.114-.042.025-.06.031-.06.031-.018.03.007.058.007.058-.06.026-.085.068-.065.109.025.04.06.035.06.035.018-.082.109-.082.109-.082-.036.06.002.11.002.11.024-.104.093-.134.093-.134s.148.083.197.167c.037.068.002.149-.092.134 0 0 .008.081.092.05l.004-.003c.011.047-.015.088-.056.116-.05.03-.114.036-.144-.02-.034-.062-.016-.115-.035-.149-.028-.049-.096-.044-.132-.05-.03-.006-.344-.04-.606-.245 0 0-.1.445.271.814.101.1.208.147.306.164l-.011.006a.09.09 0 0 0-.028.115c.024.04.072.053.11.028a.054.054 0 0 0 .022-.034l.363.09c.004.005.027.032.082.043.057.016.088-.003.09-.005l.058.016.004-.035-.057-.013s-.01-.014-.051-.028a.594.594 0 0 0 .1-.138l.021.009a.377.377 0 0 0 .104-.211.304.304 0 0 1 .14.087c-.04.06-.202.326-.124.464zm1.851-.079c.098-.114.2-.224.303-.334-.245.18-.522.366-.833.55a3.17 3.17 0 0 1-.403.202l.334.573c.109-.295.294-.638.599-.99z"/></g><g><path fill="#b5b5b5" d="M38.297 86.74c-.142-3.373.12-7.952.188-9.49.066-.952.136-1.466.136-1.978 0-.44-.07-1.1-.684-1.1-.547 0-.684.806-.888 1.76-.206 1.099-.82 4.689-2.53 8.132-.615 1.246-1.368 2.418-2.325 3.37-2.187 2.273-5.331 3.591-8.68 3.591-4.238 0-8.476-2.27-11.073-5.861-.479-.66-.89-1.393-1.3-2.126-1.571-2.931-3.486-7.693-3.486-16.852 0-4.984.547-10.919 2.872-15.974.82-1.833 1.914-3.59 2.94-4.836 2.323-2.784 5.125-3.957 8.748-3.957 6.083 0 9.092 3.37 10.528 5.862 1.298 2.271 2.118 6.228 2.528 8.72.136 1.099.275 1.392.89 1.392.272 0 .408 0 .546-.22.273-.441.204-1.465.204-2.711.07-8.28.547-10.698.753-12.09.067-.586.136-.807.136-1.026 0-.367-.205-.513-.547-.513-.137 0-.273 0-.342.073-.272.147-.547.733-1.093 1.979-.206.513-.41.951-.752 1.099-.136.073-.274.073-.41.073-.274 0-.684-.073-1.23-.366-.341-.147-.683-.367-1.025-.587-3.008-1.83-5.195-3.15-10.734-3.15-1.64 0-3.348.22-4.988.586-3.555.806-7.383 2.784-10.663 6.814-1.163 1.392-2.12 2.932-2.94 4.543C1.23 55.561 0 60.324 0 66.039c0 8.427 2.94 14.727 6.426 18.758 2.597 3.004 7.996 7.693 16.814 7.693 2.872 0 7.452-.512 11.826-4.616.888.512 1.162 1.393 1.914 3.151.205.513.478 1.1.957 1.1.273 0 .514-.198.548-.953 0 0-.022-1.109-.188-4.432"/></g><g><path fill="#b5b5b5" d="M94.983 81.67c-.388.666-.775 1.333-1.23 1.934-2.46 3.266-6.472 5.333-10.483 5.333-2.497 0-4.862-.75-6.77-2.073V46.687c1.673-1.558 4.198-2.895 7.999-2.895 3.431 0 6.083 1.067 8.285 3.6.97 1.135 2.005 2.735 2.782 4.402 2.201 4.601 2.718 10.001 2.718 14.537zm-31.596 7.267c-4.012 0-8.025-2.067-10.485-5.334-.454-.6-.842-1.267-1.23-1.934-1.489-2.667-3.3-7.002-3.3-15.338 0-4.536.517-9.936 2.718-14.537.776-1.667 1.812-3.267 2.782-4.402 2.202-2.533 4.854-3.6 8.286-3.6 3.857 0 6.401 1.376 8.075 2.965v40.05zm39.234-35.61c-.777-1.466-1.682-2.867-2.784-4.133-3.107-3.668-6.73-5.469-10.097-6.202-1.552-.334-3.169-.534-4.724-.534-4.196 0-6.361.77-8.516 1.932v-1.516c0-.608.134-1.897.545-2.37.476-.475 1.36-.475 1.973-.475 1.976-.067 2.998 0 2.998-.676 0-.61-.885-.61-1.158-.61-2.18 0-2.86.136-8.241.136-2.248 0-4.428-.136-6.742-.136-.477 0-1.024 0-1.024.61 0 .473.47.54 1.015.54l.35.002c.476 0 2.384.134 2.997.337.612.204.817.611.951 1.153.069.473.069.947.069 1.49v1.556c-2.184-1.186-4.348-1.973-8.594-1.973-1.553 0-3.17.2-4.725.534-3.365.733-6.99 2.534-10.097 6.202-1.1 1.266-2.005 2.667-2.782 4.134-1.748 3.334-2.913 7.668-2.913 12.871 0 7.668 2.783 13.403 6.084 17.07 2.461 2.734 7.573 7.003 15.923 7.003 1.82 0 4.372-.233 7.104-1.506v1.728c0 .95-.069 1.26-.272 1.802-.44 1.043-2.115 1.09-3.34 1.09-1.343 0-1.905.266-1.905.603 0 .541.612.609.884.609 1.772 0 3-.203 5.927-.203 6.54 0 6.471.203 9.467.203.545 0 1.022-.068 1.022-.541 0-.475-.545-.542-.816-.542-2.725-.136-4.02-.407-4.43-.947-.27-.34-.27-.815-.27-1.22v-2.55c2.701 1.244 5.222 1.474 7.027 1.474 8.35 0 13.463-4.269 15.922-7.003 3.302-3.667 6.085-9.402 6.085-17.07 0-5.203-1.165-9.537-2.913-12.872z"/></g></g></g></svg>