<svg xmlns="http://www.w3.org/2000/svg" width="375" height="140" viewBox="0 0 375 140"><defs><linearGradient id="dxfoa" x1="158.37" x2="161.99" y1="70.18" y2="70.18" gradientUnits="userSpaceOnUse"><stop offset="0" stop-color="#a1a9ae"/><stop offset=".26" stop-color="#a7b0b5"/><stop offset=".55" stop-color="#c8d5d9"/><stop offset=".86" stop-color="#a7b0b5"/><stop offset="1" stop-color="#a2acb2"/></linearGradient><linearGradient id="dxfob" x1="166.64" x2="170.25" y1="70.18" y2="70.18" gradientUnits="userSpaceOnUse"><stop offset="0" stop-color="#a1a9ae"/><stop offset=".26" stop-color="#a7b0b5"/><stop offset=".55" stop-color="#c8d5d9"/><stop offset=".86" stop-color="#a7b0b5"/><stop offset="1" stop-color="#a2acb2"/></linearGradient><linearGradient id="dxfoc" x1="174.9" x2="178.52" y1="70.18" y2="70.18" gradientUnits="userSpaceOnUse"><stop offset="0" stop-color="#a1a9ae"/><stop offset=".26" stop-color="#a7b0b5"/><stop offset=".55" stop-color="#c8d5d9"/><stop offset=".86" stop-color="#a7b0b5"/><stop offset="1" stop-color="#a2acb2"/></linearGradient><linearGradient id="dxfod" x1="183.17" x2="186.78" y1="70.18" y2="70.18" gradientUnits="userSpaceOnUse"><stop offset="0" stop-color="#a1a9ae"/><stop offset=".26" stop-color="#a7b0b5"/><stop offset=".55" stop-color="#c8d5d9"/><stop offset=".86" stop-color="#a7b0b5"/><stop offset="1" stop-color="#a2acb2"/></linearGradient><linearGradient id="dxfoe" x1="191.43" x2="195.04" y1="70.18" y2="70.18" gradientUnits="userSpaceOnUse"><stop offset="0" stop-color="#a1a9ae"/><stop offset=".26" stop-color="#a7b0b5"/><stop offset=".55" stop-color="#c8d5d9"/><stop offset=".86" stop-color="#a7b0b5"/><stop offset="1" stop-color="#a2acb2"/></linearGradient><linearGradient id="dxfof" x1="199.69" x2="203.31" y1="70.18" y2="70.18" gradientUnits="userSpaceOnUse"><stop offset="0" stop-color="#a1a9ae"/><stop offset=".26" stop-color="#a7b0b5"/><stop offset=".55" stop-color="#c8d5d9"/><stop offset=".86" stop-color="#a7b0b5"/><stop offset="1" stop-color="#a2acb2"/></linearGradient><linearGradient id="dxfog" x1="207.96" x2="211.57" y1="70.18" y2="70.18" gradientUnits="userSpaceOnUse"><stop offset="0" stop-color="#a1a9ae"/><stop offset=".26" stop-color="#a7b0b5"/><stop offset=".55" stop-color="#c8d5d9"/><stop offset=".86" stop-color="#a7b0b5"/><stop offset="1" stop-color="#a2acb2"/></linearGradient><linearGradient id="dxfoh" x1="145.11" x2="227.18" y1="56.73" y2="56.73" gradientUnits="userSpaceOnUse"><stop offset="0" stop-color="#a1a9ae"/><stop offset=".32" stop-color="#a7b0b5"/><stop offset=".52" stop-color="#c8d5d9"/><stop offset=".72" stop-color="#a7b0b5"/><stop offset="1" stop-color="#a2acb2"/></linearGradient></defs><g><g><g><g><path fill="url(#dxfoa)" d="M158.37 140V.358h3.614V140z"/></g><g><path fill="url(#dxfob)" d="M166.634 140V.358h3.614V140z"/></g><g><path fill="url(#dxfoc)" d="M174.898 140V.358h3.614V140z"/></g><g><path fill="url(#dxfod)" d="M183.162 140V.358h3.614V140z"/></g><g><path fill="url(#dxfoe)" d="M191.426 140V.358h3.614V140z"/></g><g><path fill="url(#dxfof)" d="M199.69 140V.358h3.614V140z"/></g><g><path fill="url(#dxfog)" d="M207.954 140V.358h3.614V140z"/></g><g><path fill="#d9000d" d="M191.412 91.148c-1.122.168-2.255.334-3.394.497 1.143-.038 2.273-.094 3.394-.165zm8.278-1.338c-1.521.27-3.079.53-4.664.781v.604a122.77 122.77 0 0 0 4.664-.53zm8.263-1.677c-1.487.352-3.041.684-4.65 1.002v.997c1.567-.253 3.116-.534 4.65-.836zm-40.16-31.54v10.45c25.113 1.828 49.65 3.891 56.325 13.272-1.799 2.962-6.382 5.146-12.55 6.887v1.334c4.689-1.046 9.247-2.287 13.74-3.625l-.498-19.459z"/></g><g><path fill="url(#dxfoh)" d="M183.162 98.647c-.905.126-1.806.25-2.705.372.878-.234 1.781-.46 2.705-.68zm8.25-1.216c-1.548.246-3.094.479-4.637.703v-.623a594.88 594.88 0 0 1 4.637-.992zm8.277-1.447c-1.553.3-3.108.583-4.663.85v-1.08a285.48 285.48 0 0 0 4.663-1.035zm8.264-1.797c-1.544.377-3.095.73-4.65 1.062V93.84c1.588-.407 3.145-.838 4.65-1.301zm-56.36-37.243V15.046c28.113 2.98 53.573 10.25 75.586 23.091V87.78c-5.049 2.246-10.284 4.024-15.611 5.474v-1.936c5.577-2.073 10.102-4.772 12.334-8.636.389-.671.113-3.948.222-4.757-5.048-11.86-36.54-18.766-72.53-20.981zm-6.486-42.506c1.588.13 3.168.274 4.74.429V56.84c-1.573-.09-3.153-.171-4.74-.243z"/></g></g><g><path fill="#a3a3a3" d="M127.45 48.835h-3.95c-.922 0-1.597.189-2.024.57-.428.382-.64.87-.64 1.46 0 .405.11.777.33 1.12.22.346.542.597.967.75.424.157 1.012.236 1.768.236h3.548zm0 11.117v-5.55h-1.914c-.428 0-.733.02-.92.059a2.496 2.496 0 0 0-.753.331c-.247.16-.526.436-.84.835-.31.398-.71.97-1.19 1.724l-1.652 2.601h-2.064l2.16-3.404c.428-.665.884-1.22 1.367-1.663.227-.204.559-.413.998-.623-1.198-.165-2.083-.55-2.656-1.157-.573-.609-.86-1.355-.86-2.243 0-.686.174-1.315.52-1.882.346-.567.809-.962 1.387-1.186.579-.224 1.423-.337 2.536-.337h5.538v12.495zm-20.73-12.495h1.501v9.894l6.652-9.894h1.638v12.495h-1.501v-9.87l-6.635 9.87h-1.655zM94.152 59.952V47.457h1.658v5.147h6.458v-5.147h1.657v12.495h-1.657V54.07H95.81v5.882zm-9.485-5.131zm4.258 0l-1.302-3.464a43.986 43.986 0 0 1-.896-2.61 17.657 17.657 0 0 1-.69 2.406l-1.37 3.668zm-7.852 5.131l4.793-12.495h1.817l5.087 12.495h-1.88l-1.447-3.787h-5.262l-1.355 3.787zm-8.103-1.466h3.111c.535 0 .91-.02 1.129-.061.378-.067.698-.18.953-.34.257-.16.466-.394.632-.7a2.17 2.17 0 0 0 .247-1.055c0-.468-.119-.872-.36-1.218a1.877 1.877 0 0 0-.995-.727c-.422-.14-1.033-.21-1.827-.21h-2.89zm0-5.777h2.7c.734 0 1.26-.05 1.577-.145.422-.125.74-.334.951-.625.213-.291.32-.655.32-1.094 0-.416-.098-.782-.299-1.096a1.502 1.502 0 0 0-.852-.652c-.37-.117-1.003-.174-1.9-.174H72.97v3.786zm-1.658 7.243V47.457H76c.954 0 1.72.124 2.298.378a2.945 2.945 0 0 1 1.352 1.169 3.05 3.05 0 0 1 .492 1.65c0 .531-.146 1.034-.433 1.506-.289.47-.725.852-1.31 1.143.757.22 1.338.599 1.743 1.134.407.532.61 1.163.61 1.89 0 .588-.125 1.132-.372 1.635-.247.503-.552.89-.916 1.164-.364.27-.82.476-1.367.616-.55.14-1.222.21-2.019.21h-4.766zM59.01 53.9c0 1.504.405 2.687 1.213 3.551.809.864 1.823 1.298 3.045 1.298 1.245 0 2.266-.437 3.071-1.31.803-.872 1.205-2.11 1.205-3.717 0-1.015-.172-1.901-.515-2.657-.343-.758-.847-1.345-1.507-1.76a4.106 4.106 0 0 0-2.227-.626c-1.17 0-2.176.402-3.02 1.204-.843.802-1.265 2.14-1.265 4.017zm-1.71-.03c0-2.07.558-3.693 1.672-4.865 1.114-1.172 2.551-1.757 4.313-1.757 1.155 0 2.194.276 3.121.826a5.394 5.394 0 0 1 2.118 2.303c.485.983.73 2.1.73 3.348 0 1.266-.256 2.4-.768 3.397-.512 1.001-1.236 1.757-2.173 2.27-.939.514-1.951.77-3.036.77-1.178 0-2.228-.284-3.156-.853a5.483 5.483 0 0 1-2.106-2.323 7.038 7.038 0 0 1-.716-3.115zm-10.52 2.558l1.57-.402c.12.605.44 1.21.957 1.816.52.604 1.207.907 2.065.907.872 0 1.562-.224 2.068-.675.503-.448.756-.992.756-1.63 0-.686-.265-1.236-.797-1.64-.529-.407-1.253-.61-2.167-.61h-.788v-1.449c.757 0 1.335-.043 1.736-.13.402-.088.757-.312 1.065-.672.308-.359.462-.769.462-1.228 0-.54-.208-1.015-.63-1.416-.42-.402-.99-.602-1.705-.602-.628 0-1.164.157-1.606.473a2.459 2.459 0 0 0-.919 1.258c-.168.52-.253.91-.253 1.165l-1.588-.366c.39-2.653 1.85-3.98 4.377-3.98 1.22 0 2.182.341 2.894 1.019.713.678 1.071 1.469 1.071 2.376 0 1.164-.55 2.065-1.65 2.705a3.05 3.05 0 0 1 1.6 1.08c.428.543.643 1.191.643 1.948 0 1.076-.415 1.975-1.248 2.7-.832.724-1.934 1.087-3.306 1.087-2.362 0-3.898-1.245-4.608-3.734zm-8.54-1.606zm0 0h4.258l-1.303-3.464a43.273 43.273 0 0 1-.896-2.61 17.668 17.668 0 0 1-.69 2.406zm1.198-7.364h1.818l5.087 12.495h-1.881l-1.447-3.787h-5.261l-1.356 3.787h-1.753zm-9.01 5.933c1.07 0 1.826-.198 2.276-.597.448-.398.672-.956.672-1.68 0-.521-.131-.97-.395-1.342a1.867 1.867 0 0 0-1.044-.739c-.28-.072-.794-.11-1.542-.11H27.2v4.468zm-4.887 6.562V47.457h4.717c.83 0 1.463.04 1.903.119.613.1 1.128.297 1.544.581.416.288.75.69 1.003 1.204.253.515.378 1.082.378 1.703 0 1.058-.336 1.957-1.014 2.69-.675.736-1.9 1.102-3.668 1.102H27.2v5.096zm-9.726-1.414h3.307c.892 0 1.561-.18 2.01-.543.445-.364.669-.909.669-1.633 0-.517-.129-.948-.385-1.294-.255-.346-.61-.575-1.064-.69-.457-.112-1.234-.168-2.33-.168h-2.207zm6.456-11.081v1.466h-6.456v3.856H18.8c1.102 0 1.978.105 2.63.318a2.911 2.911 0 0 1 1.564 1.189c.393.581.587 1.259.587 2.033 0 .631-.14 1.222-.421 1.768-.283.55-.701.998-1.26 1.344-.555.346-1.507.521-2.847.521h-4.895V47.457zM1.717 53.899c0 1.504.405 2.687 1.214 3.551.808.864 1.823 1.298 3.045 1.298 1.245 0 2.266-.437 3.071-1.31.803-.872 1.204-2.11 1.204-3.717 0-1.015-.172-1.901-.515-2.657-.343-.758-.846-1.345-1.506-1.76a4.104 4.104 0 0 0-2.228-.626c-1.17 0-2.176.402-3.02 1.204-.842.802-1.265 2.14-1.265 4.017zm-1.71-.03c0-2.07.559-3.693 1.672-4.865 1.115-1.172 2.552-1.757 4.314-1.757 1.155 0 2.193.276 3.121.826a5.397 5.397 0 0 1 2.118 2.303c.485.983.73 2.1.73 3.348 0 1.266-.256 2.4-.768 3.397-.513 1.001-1.237 1.757-2.172 2.27a6.23 6.23 0 0 1-3.037.77c-1.178 0-2.228-.284-3.156-.853a5.477 5.477 0 0 1-2.106-2.323 7.025 7.025 0 0 1-.716-3.115zm123.511-13.413v-11.03H119.4V27.96h9.895v1.466h-4.119v11.03zm-15.709 0V27.96h1.658v5.148h6.458V27.96h1.658v12.496h-1.658v-5.881h-6.458v5.88zm-11.675 0V27.96h9.023v1.466h-7.365v3.84h6.893v1.466h-6.893v4.258h7.662v1.466zm-14.607 0V27.96h2.479l2.955 8.845c.273.824.47 1.44.596 1.85.142-.454.366-1.123.669-2.004l3.008-8.69h2.213v12.495H91.86V30.002l-3.647 10.454h-1.49L83.115 29.81v10.646zm-9.38-5.132zm0 0h4.258l-1.302-3.464a43.33 43.33 0 0 1-.896-2.609 17.673 17.673 0 0 1-.69 2.406zm1.199-7.364h1.817l5.087 12.496h-1.88l-1.447-3.788h-5.262l-1.355 3.788h-1.753zM63.018 40.456v-11.03h-4.12V27.96h9.896v1.466h-4.119v11.03zm-12.374-6.563h3.229c1.07 0 1.827-.197 2.277-.595.448-.4.672-.958.672-1.682 0-.52-.13-.969-.395-1.341a1.857 1.857 0 0 0-1.045-.738c-.278-.073-.794-.11-1.541-.11h-3.197zm-1.658 6.563V27.96h4.719c.828 0 1.462.04 1.901.12.614.101 1.129.296 1.545.582.416.287.75.689 1.004 1.203.252.515.378 1.082.378 1.702 0 1.059-.338 1.958-1.015 2.69-.675.736-1.9 1.102-3.669 1.102h-3.205v5.097h-1.658zm-9.415-5.132zm4.258 0l-1.302-3.464a43.321 43.321 0 0 1-.896-2.609 17.808 17.808 0 0 1-.69 2.406l-1.37 3.667zm-7.852 5.132L40.77 27.96h1.817l5.087 12.496h-1.88l-1.447-3.788h-5.262l-1.355 3.788zM24.82 27.96h9.807v12.496h-1.658v-11.03h-6.492v11.03H24.82zM13.197 40.456V27.96h9.021v1.466h-7.364v3.84h6.894v1.466h-6.894v4.258h7.661v1.466zm-4.768-11.03H4.066v.64c0 1.064-.095 2.522-.287 4.369-.19 1.847-.567 3.365-1.126 4.555h5.776zM2.48 27.96h7.608v11.03h1.117v4.38H9.738v-2.914H1.466v2.914H0v-4.38h.96c1.012-1.52 1.518-4.587 1.518-9.204z"/></g><g><path fill="#a3a3a3" d="M340.171 47.394h1.501v9.896l6.652-9.896h1.638V59.89h-1.502V50.02l-6.634 9.869h-1.655zm-7.519 12.496V48.86h-4.118v-1.466h9.895v1.466h-4.119v11.03zm-6.3-4.383l1.658.419c-.346 1.358-.968 2.39-1.866 3.103-.9.712-1.998 1.07-3.299 1.07-1.344 0-2.438-.274-3.28-.823-.844-.547-1.485-1.341-1.923-2.38a8.51 8.51 0 0 1-.661-3.347c0-1.3.248-2.434.745-3.403.497-.968 1.204-1.704 2.12-2.207.917-.504 1.925-.754 3.025-.754 1.25 0 2.3.317 3.15.954.852.637 1.446 1.53 1.78 2.682l-1.623.383c-.288-.907-.71-1.57-1.26-1.983-.548-.415-1.241-.622-2.076-.622-.956 0-1.76.23-2.403.689a3.643 3.643 0 0 0-1.355 1.853 7.457 7.457 0 0 0-.392 2.399c0 1.062.154 1.99.462 2.78.308.795.788 1.385 1.44 1.779a4.021 4.021 0 0 0 2.114.587c.925 0 1.704-.268 2.345-.8.64-.535 1.073-1.326 1.3-2.38zm-13.673-.748l-1.303-3.464a43.676 43.676 0 0 1-.895-2.61 17.647 17.647 0 0 1-.69 2.406l-1.37 3.668zm-7.853 5.13l4.794-12.495h1.817l5.087 12.496h-1.881l-1.446-3.787h-5.262l-1.355 3.787zm-1.358-12.495V59.89h-1.658V48.86h-4.485v6.437c0 1.31-.06 2.266-.184 2.873-.122.612-.38 1.083-.773 1.423-.393.337-.893.507-1.495.507-.367 0-.805-.077-1.318-.227l.297-1.466c.27.139.504.209.696.209.372 0 .654-.14.84-.422.186-.282.279-.945.279-1.992v-8.808zm-18.452 11.082h3.307c.893 0 1.562-.18 2.01-.544.444-.364.668-.907.668-1.631 0-.518-.127-.948-.383-1.295-.255-.346-.61-.576-1.065-.69-.456-.113-1.233-.167-2.33-.167h-2.206zm6.457-11.082v1.466h-6.456v3.858H288c1.102 0 1.977.104 2.629.316a2.908 2.908 0 0 1 1.564 1.19c.393.582.588 1.26.588 2.033 0 .63-.14 1.221-.421 1.768-.283.55-.702.998-1.26 1.344-.556.347-1.507.52-2.848.52h-4.895V47.395zm-20.555 6.443c0 1.504.405 2.688 1.213 3.552.809.864 1.824 1.297 3.045 1.297 1.245 0 2.266-.437 3.072-1.31.803-.872 1.204-2.111 1.204-3.716 0-1.015-.172-1.903-.515-2.659-.343-.756-.846-1.344-1.507-1.76a4.104 4.104 0 0 0-2.227-.625c-1.17 0-2.176.401-3.02 1.205-.843.802-1.265 2.14-1.265 4.016zm-1.71-.03c0-2.07.559-3.692 1.672-4.865 1.115-1.172 2.551-1.757 4.314-1.757 1.154 0 2.193.276 3.121.827a5.387 5.387 0 0 1 2.117 2.303c.486.983.73 2.1.73 3.348 0 1.264-.256 2.399-.768 3.397-.512 1-1.236 1.756-2.172 2.268a6.216 6.216 0 0 1-3.037.772c-1.178 0-2.228-.286-3.155-.853a5.473 5.473 0 0 1-2.106-2.324 7.023 7.023 0 0 1-.716-3.116zm101.53-28.91h1.047c-.085.718-.347 1.27-.783 1.655-.436.386-1.015.578-1.739.578-.728 0-1.309-.192-1.743-.572-.433-.384-.694-.937-.779-1.661h1.047c.078.392.239.686.474.878.236.195.556.291.954.291.463 0 .812-.094 1.047-.283.236-.186.396-.483.475-.886zm-6.23 3h1.5v9.896l6.652-9.895h1.637v12.495h-1.5v-9.868l-6.635 9.868h-1.655zm-12.406 6.443c0 1.504.405 2.688 1.213 3.552.81.864 1.823 1.297 3.046 1.297 1.244 0 2.265-.436 3.07-1.308.804-.873 1.206-2.113 1.206-3.717 0-1.016-.173-1.903-.516-2.66-.343-.755-.847-1.343-1.506-1.76a4.106 4.106 0 0 0-2.228-.624c-1.17 0-2.176.4-3.02 1.204-.843.803-1.265 2.141-1.265 4.016zm-1.71-.028c0-2.071.558-3.694 1.673-4.866 1.113-1.173 2.55-1.757 4.312-1.757 1.155 0 2.194.276 3.121.826a5.38 5.38 0 0 1 2.118 2.303c.486.983.73 2.1.73 3.348 0 1.265-.256 2.4-.767 3.397-.512 1.001-1.236 1.757-2.173 2.269a6.216 6.216 0 0 1-3.037.771c-1.178 0-2.228-.285-3.156-.852a5.483 5.483 0 0 1-2.106-2.325 7.031 7.031 0 0 1-.716-3.114zm-7.772-6.414v5.48c.754 0 1.286-.148 1.591-.442.308-.294.698-.997 1.175-2.115.347-.823.631-1.401.858-1.739.224-.34.544-.626.96-.855.413-.23.873-.346 1.373-.346.637 0 .972.005 1.007.017v1.43c-.06 0-.169-.002-.332-.008a16.955 16.955 0 0 0-.335-.008c-.526 0-.919.127-1.175.384-.262.256-.558.802-.896 1.638-.418 1.058-.773 1.727-1.064 2.003a3.355 3.355 0 0 1-1.039.66c.806.221 1.603.969 2.389 2.237l2.573 4.16h-2.052l-2.098-3.386c-.573-.94-1.053-1.585-1.437-1.934-.387-.352-.884-.527-1.498-.527v5.846h-1.658V27.898zm-5.395 8.112l1.658.42c-.346 1.357-.969 2.39-1.868 3.102-.899.713-1.998 1.071-3.297 1.071-1.345 0-2.438-.274-3.281-.823-.844-.547-1.484-1.341-1.924-2.38a8.533 8.533 0 0 1-.66-3.347c0-1.3.247-2.435.745-3.404.497-.968 1.204-1.704 2.12-2.207.916-.504 1.926-.753 3.025-.753 1.251 0 2.302.317 3.15.954.853.637 1.446 1.53 1.78 2.681l-1.623.384c-.288-.907-.71-1.57-1.259-1.983-.55-.416-1.242-.623-2.077-.623-.957 0-1.76.23-2.402.69a3.643 3.643 0 0 0-1.355 1.853 7.46 7.46 0 0 0-.394 2.4c0 1.06.155 1.988.464 2.78.308.794.788 1.384 1.439 1.777a4.022 4.022 0 0 0 2.114.587c.926 0 1.705-.267 2.344-.8.64-.534 1.074-1.326 1.301-2.379zm-13.632-6.646h-4.363v.64c0 1.064-.097 2.521-.289 4.368-.189 1.847-.567 3.366-1.124 4.555h5.776zm1.658-1.466v11.03h1.117v4.38H324.9v-2.915h-8.272v2.915h-1.466v-4.38h.96c1.012-1.519 1.519-4.588 1.519-9.203v-1.827zm-20.73 6.442c0 1.504.404 2.688 1.213 3.552.808.864 1.824 1.297 3.046 1.297 1.244 0 2.265-.436 3.07-1.308.803-.873 1.205-2.113 1.205-3.717 0-1.016-.172-1.903-.515-2.66-.344-.755-.846-1.343-1.507-1.76a4.103 4.103 0 0 0-2.228-.624c-1.17 0-2.176.4-3.019 1.204-.843.803-1.265 2.141-1.265 4.016zm-1.71-.028c0-2.071.558-3.694 1.673-4.866 1.113-1.173 2.55-1.757 4.313-1.757 1.155 0 2.193.276 3.12.826a5.393 5.393 0 0 1 2.118 2.303c.486.983.73 2.1.73 3.348 0 1.265-.256 2.4-.768 3.397-.512 1.001-1.236 1.757-2.173 2.269a6.215 6.215 0 0 1-3.036.771c-1.178 0-2.228-.285-3.156-.852a5.478 5.478 0 0 1-2.106-2.325 7.021 7.021 0 0 1-.715-3.114zm-7.929-6.414h8.08v1.466h-6.423v11.03h-1.657zm-12.405 6.442c0 1.504.404 2.688 1.212 3.552.81.864 1.825 1.297 3.046 1.297 1.245 0 2.266-.436 3.072-1.308.802-.873 1.204-2.113 1.204-3.717 0-1.016-.172-1.903-.515-2.66-.343-.755-.847-1.343-1.507-1.76a4.106 4.106 0 0 0-2.228-.624c-1.169 0-2.176.4-3.019 1.204-.844.803-1.265 2.141-1.265 4.016zm-1.71-.028c0-2.071.559-3.694 1.672-4.866 1.114-1.173 2.551-1.757 4.314-1.757 1.154 0 2.193.276 3.12.826a5.39 5.39 0 0 1 2.118 2.303c.486.983.73 2.1.73 3.348 0 1.265-.256 2.4-.768 3.397-.512 1.001-1.236 1.757-2.173 2.269a6.216 6.216 0 0 1-3.037.771c-1.177 0-2.227-.285-3.155-.852a5.472 5.472 0 0 1-2.106-2.325 7.02 7.02 0 0 1-.715-3.114zm-2.222-6.414v12.495h-1.658v-11.03H272.4v6.438c0 1.309-.06 2.265-.182 2.873-.122.611-.382 1.082-.775 1.422-.392.338-.893.507-1.495.507-.366 0-.805-.075-1.317-.227l.296-1.466c.27.14.504.21.696.21.372 0 .654-.14.84-.422.187-.282.28-.946.28-1.993v-8.807zm-20.901 6.442c0 1.504.403 2.688 1.213 3.552.808.864 1.823 1.297 3.045 1.297 1.245 0 2.266-.436 3.07-1.308.804-.873 1.205-2.113 1.205-3.717 0-1.016-.171-1.903-.515-2.66-.343-.755-.846-1.343-1.506-1.76a4.11 4.11 0 0 0-2.229-.624c-1.169 0-2.175.4-3.019 1.204-.843.803-1.264 2.141-1.264 4.016zm-1.711-.028c0-2.071.559-3.694 1.673-4.866 1.113-1.173 2.55-1.757 4.313-1.757 1.155 0 2.193.276 3.12.826a5.387 5.387 0 0 1 2.118 2.303c.486.983.73 2.1.73 3.348 0 1.265-.255 2.4-.768 3.397-.511 1.001-1.236 1.757-2.172 2.269a6.216 6.216 0 0 1-3.037.771c-1.177 0-2.227-.285-3.156-.852a5.478 5.478 0 0 1-2.105-2.325 7.034 7.034 0 0 1-.716-3.114zm-8.967 4.615h3.112c.535 0 .91-.02 1.128-.06.38-.067.699-.18.955-.34.256-.161.465-.394.631-.699.166-.305.247-.657.247-1.056 0-.468-.12-.872-.36-1.218a1.881 1.881 0 0 0-.996-.728c-.421-.139-1.032-.209-1.826-.209h-2.891zm0-5.776h2.702c.733 0 1.26-.05 1.577-.145.421-.125.738-.335.95-.626.212-.29.32-.654.32-1.094 0-.415-.098-.782-.3-1.096a1.505 1.505 0 0 0-.851-.651c-.37-.117-1.004-.175-1.9-.175h-2.498v3.787zm-1.658-5.253h4.688c.955 0 1.72.126 2.299.378a2.952 2.952 0 0 1 1.352 1.17c.329.523.491 1.073.491 1.648 0 .533-.145 1.036-.433 1.507-.288.472-.724.853-1.309 1.144.756.221 1.339.6 1.742 1.134.407.532.612 1.164.612 1.89 0 .588-.126 1.132-.373 1.635-.247.503-.553.89-.916 1.163-.364.271-.82.477-1.367.617-.55.14-1.222.21-2.018.21h-4.768z"/></g></g></g></svg>