<svg xmlns="http://www.w3.org/2000/svg" width="85" height="47" viewBox="0 0 85 47"><g><g><path fill="#052344" d="M.448 24.632a.175.175 0 0 1-.064.047l.014.316.312-.2c.276.242.605.451.818.745.15.207.168.525.203.8.057.445.078.895.115 1.343.023.273.172.455.436.501.539.095.752.455.79.946.028.365.018.733.015 1.1-.005.681-.02 1.364.27 2.004.104.23.236.446.603.393-.05-.2-.107-.385-.139-.574-.036-.216-.073-.436-.066-.652.012-.377.255-.614.68-.7.131-.028.267-.04.415-.06.024-.505.185-.959.505-1.33.52-.603 1.124-.826 1.953-.38.196.105.414.17.588.24.136-.318.252-.59.37-.862.216-.509.108-1.004-.056-1.499a4.4 4.4 0 0 1-.174-.633c-.07-.417.161-.632.57-.726.286-.066.532-.3.811-.425.3-.133.611-.265.931-.324.302-.055.522.128.586.44.061.3.1.607.147.911l.08.016c.044-.118.09-.234.131-.353.16-.45.403-.596.88-.546.207.021.418.008.628.01.647.005 1.084.316 1.314.916.108.28.267.466.586.537.48.106.715.421.75.918.012.178.018.356.023.534.018.665.26.9.928.976.381.044.772.105 1.128.24.557.208.771.71.939 1.245.061.192.211.38.369.51.15.124.276.043.262-.174-.016-.24-.05-.48-.037-.72.023-.375.157-.504.515-.579a.264.264 0 0 0 .145-.085c.314-.408.312-.409.725-.456.183-.879.705-.898 1.415-.784 1.032.165 1.95.654 2.901 1.052.595.25 1.21.454 1.813.687.452.173.506.263.493.74-.016.548.047.665.531.742.406.065.677.29.833.634.358.788.961 1.193 1.811 1.28.458.047.672.266.711.722.034.406.021.815.048 1.222.028.413.146.79.423 1.121.117.14.154.36.19.55.04.213.038.435.053.633.187-.032.365-.112.515-.075.142.034.245.205.381.291.35.22.697.451 1.067.631.522.253.984.562 1.173 1.135.096.293.155.612.154.92-.002.28.123.44.33.552a4.593 4.593 0 0 0 1.757.528c.144.013.266.017.344-.175.142-.354.481-.442.822-.473.232-.02.421-.08.62-.227.443-.328.967-.209 1.453-.115.478.093.881.31 1.089.827.15.37.807.54 1.262.328.621-.289 1.267-.35 1.929-.347.295.001.43-.08.426-.412a2.024 2.024 0 0 1 .17-.819c.35-.779 1.283-.8 1.928-.3.385.296.673.721 1 1.093.137.155.255.326.393.48.297.332.623.434 1.086.293.724-.22 1.446-.082 2.143.204.45.185.9.396 1.372.491 1.015.205 1.865-.148 2.565-.902.204-.22.423-.436.671-.6.31-.207.64-.144.939.067.26.184.513.228.847.146.294-.072.654-.034.945.07.558.198.675.142.785-.43.101-.532.298-1.046.397-1.579.073-.392.092-.804.071-1.203-.03-.586-.135-1.172.241-1.696.206-.287.495-.458.837-.484 1.382-.104 2.707.123 3.96.735.64.313 1.004.832.99 1.54-.01.433.198.763.356 1.12.05.11.236.157.36.233l.063-.09-.211-.399c.38.023.712.02 1.034.076.094.016.159.202.273.36.02-.01.142-.025.16-.077.025-.07-.029-.168-.055-.278.367-.125.82-.135 1.17.087.34.216.577.592.911.953.236-.314.478-.653.74-.977.174-.219.36-.436.568-.62.32-.285.712-.303 1.094-.166.416.15.559.521.596.92.096 1.052-.04 2.092-.21 3.128-.045.268-.18.435-.487.42-.297-.016-.473.207-.572.424a3.648 3.648 0 0 0-.19 2.572c.02.07.061.134.098.196.031.051.071.096.12.16.347-.226.501-.584.622-.922.186-.522.597-.646 1.051-.688a.763.763 0 0 0 .576-.305c.563-.684.758-1.508.87-2.348.173-1.297.313-2.599.431-3.902.029-.32-.096-.652-.123-.98-.033-.403-.074-.81-.041-1.21.03-.35-.009-.62-.296-.863-.129-.109-.156-.335-.243-.5-.206-.399-.461-.776-.62-1.19a5.68 5.68 0 0 1-.337-1.326c-.092-.757-.832-1.179-1.51-.81-.077.042-.134.154-.161.245-.103.34-.18.687-.287 1.025-.085.266-.236.498-.536.554-.297.054-.512-.122-.655-.344-.15-.235-.313-.288-.589-.268-.746.053-1.049-.256-1.077-1.002-.028-.76.182-1.48.43-2.175.352-.994.478-2.032.727-3.045.102-.412.34-.799.561-1.17.313-.526.645-1.044 1.011-1.535.34-.455.84-.682 1.397-.737.503-.05.84-.337 1.135-.7.151-.185.283-.387.407-.592.312-.519.408-.566 1.017-.457.05.01.102.008.203.015-.2-.637-.407-1.229-.569-1.833-.116-.43-.183-.877-.25-1.319-.042-.269.075-.457.354-.545.363-.115.464-.45.593-.758.18-.428.43-.535.874-.366-.082-.244-.137-.502-.254-.728-.156-.303-.39-.568-.538-.874-.27-.558.046-1.035.667-1.05.864-.023 1.729.567 2.033 1.44.237.678.502 1.364.429 2.103-.028.283-.145.556-.223.833-.05.184-.16.371-.147.55.144 1.914.907 3.53 2.371 4.796.166.143.347.278.472.452.177.246.325.517.444.795.018.043-.046.12-.119.212l.192.236c.185-.188.251-.152.438.143.364.576.908.745 1.572.833l-.16-.49c-.112-.336-.1-.356.259-.417l.02-.003-.095-.264c-.083.004-.211-.056-.246-.12-.035-.066.015-.212.074-.287l.019-.022-.096-.269a.326.326 0 0 1-.134.062c-.082.013-.195-.16-.295-.25l.242-.225-.196-.205c-.072.054-.152.112-.229.182-.046-.219-.11-.366-.1-.507.03-.396.087-.789.136-1.183.025-.198.067-.394.078-.59.013-.219-.073-.377-.25-.538a2.911 2.911 0 0 1-.573-.758.549.549 0 0 1 .13-.724c-.281-.2-.535-.399-.804-.573-.216-.14-.35-.295-.344-.577.006-.31-.189-.403-.46-.244-.152.09-.288.211-.445.286-.313.148-.599-.004-.594-.346.007-.438-.182-.774-.414-1.117-.424-.627-.379-.895.163-1.418.039-.038.03-.164 0-.229-.106-.225-.237-.438-.345-.662-.148-.308-.07-.593.19-.785.85-.627 1.216-1.52 1.374-2.509a2.093 2.093 0 0 0-.123-1.065c-.285-.707-.274-1.384-.003-2.076.011-.03.024-.058.036-.088.212-.519.212-.519-.26-.796-.08-.047-.162-.094-.235-.15-.461-.36-.586-.354-1 .07-.16.165-.307.345-.48.494-.295.255-.622.17-.796-.179-.235-.47-.182-.907.131-1.32.05-.067.092-.14.148-.2.31-.329.345-.669.068-1.037a.853.853 0 0 1-.146-.274c-.095-.345.05-.52.408-.514.567.011.626-.043.713-.597.086-.544.421-.889.906-1.112.285-.13.328-.324.11-.553a.34.34 0 0 0-.283-.079c-.408.117-.614-.013-.638-.449-.015-.257-.003-.516-.003-.814-.06.038-.093.054-.119.077-.336.306-.668.617-1.007.92-.13.116-.156.191-.033.355.098.13.148.358.104.51-.026.094-.267.127-.412.186-.018.007-.042.002-.063.001-.627-.022-1.236-.032-1.774.41-.284.233-.684.32-.984.54-.303.221-.541.531-.818.79a6.945 6.945 0 0 1-.676.573c-.37.267-.781.481-1.132.77-.407.334-.363.548.096.79.193.101.4.183.58.304.267.18.25.485-.048.602-.519.204-1.028.415-1.598.501-.636.097-1.182.45-1.461 1.085-.147.333-.262.68-.4 1.018-.137.332-.34.352-.64.15-.188-.128-.434-.177-.66-.237a15.266 15.266 0 0 0-1.095-.26c-.31-.059-.484.117-.592.393a6.807 6.807 0 0 1-.333.738c-.219.403-.442.483-.875.348-.11-.035-.217-.077-.327-.109-.274-.08-.495-.074-.649.238-.128.26-.352.415-.674.28-.042-.018-.127-.017-.147.01-.306.402-.803.368-1.213.527-.334.13-.516.343-.518.697-.002.314.033.631.007.942-.012.146-.098.336-.211.404-.08.05-.285-.045-.396-.126-.289-.21-.574-.157-.737.164-.162.318-.379.417-.726.292-.279-.1-.545-.236-.84-.367.027.283.094.543.067.793-.023.21-.103.467-.25.598-.199.176-.485.104-.7-.049-.678-.483-1.351-.976-1.616-1.826-.075-.24-.24-.267-.44-.173-.237.112-.348.311-.38.57-.068.543-.123.575-.633.478a.614.614 0 0 0-.309.027c-.663.233-1.273.082-1.86-.243-.053-.029-.109-.05-.175-.083-.036.081-.07.144-.095.211-.223.594-.518.721-1.127.484-.068-.026-.135-.056-.205-.079-.445-.149-.857-.17-1.182.261a1.239 1.239 0 0 1-.42.371c-.126.061-.334.07-.445 0-.075-.046-.107-.298-.052-.399.344-.628.723-1.238 1.081-1.859.075-.132.115-.284.168-.428l.464-1.26.12-.313c-.325-.054-.626-.089-.919-.158-.622-.146-.718-.342-.457-.986-.256-.166-.517-.347-.789-.509-.185-.109-.3-.018-.34.175-.064.318-.129.636-.18.956-.067.428-.234.622-.662.662-.38.034-.695.1-.904.49-.143.268-.462.174-.72.117-.273-.06-.524-.149-.638-.487-.035.098-.077.194-.103.294-.096.363-.422.502-.749.312-.046-.026-.085-.062-.131-.087-.42-.235-.48-.209-.631.255-.028.086-.068.191-.136.24-.429.303-.557.742-.635 1.231a.85.85 0 0 1-.303.501c-.208.153-.438.043-.627-.118-.055-.046-.118-.084-.17-.132-.464-.426-.572-.452-1.178-.295-.345.63-.125 1.221.07 1.815.03.09.056.181.066.274.023.223.045.503-.207.563a1.145 1.145 0 0 1-.735-.079c-.1-.05-.088-.365-.087-.559 0-.092.092-.183.12-.234-.156-.253-.287-.493-.447-.71-.073-.1-.204-.159-.316-.242-.123.147-.207.31-.34.39-.136.081-.334.133-.48.097-.078-.019-.137-.246-.149-.384-.023-.276-.007-.554-.082-.85-.033.09-.082.18-.094.274-.019.145-.006.293-.017.44-.041.556-.34.92-.872 1.052-.21.053-.24.16-.292.335a9.525 9.525 0 0 1-.463 1.278c-.067.146-.269.257-.433.326-.314.133-.605.03-.767-.229-.157-.248-.113-.51.158-.75.196-.174.276-.337.227-.622-.035-.208.063-.47.177-.667.189-.327.309-.642.27-1.034-.02-.19.075-.417.177-.592.144-.247.343-.46.496-.717-.48.127-.856.42-1.229.716a1.828 1.828 0 0 0-.577.832c-.108.295-.272.561-.59.696-.078.033-.136.137-.179.221-.182.361-.322.748-.54 1.084-.28.43-.738.371-.946-.093-.133-.295-.251-.586-.113-.932.129-.325.055-.629-.227-.877a4.988 4.988 0 0 1-.557-.587c-.158-.193-.277-.136-.438-.003-.22.183-.443.405-.704.493-.566.192-1.01-.089-1.345-.77-.083-.167-.156-.338-.242-.524-1.102.58-1.608-.274-2.195-.915-.744.424-1.577.166-1.776-.588-.071-.269.056-.589.078-.887.014-.2.003-.402.003-.603l-.1-.024c-.107.197-.222.39-.318.591-.338.707-1.17.983-1.85.595a.613.613 0 0 1-.254-.285c-.119-.306-.335-.38-.627-.317-.317.068-.631.15-.949.211-.477.094-.704-.086-.759-.572-.019-.173-.068-.343-.122-.604-.231.206-.408.37-.592.524-.193.162-.383.344-.662.152-.328-.226-.502-.587-.358-.88.126-.257.316-.484.491-.714.244-.32.508-.627.749-.95.158-.214.299-.422.601-.452.068-.006.152-.119.181-.199.1-.275.163-.563.268-.834.081-.21.212-.406.486-.349.254.054.345.26.37.49.068.656.118 1.315.196 1.971.026.224.111.442.176.661.058.195.18.224.324.091.276-.255.562-.468.95-.553.328-.073.475-.357.491-.686a4.364 4.364 0 0 0-.022-.626c-.039-.39-.059-.759.214-1.102.254-.32.027-.608-.151-.884-.167-.259-.329-.522-.531-.843-.419.11-.55-.378-.877-.69-.2.268-.379.53-.581.77-.137.164-.307.3-.508.491-.045-.149-.065-.256-.043-.336-.083.028-.17.046-.258.052-.006.236-.094.273-.432.403-.582.225-1.191.407-1.726.715-.329.19-.567.561-.796.886-.173.245-.299.495-.649.508-.21.008-.317.133-.296.356.011.104.04.234-.008.31-.089.141-.224.353-.347.36-.709.028-1.431.103-2.117-.155-.204-.077-.371-.246-.57-.343-.147-.072-.336-.16-.47-.12-.115.034-.222.23-.253.372-.04.178.01.375.005.563-.01.332-.249.46-.533.28-.103-.067-.189-.164-.274-.255-.446-.474-.81-.489-1.289-.05-.046.042-.095.08-.142.122-.408.361-.57.326-.789-.225-.112.112-.241.191-.296.305-.216.451-.582.75-.978 1.024-.386.27-.431.415-.172.798.208.308.328.64.424.993.158.58-.035 1.012-.583 1.244-.486.205-.507.24-.486.771.022.567-.155.781-.718.85-.445.052-.871.015-1.273-.224-.079-.047-.266-.012-.34.055-.086.08-.174.267-.135.348.114.24.288.452.442.672.415.594.413.891-.01 1.474-.109.151-.246.297-.303.468-.061.181-.06.39-.053.583.011.28.053.557.088.897a2.059 2.059 0 0 1-.166-.109l.01.044a.92.92 0 0 1-.039.456c.236.263.474.525.696.8a.49.49 0 0 1 .082.353c-.066.38-.155.756-.249 1.13-.175.698-.613.775-1.227.632-.223-.052-.444-.113-.669-.154-.308-.057-.525.06-.64.362-.028.073-.09.188-.139.19-.132.004-.265-.043-.398-.07l.134-.425c-.224-.11-.668.035-.803-.324l-.273.126c.075.071.154.2.263.386-.222.061-.409.108-.593.166-.165.052-.323.128-.489.168a.98.98 0 0 1-.37.013c-.028-.004-.076-.172-.047-.208.088-.104.199-.202.321-.262a.525.525 0 0 1 .114-.037l-.363-.18c-.125.146-.212.376-.501.122l-.116.034.264 1.74a1.077 1.077 0 0 1-.345-.212l-.107.294c.068.065.126.127.144.2.035.136-.02.425-.065.431-.284.038-.373.26-.517.44z"/></g></g></svg>