<svg xmlns="http://www.w3.org/2000/svg" width="93" height="57" viewBox="0 0 93 57"><g><g><g><path fill="#5a64af" d="M.686 16.212c.333-.186.647-.424 1.002-.55C15.885 10.65 30.088 5.65 44.284.632c.977-.345 1.883-.355 2.865-.008 14.196 5.018 28.4 10.016 42.6 15.02 1.054.372 1.042.374.652 1.476-.076.214-.052.469-.052.706-.003 6.55-.009 13.103.017 19.655.001.353.175.83.437 1.039 2.04 1.622 1.98 4.266-.17 5.706-.12.08-.236.17-.386.279 1.1 2.708 1.717 5.512 2.018 8.387.196 1.866-.96 3.463-2.732 3.842-1.669.357-3.532-.647-3.922-2.314-.215-.922-.18-1.967.003-2.905.46-2.353 1.07-4.677 1.646-7.131-.808-.514-1.619-1.291-1.784-2.563-.172-1.334.295-2.366 1.3-3.227.253-.217.524-.594.526-.9.03-6.313.021-12.626.018-18.94 0-.116-.03-.232-.061-.453-.334.118-.635.214-.929.328-12.98 5.046-25.963 10.086-38.935 15.153-1.154.45-2.2.44-3.354-.01-14.027-5.474-28.066-10.918-42.098-16.378-.437-.17-.839-.428-1.257-.645v-.536z"/></g><g><path fill="#5a64af" d="M14.862 25.654c3.348 1.298 6.618 2.563 9.884 3.834 6.49 2.525 12.981 5.04 19.457 7.594 1.072.422 2.035.39 3.1-.026 9.447-3.7 18.907-7.366 28.364-11.04.297-.115.6-.215.921-.33.045.145.092.224.091.302-.038 4.137.005 8.276-.157 12.408-.083 2.108-1.193 3.904-2.54 5.498-2.939 3.473-6.816 5.532-10.986 7.086-5.52 2.059-11.272 3.129-17.146 3.09-7.556-.047-14.864-1.488-21.647-4.993-3.077-1.59-5.823-3.608-7.744-6.573-.87-1.344-1.544-2.805-1.572-4.404-.073-4.104-.025-8.211-.025-12.446z"/></g></g></g></svg>