<svg xmlns="http://www.w3.org/2000/svg" width="83" height="74" viewBox="0 0 83 74"><g><g><g><path fill="#e4bd89" d="M15.562 39.882c3.534.004 6.461 2.914 6.501 6.464.04 3.541-2.944 6.537-6.508 6.532-3.556-.004-6.458-2.896-6.48-6.459-.024-3.584 2.91-6.54 6.487-6.537zM34.82 59.286c.153 3.442-2.703 6.49-6.345 6.593-3.46.098-6.48-2.498-6.649-6.369-.149-3.427 2.706-6.43 6.266-6.582 3.614-.154 6.563 2.632 6.728 6.358zM25.795 29.6c.012 3.581-2.948 6.547-6.507 6.521-3.535-.026-6.463-2.957-6.485-6.489-.023-3.558 2.951-6.516 6.532-6.499a6.471 6.471 0 0 1 6.46 6.467zm7.741-4.749c-3.573-.059-6.47-2.973-6.466-6.5.005-3.528 2.912-6.449 6.473-6.503 3.535-.054 6.53 2.933 6.525 6.51-.003 3.583-2.99 6.553-6.532 6.493zM.77 43.021c.205 1.447.361 2.902.623 4.338 1.502 8.237 5.682 14.833 12.26 19.966 3.062 2.391 6.261 4.541 9.998 5.74 1.157.37 2.366.582 3.551.868h3.043c1.826-.378 3.631-.807 5.28-1.738 3.301-1.863 5.87-4.517 8.03-7.567 1.4-1.976 2.682-4.042 3.93-6.12 1.056-1.76 2.557-2.62 4.57-2.502 2.352.14 4.69.168 7.007-.334 5.258-1.14 9.014-4.187 11.338-9.009 2.317-4.807 2.817-9.897 2.261-15.138-.01-.097-.06-.189-.132-.405-.25.33-.44.575-.626.822-2.115 2.815-4.16 5.685-6.374 8.42-1.06 1.312-2.338 2.504-3.695 3.511-2.678 1.988-5.799 1.297-7.378-1.516-.832-1.48-1.085-3.115-.955-4.796.177-2.282.897-4.373 2.3-6.209.19-.25.34-.54.464-.832 2.418-5.659 4.818-11.326 7.256-16.975.241-.558.104-.844-.288-1.218-4.909-4.683-10.762-7.41-17.439-8.392-7.293-1.072-14.426-.348-21.333 2.222-6.976 2.596-12.578 7.013-16.856 13.1-3.256 4.63-5.305 9.767-6.293 15.328-.24 1.36-.365 2.741-.542 4.112v4.324z"/></g><g><path fill="#e4bd89" d="M80.904-.06c.878 1.543 1.413 3.448 1.698 5.432.362 2.512.138 4.994-.43 7.455-.706 3.042-3.267 5.451-6.384 5.993-3.238.563-6.39-.774-8.112-3.44-2.073-3.208-1.769-7.012.693-9.91 1.564-1.84 3.308-3.404 5.617-4.21.721-.25 1.497-.355 2.254-.495 1.502-.277 3.01-.534 4.664-.825z"/></g><g><path fill="#e4bd89" d="M61.548 23.7c2.886 2.364 5.818 4.371 9.488 5.28-.18.267-.313.48-.46.68-2.36 3.191-4.723 6.382-7.085 9.572-.905 1.221-1.978 2.234-3.45 2.734-2.072.705-3.71-.185-3.97-2.342-.137-1.126-.113-2.404.29-3.438 1.618-4.164 3.412-8.258 5.187-12.487z"/></g><g><path fill="#e4bd89" d="M65.625 14.196c2.146 4.905 7.211 7.156 12.435 5.278-.193.298-.313.505-.454.697-1.059 1.435-2.142 2.854-3.174 4.31-.335.472-.674.63-1.256.562-2.545-.292-4.712-1.455-6.744-2.9-.952-.679-1.819-1.477-2.697-2.25-.157-.139-.309-.483-.244-.643.665-1.647 1.374-3.275 2.134-5.054z"/></g></g></g></svg>