<svg xmlns="http://www.w3.org/2000/svg" width="27" height="27" viewBox="0 0 27 27"><defs><clipPath id="to6qa"><path fill="#fff" d="M3.686 17.829c-3.905-3.905-3.905-10.237 0-14.142 3.906-3.905 10.237-3.905 14.142 0 3.906 3.905 3.906 10.237 0 14.142-3.905 3.905-10.236 3.905-14.142 0z"/></clipPath><clipPath id="to6qb"><path fill="#fff" d="M25.606 27.02l-9.192-9.192 1.414-1.414 9.193 9.192z"/></clipPath></defs><g><g><g><path fill="#fff" d="M3.686 17.829c-3.905-3.905-3.905-10.237 0-14.142 3.906-3.905 10.237-3.905 14.142 0 3.906 3.905 3.906 10.237 0 14.142-3.905 3.905-10.236 3.905-14.142 0z"/><path fill="none" stroke="#39a2a7" stroke-miterlimit="20" stroke-width="4" d="M3.686 17.829c-3.905-3.905-3.905-10.237 0-14.142 3.906-3.905 10.237-3.905 14.142 0 3.906 3.905 3.906 10.237 0 14.142-3.905 3.905-10.236 3.905-14.142 0z" clip-path="url(&quot;#to6qa&quot;)"/></g><g><path fill="#fff" d="M25.606 27.02l-9.192-9.192 1.414-1.414 9.193 9.192z"/><path fill="none" stroke="#39a2a7" stroke-miterlimit="20" stroke-width="2" d="M25.606 27.02v0l-9.192-9.192v0l1.414-1.414v0l9.193 9.192v0z" clip-path="url(&quot;#to6qb&quot;)"/></g></g></g></svg>